<?xml version="1.0" encoding="UTF-8" standalone="no"?>
<!DOCTYPE svg PUBLIC "-//W3C//DTD SVG 1.1//EN"
 "http://www.w3.org/Graphics/SVG/1.1/DTD/svg11.dtd">
<!-- Generated by graphviz version 14.1.5 (20260411.2331)
 -->
<!-- Title: cronbach_alpha_flow Pages: 1 -->
<svg width="1210pt" height="1189pt"
 viewBox="0.00 0.00 1210.00 1189.00" xmlns="http://www.w3.org/2000/svg" xmlns:xlink="http://www.w3.org/1999/xlink">
<g id="graph0" class="graph" transform="scale(1 1) rotate(0) translate(28.8 1159.9)">
<title>cronbach_alpha_flow</title>
<polygon fill="#f6f8fb" stroke="none" points="-28.8,28.8 -28.8,-1159.9 1180.96,-1159.9 1180.96,28.8 -28.8,28.8"/>
<text xml:space="preserve" text-anchor="start" x="333.08" y="-1101.5" font-family="Arial" font-weight="bold" font-size="28.00">Flow Đọc Kết Quả Cronbach&#39;s Alpha</text>
<text xml:space="preserve" text-anchor="start" x="421.21" y="-1084.9" font-family="Arial" font-size="16.00">Nhìn alpha trước, rồi mới soi tiếp từng item</text>
<!-- start -->
<g id="node1" class="node">
<title>start</title>
<path fill="#ffffff" stroke="#c8d8e7" d="M808.54,-1079.1C808.54,-1079.1 578.5,-1079.1 578.5,-1079.1 572.5,-1079.1 566.5,-1073.1 566.5,-1067.1 566.5,-1067.1 566.5,-1024.7 566.5,-1024.7 566.5,-1018.7 572.5,-1012.7 578.5,-1012.7 578.5,-1012.7 808.54,-1012.7 808.54,-1012.7 814.54,-1012.7 820.54,-1018.7 820.54,-1024.7 820.54,-1024.7 820.54,-1067.1 820.54,-1067.1 820.54,-1073.1 814.54,-1079.1 808.54,-1079.1"/>
<text xml:space="preserve" text-anchor="start" x="668.77" y="-1054.55" font-family="Arial" font-weight="bold" font-size="13.00">Bắt đầu</text>
<text xml:space="preserve" text-anchor="start" x="584.02" y="-1028.9" font-family="Arial" font-size="13.00">Nhìn Cronbach&#39;s Alpha của thang đo</text>
</g>
<!-- alpha_q -->
<g id="node2" class="node">
<title>alpha_q</title>
<polygon fill="#fff4d8" stroke="#e7c76a" points="693.52,-953.7 447.73,-887.3 693.52,-820.9 939.31,-887.3 693.52,-953.7"/>
<text xml:space="preserve" text-anchor="start" x="663.14" y="-895.95" font-family="Arial" font-weight="bold" font-size="13.00">Câu hỏi 1</text>
<text xml:space="preserve" text-anchor="start" x="588.14" y="-870.3" font-family="Arial" font-size="13.00">Alpha đã đủ ổn để dùng tiếp chưa?</text>
</g>
<!-- start&#45;&gt;alpha_q -->
<g id="edge1" class="edge">
<title>start&#45;&gt;alpha_q</title>
<path fill="none" stroke="#617c98" stroke-width="1.8" d="M693.52,-1012.45C693.52,-998.96 693.52,-982.66 693.52,-966.38"/>
<polygon fill="#617c98" stroke="#617c98" stroke-width="1.8" points="697.02,-966.7 693.52,-956.7 690.02,-966.7 697.02,-966.7"/>
</g>
<!-- alpha_low -->
<g id="node3" class="node">
<title>alpha_low</title>
<path fill="#fff1ee" stroke="#deb0a8" d="M664.54,-749.4C664.54,-749.4 248.5,-749.4 248.5,-749.4 242.5,-749.4 236.5,-743.4 236.5,-737.4 236.5,-737.4 236.5,-680 236.5,-680 236.5,-674 242.5,-668 248.5,-668 248.5,-668 664.54,-668 664.54,-668 670.54,-668 676.54,-674 676.54,-680 676.54,-680 676.54,-737.4 676.54,-737.4 676.54,-743.4 670.54,-749.4 664.54,-749.4"/>
<text xml:space="preserve" text-anchor="start" x="409.27" y="-724.85" font-family="Arial" font-weight="bold" font-size="13.00">Alpha chưa ổn</text>
<text xml:space="preserve" text-anchor="start" x="417.52" y="-699.2" font-family="Arial" font-size="13.00">alpha &lt; 0.70.</text>
<text xml:space="preserve" text-anchor="start" x="254.02" y="-684.2" font-family="Arial" font-size="13.00">Đừng kết luận vội, cần kiểm tra lại thang đo trước khi phân tích tiếp.</text>
</g>
<!-- alpha_q&#45;&gt;alpha_low -->
<g id="edge2" class="edge">
<title>alpha_q&#45;&gt;alpha_low</title>
<path fill="none" stroke="#617c98" stroke-width="1.8" d="M628.76,-838.04C595.1,-812.96 554.1,-782.41 520.55,-757.41"/>
<polygon fill="#617c98" stroke="#617c98" stroke-width="1.8" points="522.69,-754.64 512.58,-751.47 518.5,-760.25 522.69,-754.64"/>
<text xml:space="preserve" text-anchor="middle" x="580.71" y="-781.45" font-family="Arial" font-size="11.00">chưa ổn</text>
</g>
<!-- alpha_ok -->
<g id="node4" class="node">
<title>alpha_ok</title>
<path fill="#eef8f1" stroke="#b8d7bc" d="M1140.16,-749.4C1140.16,-749.4 724.88,-749.4 724.88,-749.4 718.88,-749.4 712.88,-743.4 712.88,-737.4 712.88,-737.4 712.88,-680 712.88,-680 712.88,-674 718.88,-668 724.88,-668 724.88,-668 1140.16,-668 1140.16,-668 1146.16,-668 1152.16,-674 1152.16,-680 1152.16,-680 1152.16,-737.4 1152.16,-737.4 1152.16,-743.4 1146.16,-749.4 1140.16,-749.4"/>
<text xml:space="preserve" text-anchor="start" x="890.14" y="-724.85" font-family="Arial" font-weight="bold" font-size="13.00">Alpha khá ổn</text>
<text xml:space="preserve" text-anchor="start" x="889.77" y="-699.2" font-family="Arial" font-size="13.00">alpha &gt;= 0.70.</text>
<text xml:space="preserve" text-anchor="start" x="730.39" y="-684.2" font-family="Arial" font-size="13.00">Có thể dùng tiếp, nhưng nếu muốn chắc hơn thì xem tiếp từng item.</text>
</g>
<!-- alpha_q&#45;&gt;alpha_ok -->
<g id="edge3" class="edge">
<title>alpha_q&#45;&gt;alpha_ok</title>
<path fill="none" stroke="#617c98" stroke-width="1.8" d="M758.83,-838.04C792.92,-812.85 834.47,-782.15 868.39,-757.09"/>
<polygon fill="#617c98" stroke="#617c98" stroke-width="1.8" points="870.04,-760.22 876,-751.46 865.88,-754.59 870.04,-760.22"/>
<text xml:space="preserve" text-anchor="middle" x="850.55" y="-781.45" font-family="Arial" font-size="11.00">khá ổn</text>
</g>
<!-- review -->
<g id="node5" class="node">
<title>review</title>
<path fill="#ffffff" stroke="#c8d8e7" d="M844.54,-609C844.54,-609 542.5,-609 542.5,-609 536.5,-609 530.5,-603 530.5,-597 530.5,-597 530.5,-554.6 530.5,-554.6 530.5,-548.6 536.5,-542.6 542.5,-542.6 542.5,-542.6 844.54,-542.6 844.54,-542.6 850.54,-542.6 856.54,-548.6 856.54,-554.6 856.54,-554.6 856.54,-597 856.54,-597 856.54,-603 850.54,-609 844.54,-609"/>
<text xml:space="preserve" text-anchor="start" x="638.77" y="-584.45" font-family="Arial" font-weight="bold" font-size="13.00">Đọc lại từng item</text>
<text xml:space="preserve" text-anchor="start" x="548.02" y="-558.8" font-family="Arial" font-size="13.00">Xem câu hỏi có thật sự đi cùng một ý hay không.</text>
</g>
<!-- alpha_low&#45;&gt;review -->
<g id="edge4" class="edge">
<title>alpha_low&#45;&gt;review</title>
<path fill="none" stroke="#617c98" stroke-width="1.8" d="M529.24,-667.54C559.16,-651.01 593.69,-631.94 623.34,-615.56"/>
<polygon fill="#617c98" stroke="#617c98" stroke-width="1.8" points="625,-618.64 632.06,-610.75 621.61,-612.52 625,-618.64"/>
</g>
<!-- alpha_ok&#45;&gt;review -->
<g id="edge5" class="edge">
<title>alpha_ok&#45;&gt;review</title>
<path fill="none" stroke="#617c98" stroke-width="1.8" d="M859.19,-667.54C828.88,-650.94 793.89,-631.77 763.9,-615.35"/>
<polygon fill="#617c98" stroke="#617c98" stroke-width="1.8" points="765.93,-612.47 755.48,-610.74 762.57,-618.61 765.93,-612.47"/>
</g>
<!-- item_q -->
<g id="node6" class="node">
<title>item_q</title>
<polygon fill="#fff4d8" stroke="#e7c76a" points="693.52,-483.6 330.73,-402.2 693.52,-320.8 1056.31,-402.2 693.52,-483.6"/>
<text xml:space="preserve" text-anchor="start" x="663.14" y="-418.35" font-family="Arial" font-weight="bold" font-size="13.00">Câu hỏi 2</text>
<text xml:space="preserve" text-anchor="start" x="613.64" y="-392.7" font-family="Arial" font-size="13.00">Có item nào lệch ý, mơ hồ,</text>
<text xml:space="preserve" text-anchor="start" x="529.64" y="-377.7" font-family="Arial" font-size="13.00">đảo chiều chưa xử lý hoặc quá giống câu khác không?</text>
</g>
<!-- review&#45;&gt;item_q -->
<g id="edge6" class="edge">
<title>review&#45;&gt;item_q</title>
<path fill="none" stroke="#617c98" stroke-width="1.8" d="M693.52,-542.12C693.52,-528.87 693.52,-512.83 693.52,-496.43"/>
<polygon fill="#617c98" stroke="#617c98" stroke-width="1.8" points="697.02,-496.58 693.52,-486.58 690.02,-496.58 697.02,-496.58"/>
</g>
<!-- content_issue -->
<g id="node7" class="node">
<title>content_issue</title>
<path fill="#fff1ee" stroke="#deb0a8" d="M686.04,-249.3C686.04,-249.3 309,-249.3 309,-249.3 303,-249.3 297,-243.3 297,-237.3 297,-237.3 297,-179.9 297,-179.9 297,-173.9 303,-167.9 309,-167.9 309,-167.9 686.04,-167.9 686.04,-167.9 692.04,-167.9 698.04,-173.9 698.04,-179.9 698.04,-179.9 698.04,-237.3 698.04,-237.3 698.04,-243.3 692.04,-249.3 686.04,-249.3"/>
<text xml:space="preserve" text-anchor="start" x="415.02" y="-224.75" font-family="Arial" font-weight="bold" font-size="13.00">Nếu có vấn đề ở nội dung</text>
<text xml:space="preserve" text-anchor="start" x="387.64" y="-199.1" font-family="Arial" font-size="13.00">Xem lại mã hóa hoặc item đảo chiều.</text>
<text xml:space="preserve" text-anchor="start" x="314.52" y="-184.1" font-family="Arial" font-size="13.00">Nếu vẫn bất ổn thì ghi nhận hạn chế hoặc cân nhắc loại item.</text>
</g>
<!-- item_q&#45;&gt;content_issue -->
<g id="edge7" class="edge">
<title>item_q&#45;&gt;content_issue</title>
<path fill="none" stroke="#617c98" stroke-width="1.8" d="M626.34,-335.53C600.5,-310.27 571.47,-281.89 547.52,-258.48"/>
<polygon fill="#617c98" stroke="#617c98" stroke-width="1.8" points="550.16,-256.16 540.56,-251.67 545.26,-261.17 550.16,-256.16"/>
<text xml:space="preserve" text-anchor="middle" x="583.59" y="-281.35" font-family="Arial" font-size="11.00">có</text>
</g>
<!-- item_stats -->
<g id="node8" class="node">
<title>item_stats</title>
<path fill="#eef2ff" stroke="#b7c8e6" d="M1033.04,-249.3C1033.04,-249.3 746,-249.3 746,-249.3 740,-249.3 734,-243.3 734,-237.3 734,-237.3 734,-179.9 734,-179.9 734,-173.9 740,-167.9 746,-167.9 746,-167.9 1033.04,-167.9 1033.04,-167.9 1039.04,-167.9 1045.04,-173.9 1045.04,-179.9 1045.04,-179.9 1045.04,-237.3 1045.04,-237.3 1045.04,-243.3 1039.04,-249.3 1033.04,-249.3"/>
<text xml:space="preserve" text-anchor="start" x="810.77" y="-224.75" font-family="Arial" font-weight="bold" font-size="13.00">Nếu chưa thấy vấn đề rõ</text>
<text xml:space="preserve" text-anchor="start" x="838.52" y="-199.1" font-family="Arial" font-size="13.00">Xem CITC trước,</text>
<text xml:space="preserve" text-anchor="start" x="751.52" y="-184.1" font-family="Arial" font-size="13.00">rồi đọc thêm Cronbach&#39;s Alpha if Item Deleted.</text>
</g>
<!-- item_q&#45;&gt;item_stats -->
<g id="edge8" class="edge">
<title>item_q&#45;&gt;item_stats</title>
<path fill="none" stroke="#617c98" stroke-width="1.8" d="M760.7,-335.53C786.54,-310.27 815.57,-281.89 839.52,-258.48"/>
<polygon fill="#617c98" stroke="#617c98" stroke-width="1.8" points="841.78,-261.17 846.48,-251.67 836.88,-256.16 841.78,-261.17"/>
<text xml:space="preserve" text-anchor="middle" x="862.09" y="-281.35" font-family="Arial" font-size="11.00">không rõ / không có</text>
</g>
<!-- drop_scale -->
<g id="node11" class="node">
<title>drop_scale</title>
<path fill="#fdeded" stroke="#dba7a7" d="M670.54,-96.4C670.54,-96.4 446.5,-96.4 446.5,-96.4 440.5,-96.4 434.5,-90.4 434.5,-84.4 434.5,-84.4 434.5,-12 434.5,-12 434.5,-6 440.5,0 446.5,0 446.5,0 670.54,0 670.54,0 676.54,0 682.54,-6 682.54,-12 682.54,-12 682.54,-84.4 682.54,-84.4 682.54,-90.4 676.54,-96.4 670.54,-96.4"/>
<text xml:space="preserve" text-anchor="start" x="474.89" y="-71.85" font-family="Arial" font-weight="bold" font-size="13.00">Cân nhắc loại cả thang đo</text>
<text xml:space="preserve" text-anchor="start" x="452.39" y="-46.2" font-family="Arial" font-size="13.00">Nếu đã kiểm tra mà alpha vẫn thấp,</text>
<text xml:space="preserve" text-anchor="start" x="456.14" y="-31.2" font-family="Arial" font-size="13.00">hoặc có quá nhiều item có vấn đề,</text>
<text xml:space="preserve" text-anchor="start" x="452.02" y="-16.2" font-family="Arial" font-size="13.00">có thể không dùng cả thang đo này.</text>
</g>
<!-- content_issue&#45;&gt;drop_scale -->
<g id="edge11" class="edge">
<title>content_issue&#45;&gt;drop_scale</title>
<path fill="none" stroke="#617c98" stroke-width="1.8" d="M512.91,-167.63C519.81,-149.71 528.1,-128.2 535.7,-108.47"/>
<polygon fill="#617c98" stroke="#617c98" stroke-width="1.8" points="538.89,-109.9 539.22,-99.31 532.36,-107.39 538.89,-109.9"/>
<text xml:space="preserve" text-anchor="middle" x="546.77" y="-128.45" font-family="Arial" font-size="11.00">vẫn yếu</text>
</g>
<!-- suspicious -->
<g id="node9" class="node">
<title>suspicious</title>
<path fill="#fff9ec" stroke="#e7c76a" d="M287.04,-88.9C287.04,-88.9 12,-88.9 12,-88.9 6,-88.9 0,-82.9 0,-76.9 0,-76.9 0,-19.5 0,-19.5 0,-13.5 6,-7.5 12,-7.5 12,-7.5 287.04,-7.5 287.04,-7.5 293.04,-7.5 299.04,-13.5 299.04,-19.5 299.04,-19.5 299.04,-76.9 299.04,-76.9 299.04,-82.9 293.04,-88.9 287.04,-88.9"/>
<text xml:space="preserve" text-anchor="start" x="101.89" y="-64.35" font-family="Arial" font-weight="bold" font-size="13.00">Item đáng nghi</text>
<text xml:space="preserve" text-anchor="start" x="17.52" y="-38.7" font-family="Arial" font-size="13.00">CITC &lt; 0.30 hoặc bỏ item làm alpha tăng rõ:</text>
<text xml:space="preserve" text-anchor="start" x="87.64" y="-23.7" font-family="Arial" font-size="13.00">có thể cân nhắc loại.</text>
</g>
<!-- item_stats&#45;&gt;suspicious -->
<g id="edge9" class="edge">
<title>item_stats&#45;&gt;suspicious</title>
<path fill="none" stroke="#617c98" stroke-width="1.8" d="M735.71,-167.46C655.75,-146.6 574.52,-125.4 574.52,-125.4 574.52,-125.4 431.7,-99.79 311.64,-78.27"/>
<polygon fill="#617c98" stroke="#617c98" stroke-width="1.8" points="312.5,-74.87 302.04,-76.55 311.27,-81.76 312.5,-74.87"/>
</g>
<!-- keep -->
<g id="node10" class="node">
<title>keep</title>
<path fill="#f4f7fb" stroke="#c8d8e7" d="M1028.54,-81.4C1028.54,-81.4 750.5,-81.4 750.5,-81.4 744.5,-81.4 738.5,-75.4 738.5,-69.4 738.5,-69.4 738.5,-27 738.5,-27 738.5,-21 744.5,-15 750.5,-15 750.5,-15 1028.54,-15 1028.54,-15 1034.54,-15 1040.54,-21 1040.54,-27 1040.54,-27 1040.54,-69.4 1040.54,-69.4 1040.54,-75.4 1034.54,-81.4 1028.54,-81.4"/>
<text xml:space="preserve" text-anchor="start" x="829.14" y="-56.85" font-family="Arial" font-weight="bold" font-size="13.00">Thường có thể giữ</text>
<text xml:space="preserve" text-anchor="start" x="756.02" y="-31.2" font-family="Arial" font-size="13.00">CITC ổn và bỏ item không làm alpha tăng rõ.</text>
</g>
<!-- item_stats&#45;&gt;keep -->
<g id="edge10" class="edge">
<title>item_stats&#45;&gt;keep</title>
<path fill="none" stroke="#617c98" stroke-width="1.8" d="M889.52,-167.63C889.52,-145.31 889.52,-117.42 889.52,-94.32"/>
<polygon fill="#617c98" stroke="#617c98" stroke-width="1.8" points="893.02,-94.42 889.52,-84.42 886.02,-94.42 893.02,-94.42"/>
</g>
<!-- suspicious&#45;&gt;drop_scale -->
<g id="edge12" class="edge">
<title>suspicious&#45;&gt;drop_scale</title>
<path fill="none" stroke="#617c98" stroke-width="1.8" d="M299.49,-48.2C339.4,-48.2 382.3,-48.2 421.48,-48.2"/>
<polygon fill="#617c98" stroke="#617c98" stroke-width="1.8" points="421.34,-51.7 431.34,-48.2 421.34,-44.7 421.34,-51.7"/>
<text xml:space="preserve" text-anchor="middle" x="366.77" y="-54.25" font-family="Arial" font-size="11.00">nhiều item đáng nghi</text>
</g>
</g>
</svg>
