<?xml version="1.0" encoding="UTF-8" standalone="no"?>
<!DOCTYPE svg PUBLIC "-//W3C//DTD SVG 1.1//EN"
 "http://www.w3.org/Graphics/SVG/1.1/DTD/svg11.dtd">
<!-- Generated by graphviz version 14.1.5 (20260411.2331)
 -->
<!-- Title: cronbach_alpha_flow_final Pages: 1 -->
<svg width="1511pt" height="2466pt"
 viewBox="0.00 0.00 1511.00 2466.00" xmlns="http://www.w3.org/2000/svg" xmlns:xlink="http://www.w3.org/1999/xlink">
<g id="graph0" class="graph" transform="scale(1 1) rotate(0) translate(28.8 2436.7)">
<title>cronbach_alpha_flow_final</title>
<polygon fill="#f6f8fb" stroke="none" points="-28.8,28.8 -28.8,-2436.7 1482.46,-2436.7 1482.46,28.8 -28.8,28.8"/>
<text xml:space="preserve" text-anchor="start" x="415.96" y="-2378.3" font-family="Arial" font-weight="bold" font-size="28.00">Flow Đọc Cronbach&#39;s Alpha (Digital Marketing)</text>
<text xml:space="preserve" text-anchor="start" x="575.71" y="-2361.7" font-family="Arial" font-size="16.00">Kết hợp logic thống kê + lập luận lý thuyết</text>
<!-- start -->
<g id="node1" class="node">
<title>start</title>
<path fill="#ffffff" stroke="#c8d8e7" d="M1060.66,-2355.9C1060.66,-2355.9 790.88,-2355.9 790.88,-2355.9 784.88,-2355.9 778.88,-2349.9 778.88,-2343.9 778.88,-2343.9 778.88,-2301.5 778.88,-2301.5 778.88,-2295.5 784.88,-2289.5 790.88,-2289.5 790.88,-2289.5 1060.66,-2289.5 1060.66,-2289.5 1066.66,-2289.5 1072.66,-2295.5 1072.66,-2301.5 1072.66,-2301.5 1072.66,-2343.9 1072.66,-2343.9 1072.66,-2349.9 1066.66,-2355.9 1060.66,-2355.9"/>
<text xml:space="preserve" text-anchor="start" x="901.02" y="-2331.35" font-family="Arial" font-weight="bold" font-size="13.00">Bắt đầu</text>
<text xml:space="preserve" text-anchor="start" x="796.39" y="-2305.7" font-family="Arial" font-size="13.00">Đánh giá độ nhất quán nội bộ của thang đo</text>
</g>
<!-- reverse_q -->
<g id="node2" class="node">
<title>reverse_q</title>
<polygon fill="#fff4d8" stroke="#e7c76a" points="925.77,-2230.5 584.73,-2164.1 925.77,-2097.7 1266.81,-2164.1 925.77,-2230.5"/>
<text xml:space="preserve" text-anchor="start" x="895.39" y="-2172.75" font-family="Arial" font-weight="bold" font-size="13.00">Câu hỏi 0</text>
<text xml:space="preserve" text-anchor="start" x="772.77" y="-2147.1" font-family="Arial" font-size="13.00">Có item đảo chiều không và đã recode đúng chưa?</text>
</g>
<!-- start&#45;&gt;reverse_q -->
<g id="edge1" class="edge">
<title>start&#45;&gt;reverse_q</title>
<path fill="none" stroke="#617c98" stroke-width="1.8" d="M925.77,-2289.25C925.77,-2275.76 925.77,-2259.46 925.77,-2243.18"/>
<polygon fill="#617c98" stroke="#617c98" stroke-width="1.8" points="929.27,-2243.5 925.77,-2233.5 922.27,-2243.5 929.27,-2243.5"/>
</g>
<!-- recode -->
<g id="node3" class="node">
<title>recode</title>
<path fill="#fff1ee" stroke="#deb0a8" d="M954.16,-2026.2C954.16,-2026.2 675.38,-2026.2 675.38,-2026.2 669.38,-2026.2 663.38,-2020.2 663.38,-2014.2 663.38,-2014.2 663.38,-1971.8 663.38,-1971.8 663.38,-1965.8 669.38,-1959.8 675.38,-1959.8 675.38,-1959.8 954.16,-1959.8 954.16,-1959.8 960.16,-1959.8 966.16,-1965.8 966.16,-1971.8 966.16,-1971.8 966.16,-2014.2 966.16,-2014.2 966.16,-2020.2 960.16,-2026.2 954.16,-2026.2"/>
<text xml:space="preserve" text-anchor="start" x="770.52" y="-2001.65" font-family="Arial" font-weight="bold" font-size="13.00">Recode trước</text>
<text xml:space="preserve" text-anchor="start" x="680.89" y="-1976" font-family="Arial" font-size="13.00">Cần xử lý item đảo chiều trước khi đọc alpha</text>
</g>
<!-- reverse_q&#45;&gt;recode -->
<g id="edge2" class="edge">
<title>reverse_q&#45;&gt;recode</title>
<path fill="none" stroke="#617c98" stroke-width="1.8" d="M887.57,-2104.91C873,-2082.72 856.67,-2057.84 843.18,-2037.27"/>
<polygon fill="#617c98" stroke="#617c98" stroke-width="1.8" points="846.11,-2035.36 837.69,-2028.92 840.26,-2039.2 846.11,-2035.36"/>
<text xml:space="preserve" text-anchor="middle" x="876" y="-2058.25" font-family="Arial" font-size="11.00">chưa</text>
</g>
<!-- alpha_q -->
<g id="node4" class="node">
<title>alpha_q</title>
<polygon fill="#fff4d8" stroke="#e7c76a" points="925.77,-1900.8 667.23,-1834.4 925.77,-1768 1184.31,-1834.4 925.77,-1900.8"/>
<text xml:space="preserve" text-anchor="start" x="895.39" y="-1843.05" font-family="Arial" font-weight="bold" font-size="13.00">Câu hỏi 1</text>
<text xml:space="preserve" text-anchor="start" x="814.02" y="-1817.4" font-family="Arial" font-size="13.00">Cronbach&#39;s Alpha đang gợi ý điều gì?</text>
</g>
<!-- reverse_q&#45;&gt;alpha_q -->
<g id="edge3" class="edge">
<title>reverse_q&#45;&gt;alpha_q</title>
<path fill="none" stroke="#617c98" stroke-width="1.8" d="M951.55,-2102.26C967.04,-2065.69 983.77,-2026.2 983.77,-2026.2 983.77,-2026.2 983.77,-1959.8 983.77,-1959.8 983.77,-1959.8 971.57,-1933.63 958.36,-1905.3"/>
<polygon fill="#617c98" stroke="#617c98" stroke-width="1.8" points="961.62,-1904.01 954.22,-1896.43 955.28,-1906.97 961.62,-1904.01"/>
<text xml:space="preserve" text-anchor="middle" x="1002.89" y="-1989.3" font-family="Arial" font-size="11.00">đã xử lý</text>
</g>
<!-- recode&#45;&gt;alpha_q -->
<g id="edge4" class="edge">
<title>recode&#45;&gt;alpha_q</title>
<path fill="none" stroke="#617c98" stroke-width="1.8" d="M837.77,-1959.55C849.77,-1942.61 864.91,-1921.26 879.23,-1901.05"/>
<polygon fill="#617c98" stroke="#617c98" stroke-width="1.8" points="881.9,-1903.35 884.83,-1893.16 876.19,-1899.3 881.9,-1903.35"/>
</g>
<!-- alpha_low -->
<g id="node5" class="node">
<title>alpha_low</title>
<path fill="#fdeded" stroke="#dba7a7" d="M1033.29,-1696.5C1033.29,-1696.5 818.25,-1696.5 818.25,-1696.5 812.25,-1696.5 806.25,-1690.5 806.25,-1684.5 806.25,-1684.5 806.25,-1642.1 806.25,-1642.1 806.25,-1636.1 812.25,-1630.1 818.25,-1630.1 818.25,-1630.1 1033.29,-1630.1 1033.29,-1630.1 1039.29,-1630.1 1045.29,-1636.1 1045.29,-1642.1 1045.29,-1642.1 1045.29,-1684.5 1045.29,-1684.5 1045.29,-1690.5 1039.29,-1696.5 1033.29,-1696.5"/>
<text xml:space="preserve" text-anchor="start" x="890.89" y="-1671.95" font-family="Arial" font-weight="bold" font-size="13.00">Alpha thấp</text>
<text xml:space="preserve" text-anchor="start" x="823.77" y="-1646.3" font-family="Arial" font-size="13.00">alpha &lt; 0.60 thường bị xem là yếu</text>
</g>
<!-- alpha_q&#45;&gt;alpha_low -->
<g id="edge5" class="edge">
<title>alpha_q&#45;&gt;alpha_low</title>
<path fill="none" stroke="#617c98" stroke-width="1.8" d="M925.77,-1767.54C925.77,-1748.08 925.77,-1727.23 925.77,-1709.41"/>
<polygon fill="#617c98" stroke="#617c98" stroke-width="1.8" points="929.27,-1709.45 925.77,-1699.45 922.27,-1709.45 929.27,-1709.45"/>
<text xml:space="preserve" text-anchor="middle" x="939.64" y="-1728.55" font-family="Arial" font-size="11.00">&lt;0.60</text>
</g>
<!-- alpha_mid -->
<g id="node6" class="node">
<title>alpha_mid</title>
<path fill="#fff9ec" stroke="#e7c76a" d="M757.91,-1696.5C757.91,-1696.5 411.62,-1696.5 411.62,-1696.5 405.62,-1696.5 399.62,-1690.5 399.62,-1684.5 399.62,-1684.5 399.62,-1642.1 399.62,-1642.1 399.62,-1636.1 405.62,-1630.1 411.62,-1630.1 411.62,-1630.1 757.91,-1630.1 757.91,-1630.1 763.91,-1630.1 769.91,-1636.1 769.91,-1642.1 769.91,-1642.1 769.91,-1684.5 769.91,-1684.5 769.91,-1690.5 763.91,-1696.5 757.91,-1696.5"/>
<text xml:space="preserve" text-anchor="start" x="518.77" y="-1671.95" font-family="Arial" font-weight="bold" font-size="13.00">Alpha mức cân nhắc</text>
<text xml:space="preserve" text-anchor="start" x="417.14" y="-1646.3" font-family="Arial" font-size="13.00">0.60–0.70 có thể chấp nhận trong nghiên cứu khám phá</text>
</g>
<!-- alpha_q&#45;&gt;alpha_mid -->
<g id="edge6" class="edge">
<title>alpha_q&#45;&gt;alpha_mid</title>
<path fill="none" stroke="#617c98" stroke-width="1.8" d="M838.4,-1790.07C783.89,-1763.04 714.37,-1728.57 661.91,-1702.55"/>
<polygon fill="#617c98" stroke="#617c98" stroke-width="1.8" points="663.6,-1699.48 653.09,-1698.18 660.49,-1705.76 663.6,-1699.48"/>
<text xml:space="preserve" text-anchor="middle" x="758.85" y="-1728.55" font-family="Arial" font-size="11.00">0.60–0.70</text>
</g>
<!-- alpha_good -->
<g id="node7" class="node">
<title>alpha_good</title>
<path fill="#eef8f1" stroke="#b8d7bc" d="M351.54,-1696.5C351.54,-1696.5 12,-1696.5 12,-1696.5 6,-1696.5 0,-1690.5 0,-1684.5 0,-1684.5 0,-1642.1 0,-1642.1 0,-1636.1 6,-1630.1 12,-1630.1 12,-1630.1 351.54,-1630.1 351.54,-1630.1 357.54,-1630.1 363.54,-1636.1 363.54,-1642.1 363.54,-1642.1 363.54,-1684.5 363.54,-1684.5 363.54,-1690.5 357.54,-1696.5 351.54,-1696.5"/>
<text xml:space="preserve" text-anchor="start" x="108.27" y="-1671.95" font-family="Arial" font-weight="bold" font-size="13.00">Alpha chấp nhận được</text>
<text xml:space="preserve" text-anchor="start" x="17.52" y="-1646.3" font-family="Arial" font-size="13.00">≥ 0.70 thường được xem là acceptable trong marketing</text>
</g>
<!-- alpha_q&#45;&gt;alpha_good -->
<g id="edge7" class="edge">
<title>alpha_q&#45;&gt;alpha_good</title>
<path fill="none" stroke="#617c98" stroke-width="1.8" d="M789.74,-1802.48C662.16,-1773.49 471.52,-1730.16 337.82,-1699.77"/>
<polygon fill="#617c98" stroke="#617c98" stroke-width="1.8" points="338.65,-1696.37 328.12,-1697.56 337.1,-1703.19 338.65,-1696.37"/>
<text xml:space="preserve" text-anchor="middle" x="522.73" y="-1728.55" font-family="Arial" font-size="11.00">≥0.70</text>
</g>
<!-- alpha_high -->
<g id="node8" class="node">
<title>alpha_high</title>
<path fill="#eef2ff" stroke="#b7c8e6" d="M1300.16,-1696.5C1300.16,-1696.5 1093.38,-1696.5 1093.38,-1696.5 1087.38,-1696.5 1081.38,-1690.5 1081.38,-1684.5 1081.38,-1684.5 1081.38,-1642.1 1081.38,-1642.1 1081.38,-1636.1 1087.38,-1630.1 1093.38,-1630.1 1093.38,-1630.1 1300.16,-1630.1 1300.16,-1630.1 1306.16,-1630.1 1312.16,-1636.1 1312.16,-1642.1 1312.16,-1642.1 1312.16,-1684.5 1312.16,-1684.5 1312.16,-1690.5 1306.16,-1696.5 1300.16,-1696.5"/>
<text xml:space="preserve" text-anchor="start" x="1154.02" y="-1671.95" font-family="Arial" font-weight="bold" font-size="13.00">Alpha rất cao</text>
<text xml:space="preserve" text-anchor="start" x="1098.89" y="-1646.3" font-family="Arial" font-size="13.00">&gt; 0.95 có thể gợi ý item trùng lặp</text>
</g>
<!-- alpha_q&#45;&gt;alpha_high -->
<g id="edge8" class="edge">
<title>alpha_q&#45;&gt;alpha_high</title>
<path fill="none" stroke="#617c98" stroke-width="1.8" d="M1000.54,-1786.75C1042.44,-1760.6 1094.12,-1728.35 1133.92,-1703.52"/>
<polygon fill="#617c98" stroke="#617c98" stroke-width="1.8" points="1135.61,-1706.59 1142.24,-1698.32 1131.91,-1700.65 1135.61,-1706.59"/>
<text xml:space="preserve" text-anchor="middle" x="1107.39" y="-1728.55" font-family="Arial" font-size="11.00">&gt;0.95</text>
</g>
<!-- review -->
<g id="node9" class="node">
<title>review</title>
<path fill="#ffffff" stroke="#c8d8e7" d="M1016.41,-1563.6C1016.41,-1563.6 727.12,-1563.6 727.12,-1563.6 721.12,-1563.6 715.12,-1557.6 715.12,-1551.6 715.12,-1551.6 715.12,-1509.2 715.12,-1509.2 715.12,-1503.2 721.12,-1497.2 727.12,-1497.2 727.12,-1497.2 1016.41,-1497.2 1016.41,-1497.2 1022.41,-1497.2 1028.41,-1503.2 1028.41,-1509.2 1028.41,-1509.2 1028.41,-1551.6 1028.41,-1551.6 1028.41,-1557.6 1022.41,-1563.6 1016.41,-1563.6"/>
<text xml:space="preserve" text-anchor="start" x="813.27" y="-1539.05" font-family="Arial" font-weight="bold" font-size="13.00">Đọc nội dung item</text>
<text xml:space="preserve" text-anchor="start" x="732.64" y="-1513.4" font-family="Arial" font-size="13.00">Kiểm tra ý nghĩa, wording, trùng lặp, đảo chiều</text>
</g>
<!-- alpha_low&#45;&gt;review -->
<g id="edge9" class="edge">
<title>alpha_low&#45;&gt;review</title>
<path fill="none" stroke="#617c98" stroke-width="1.8" d="M912.28,-1629.61C905.5,-1613.16 897.18,-1593 889.85,-1575.23"/>
<polygon fill="#617c98" stroke="#617c98" stroke-width="1.8" points="893.17,-1574.11 886.12,-1566.2 886.7,-1576.77 893.17,-1574.11"/>
</g>
<!-- alpha_mid&#45;&gt;review -->
<g id="edge10" class="edge">
<title>alpha_mid&#45;&gt;review</title>
<path fill="none" stroke="#617c98" stroke-width="1.8" d="M656.45,-1629.61C696.75,-1611.22 747.24,-1588.2 789.19,-1569.06"/>
<polygon fill="#617c98" stroke="#617c98" stroke-width="1.8" points="790.38,-1572.37 798.03,-1565.03 787.48,-1566 790.38,-1572.37"/>
</g>
<!-- alpha_good&#45;&gt;review -->
<g id="edge11" class="edge">
<title>alpha_good&#45;&gt;review</title>
<path fill="none" stroke="#617c98" stroke-width="1.8" d="M354.11,-1629.61C460.56,-1609.41 596.57,-1583.61 702.45,-1563.52"/>
<polygon fill="#617c98" stroke="#617c98" stroke-width="1.8" points="703.04,-1566.97 712.21,-1561.67 701.73,-1560.1 703.04,-1566.97"/>
</g>
<!-- marketing_note -->
<g id="node22" class="node">
<title>marketing_note</title>
<polygon fill="#fffdf5" stroke="#e7d9a8" points="350.04,-1571.1 7.5,-1571.1 7.5,-1489.7 356.04,-1489.7 356.04,-1565.1 350.04,-1571.1"/>
<polyline fill="none" stroke="#e7d9a8" points="350.04,-1571.1 350.04,-1565.1"/>
<polyline fill="none" stroke="#e7d9a8" points="356.04,-1565.1 350.04,-1565.1"/>
<text xml:space="preserve" text-anchor="start" x="123.27" y="-1546.55" font-family="Arial" font-weight="bold" font-size="13.00">Context Marketing</text>
<text xml:space="preserve" text-anchor="start" x="25.02" y="-1520.9" font-family="Arial" font-size="13.00">Nghiên cứu hành vi tiêu dùng: 0.70–0.90 thường đủ;</text>
<text xml:space="preserve" text-anchor="start" x="83.89" y="-1505.9" font-family="Arial" font-size="13.00">&gt; 0.95 có thể gợi ý item trùng lặp</text>
</g>
<!-- alpha_good&#45;&gt;marketing_note -->
<g id="edge13" class="edge">
<title>alpha_good&#45;&gt;marketing_note</title>
<path fill="none" stroke="#617c98" stroke-width="1.8" stroke-dasharray="5,2" d="M181.77,-1629.61C181.77,-1615.76 181.77,-1599.28 181.77,-1583.82"/>
<polygon fill="#617c98" stroke="#617c98" stroke-width="1.8" points="185.27,-1583.87 181.77,-1573.87 178.27,-1583.87 185.27,-1583.87"/>
</g>
<!-- alpha_high&#45;&gt;review -->
<g id="edge12" class="edge">
<title>alpha_high&#45;&gt;review</title>
<path fill="none" stroke="#617c98" stroke-width="1.8" d="M1115.6,-1629.61C1069.66,-1611.1 1012.03,-1587.89 964.34,-1568.68"/>
<polygon fill="#617c98" stroke="#617c98" stroke-width="1.8" points="965.86,-1565.52 955.28,-1565.04 963.25,-1572.02 965.86,-1565.52"/>
</g>
<!-- content_q -->
<g id="node10" class="node">
<title>content_q</title>
<polygon fill="#fff4d8" stroke="#e7c76a" points="871.77,-1430.7 637.98,-1364.3 871.77,-1297.9 1105.56,-1364.3 871.77,-1430.7"/>
<text xml:space="preserve" text-anchor="start" x="841.39" y="-1372.95" font-family="Arial" font-weight="bold" font-size="13.00">Câu hỏi 2</text>
<text xml:space="preserve" text-anchor="start" x="772.39" y="-1347.3" font-family="Arial" font-size="13.00">Có vấn đề rõ về nội dung không?</text>
</g>
<!-- review&#45;&gt;content_q -->
<g id="edge14" class="edge">
<title>review&#45;&gt;content_q</title>
<path fill="none" stroke="#617c98" stroke-width="1.8" d="M871.77,-1496.98C871.77,-1481.58 871.77,-1462.43 871.77,-1443.56"/>
<polygon fill="#617c98" stroke="#617c98" stroke-width="1.8" points="875.27,-1443.64 871.77,-1433.64 868.27,-1443.64 875.27,-1443.64"/>
</g>
<!-- content_issue -->
<g id="node11" class="node">
<title>content_issue</title>
<path fill="#fff1ee" stroke="#deb0a8" d="M890.79,-1226.4C890.79,-1226.4 684.75,-1226.4 684.75,-1226.4 678.75,-1226.4 672.75,-1220.4 672.75,-1214.4 672.75,-1214.4 672.75,-1172 672.75,-1172 672.75,-1166 678.75,-1160 684.75,-1160 684.75,-1160 890.79,-1160 890.79,-1160 896.79,-1160 902.79,-1166 902.79,-1172 902.79,-1172 902.79,-1214.4 902.79,-1214.4 902.79,-1220.4 896.79,-1226.4 890.79,-1226.4"/>
<text xml:space="preserve" text-anchor="start" x="735.27" y="-1201.85" font-family="Arial" font-weight="bold" font-size="13.00">Vấn đề nội dung</text>
<text xml:space="preserve" text-anchor="start" x="690.27" y="-1176.2" font-family="Arial" font-size="13.00">Item lệch ý, mơ hồ hoặc sai logic</text>
</g>
<!-- content_q&#45;&gt;content_issue -->
<g id="edge15" class="edge">
<title>content_q&#45;&gt;content_issue</title>
<path fill="none" stroke="#617c98" stroke-width="1.8" d="M843.1,-1305.58C832.08,-1283.4 819.7,-1258.48 809.45,-1237.84"/>
<polygon fill="#617c98" stroke="#617c98" stroke-width="1.8" points="812.63,-1236.38 805.05,-1228.98 806.36,-1239.5 812.63,-1236.38"/>
<text xml:space="preserve" text-anchor="middle" x="830.37" y="-1258.45" font-family="Arial" font-size="11.00">có</text>
</g>
<!-- stats -->
<g id="node12" class="node">
<title>stats</title>
<path fill="#eef2ff" stroke="#b7c8e6" d="M1081.91,-1101C1081.91,-1101 831.62,-1101 831.62,-1101 825.62,-1101 819.62,-1095 819.62,-1089 819.62,-1089 819.62,-1046.6 819.62,-1046.6 819.62,-1040.6 825.62,-1034.6 831.62,-1034.6 831.62,-1034.6 1081.91,-1034.6 1081.91,-1034.6 1087.91,-1034.6 1093.91,-1040.6 1093.91,-1046.6 1093.91,-1046.6 1093.91,-1089 1093.91,-1089 1093.91,-1095 1087.91,-1101 1081.91,-1101"/>
<text xml:space="preserve" text-anchor="start" x="921.52" y="-1076.45" font-family="Arial" font-weight="bold" font-size="13.00">Xem chỉ số</text>
<text xml:space="preserve" text-anchor="start" x="837.14" y="-1050.8" font-family="Arial" font-size="13.00">CITC + Alpha if Item Deleted (chỉ hỗ trợ)</text>
</g>
<!-- content_q&#45;&gt;stats -->
<g id="edge16" class="edge">
<title>content_q&#45;&gt;stats</title>
<path fill="none" stroke="#617c98" stroke-width="1.8" d="M893.12,-1303.65C906.32,-1266.76 920.77,-1226.4 920.77,-1226.4 920.77,-1226.4 935.87,-1160.29 946.51,-1113.71"/>
<polygon fill="#617c98" stroke="#617c98" stroke-width="1.8" points="949.89,-1114.64 948.7,-1104.11 943.06,-1113.08 949.89,-1114.64"/>
<text xml:space="preserve" text-anchor="middle" x="956.78" y="-1189.5" font-family="Arial" font-size="11.00">không rõ</text>
</g>
<!-- content_issue&#45;&gt;stats -->
<g id="edge17" class="edge">
<title>content_issue&#45;&gt;stats</title>
<path fill="none" stroke="#617c98" stroke-width="1.8" d="M832.17,-1159.78C853.54,-1144.17 879.37,-1125.32 901.96,-1108.82"/>
<polygon fill="#617c98" stroke="#617c98" stroke-width="1.8" points="903.86,-1111.76 909.88,-1103.04 899.74,-1106.11 903.86,-1111.76"/>
</g>
<!-- stats_q -->
<g id="node13" class="node">
<title>stats_q</title>
<polygon fill="#fff4d8" stroke="#e7c76a" points="956.77,-975.6 764.98,-909.2 956.77,-842.8 1148.56,-909.2 956.77,-975.6"/>
<text xml:space="preserve" text-anchor="start" x="926.39" y="-917.85" font-family="Arial" font-weight="bold" font-size="13.00">Câu hỏi 3</text>
<text xml:space="preserve" text-anchor="start" x="878.39" y="-892.2" font-family="Arial" font-size="13.00">Có item đáng nghi không?</text>
</g>
<!-- stats&#45;&gt;stats_q -->
<g id="edge18" class="edge">
<title>stats&#45;&gt;stats_q</title>
<path fill="none" stroke="#617c98" stroke-width="1.8" d="M956.77,-1034.35C956.77,-1020.86 956.77,-1004.56 956.77,-988.28"/>
<polygon fill="#617c98" stroke="#617c98" stroke-width="1.8" points="960.27,-988.6 956.77,-978.6 953.27,-988.6 960.27,-988.6"/>
</g>
<!-- one_item -->
<g id="node14" class="node">
<title>one_item</title>
<path fill="#fff9ec" stroke="#e7c76a" d="M1055.29,-771.3C1055.29,-771.3 858.25,-771.3 858.25,-771.3 852.25,-771.3 846.25,-765.3 846.25,-759.3 846.25,-759.3 846.25,-716.9 846.25,-716.9 846.25,-710.9 852.25,-704.9 858.25,-704.9 858.25,-704.9 1055.29,-704.9 1055.29,-704.9 1061.29,-704.9 1067.29,-710.9 1067.29,-716.9 1067.29,-716.9 1067.29,-759.3 1067.29,-759.3 1067.29,-765.3 1061.29,-771.3 1055.29,-771.3"/>
<text xml:space="preserve" text-anchor="start" x="904.64" y="-746.75" font-family="Arial" font-weight="bold" font-size="13.00">1 item có vấn đề</text>
<text xml:space="preserve" text-anchor="start" x="863.77" y="-721.1" font-family="Arial" font-size="13.00">CITC thấp hoặc làm alpha tăng</text>
</g>
<!-- stats_q&#45;&gt;one_item -->
<g id="edge19" class="edge">
<title>stats_q&#45;&gt;one_item</title>
<path fill="none" stroke="#617c98" stroke-width="1.8" d="M956.77,-842.34C956.77,-822.88 956.77,-802.03 956.77,-784.21"/>
<polygon fill="#617c98" stroke="#617c98" stroke-width="1.8" points="960.27,-784.25 956.77,-774.25 953.27,-784.25 960.27,-784.25"/>
<text xml:space="preserve" text-anchor="middle" x="971.39" y="-803.35" font-family="Arial" font-size="11.00">1 item</text>
</g>
<!-- many_item -->
<g id="node15" class="node">
<title>many_item</title>
<path fill="#fdeded" stroke="#dba7a7" d="M1299.91,-771.3C1299.91,-771.3 1115.62,-771.3 1115.62,-771.3 1109.62,-771.3 1103.62,-765.3 1103.62,-759.3 1103.62,-759.3 1103.62,-716.9 1103.62,-716.9 1103.62,-710.9 1109.62,-704.9 1115.62,-704.9 1115.62,-704.9 1299.91,-704.9 1299.91,-704.9 1305.91,-704.9 1311.91,-710.9 1311.91,-716.9 1311.91,-716.9 1311.91,-759.3 1311.91,-759.3 1311.91,-765.3 1305.91,-771.3 1299.91,-771.3"/>
<text xml:space="preserve" text-anchor="start" x="1140.64" y="-746.75" font-family="Arial" font-weight="bold" font-size="13.00">Nhiều item có vấn đề</text>
<text xml:space="preserve" text-anchor="start" x="1121.14" y="-721.1" font-family="Arial" font-size="13.00">Có thể sai ở cấp độ thang đo</text>
</g>
<!-- stats_q&#45;&gt;many_item -->
<g id="edge20" class="edge">
<title>stats_q&#45;&gt;many_item</title>
<path fill="none" stroke="#617c98" stroke-width="1.8" d="M1021.41,-864.65C1060.84,-838.09 1110.85,-804.39 1149.14,-778.6"/>
<polygon fill="#617c98" stroke="#617c98" stroke-width="1.8" points="1151.01,-781.56 1157.34,-773.07 1147.1,-775.76 1151.01,-781.56"/>
<text xml:space="preserve" text-anchor="middle" x="1125.26" y="-803.35" font-family="Arial" font-size="11.00">nhiều</text>
</g>
<!-- keep -->
<g id="node18" class="node">
<title>keep</title>
<path fill="#eef8f1" stroke="#b8d7bc" d="M1121.16,-442.6C1121.16,-442.6 878.38,-442.6 878.38,-442.6 872.38,-442.6 866.38,-436.6 866.38,-430.6 866.38,-430.6 866.38,-388.2 866.38,-388.2 866.38,-382.2 872.38,-376.2 878.38,-376.2 878.38,-376.2 1121.16,-376.2 1121.16,-376.2 1127.16,-376.2 1133.16,-382.2 1133.16,-388.2 1133.16,-388.2 1133.16,-430.6 1133.16,-430.6 1133.16,-436.6 1127.16,-442.6 1121.16,-442.6"/>
<text xml:space="preserve" text-anchor="start" x="957.77" y="-418.05" font-family="Arial" font-weight="bold" font-size="13.00">Giữ thang đo</text>
<text xml:space="preserve" text-anchor="start" x="883.89" y="-392.4" font-family="Arial" font-size="13.00">Chấp nhận được về nội dung và chỉ số</text>
</g>
<!-- stats_q&#45;&gt;keep -->
<g id="edge21" class="edge">
<title>stats_q&#45;&gt;keep</title>
<path fill="none" stroke="#617c98" stroke-width="1.8" d="M910.2,-858.78C873.25,-819.56 827.77,-771.3 827.77,-771.3 827.77,-771.3 826.77,-633.4 826.77,-633.4 826.77,-633.4 826.77,-567 826.77,-567 826.77,-567 903.41,-497.62 954.67,-451.22"/>
<polygon fill="#617c98" stroke="#617c98" stroke-width="1.8" points="956.84,-453.98 961.9,-444.68 952.14,-448.79 956.84,-453.98"/>
<text xml:space="preserve" text-anchor="middle" x="866.82" y="-665.45" font-family="Arial" font-size="11.00">không đáng ngại</text>
</g>
<!-- theory -->
<g id="node16" class="node">
<title>theory</title>
<path fill="#f4f7fb" stroke="#c8d8e7" d="M1142.54,-633.4C1142.54,-633.4 857,-633.4 857,-633.4 851,-633.4 845,-627.4 845,-621.4 845,-621.4 845,-579 845,-579 845,-573 851,-567 857,-567 857,-567 1142.54,-567 1142.54,-567 1148.54,-567 1154.54,-573 1154.54,-579 1154.54,-579 1154.54,-621.4 1154.54,-621.4 1154.54,-627.4 1148.54,-633.4 1142.54,-633.4"/>
<text xml:space="preserve" text-anchor="start" x="949.89" y="-608.85" font-family="Arial" font-weight="bold" font-size="13.00">Check lý thuyết</text>
<text xml:space="preserve" text-anchor="start" x="862.52" y="-583.2" font-family="Arial" font-size="13.00">Không loại item nếu nó quan trọng về concept</text>
</g>
<!-- one_item&#45;&gt;theory -->
<g id="edge22" class="edge">
<title>one_item&#45;&gt;theory</title>
<path fill="none" stroke="#617c98" stroke-width="1.8" d="M967.07,-704.55C972.68,-686.81 979.7,-664.62 985.8,-645.35"/>
<polygon fill="#617c98" stroke="#617c98" stroke-width="1.8" points="989.05,-646.67 988.73,-636.08 982.38,-644.56 989.05,-646.67"/>
</g>
<!-- revise -->
<g id="node19" class="node">
<title>revise</title>
<path fill="#fdeded" stroke="#dba7a7" d="M1304.04,-538C1304.04,-538 1105.5,-538 1105.5,-538 1099.5,-538 1093.5,-532 1093.5,-526 1093.5,-526 1093.5,-483.6 1093.5,-483.6 1093.5,-477.6 1099.5,-471.6 1105.5,-471.6 1105.5,-471.6 1304.04,-471.6 1304.04,-471.6 1310.04,-471.6 1316.04,-477.6 1316.04,-483.6 1316.04,-483.6 1316.04,-526 1316.04,-526 1316.04,-532 1310.04,-538 1304.04,-538"/>
<text xml:space="preserve" text-anchor="start" x="1147.77" y="-513.45" font-family="Arial" font-weight="bold" font-size="13.00">Sửa/loại thang đo</text>
<text xml:space="preserve" text-anchor="start" x="1111.02" y="-487.8" font-family="Arial" font-size="13.00">Nếu nhiều vấn đề nghiêm trọng</text>
</g>
<!-- many_item&#45;&gt;revise -->
<g id="edge26" class="edge">
<title>many_item&#45;&gt;revise</title>
<path fill="none" stroke="#617c98" stroke-width="1.8" d="M1207.35,-704.45C1206.83,-664.33 1205.94,-596.04 1205.36,-550.92"/>
<polygon fill="#617c98" stroke="#617c98" stroke-width="1.8" points="1208.86,-550.96 1205.23,-541.01 1201.86,-551.05 1208.86,-550.96"/>
</g>
<!-- rerun -->
<g id="node17" class="node">
<title>rerun</title>
<path fill="#ffffff" stroke="#c8d8e7" d="M1441.66,-442.6C1441.66,-442.6 1273.88,-442.6 1273.88,-442.6 1267.88,-442.6 1261.88,-436.6 1261.88,-430.6 1261.88,-430.6 1261.88,-388.2 1261.88,-388.2 1261.88,-382.2 1267.88,-376.2 1273.88,-376.2 1273.88,-376.2 1441.66,-376.2 1441.66,-376.2 1447.66,-376.2 1453.66,-382.2 1453.66,-388.2 1453.66,-388.2 1453.66,-430.6 1453.66,-430.6 1453.66,-436.6 1447.66,-442.6 1441.66,-442.6"/>
<text xml:space="preserve" text-anchor="start" x="1295.14" y="-418.05" font-family="Arial" font-weight="bold" font-size="13.00">Loại item &amp; chạy lại</text>
<text xml:space="preserve" text-anchor="start" x="1279.39" y="-392.4" font-family="Arial" font-size="13.00">Chạy lại alpha sau khi loại</text>
</g>
<!-- theory&#45;&gt;rerun -->
<g id="edge23" class="edge">
<title>theory&#45;&gt;rerun</title>
<path fill="none" stroke="#617c98" stroke-width="1.8" d="M1015.19,-566.67C1033.12,-528.87 1060.27,-471.6 1060.27,-471.6 1060.27,-471.6 1164.2,-450.22 1249.2,-432.73"/>
<polygon fill="#617c98" stroke="#617c98" stroke-width="1.8" points="1249.83,-436.18 1258.92,-430.73 1248.42,-429.32 1249.83,-436.18"/>
<text xml:space="preserve" text-anchor="middle" x="1068.52" y="-501.1" font-family="Arial" font-size="11.00">loại</text>
</g>
<!-- theory&#45;&gt;keep -->
<g id="edge24" class="edge">
<title>theory&#45;&gt;keep</title>
<path fill="none" stroke="#617c98" stroke-width="1.8" d="M999.77,-566.74C999.77,-536.08 999.77,-489.8 999.77,-455.55"/>
<polygon fill="#617c98" stroke="#617c98" stroke-width="1.8" points="1003.27,-455.79 999.77,-445.79 996.27,-455.79 1003.27,-455.79"/>
<text xml:space="preserve" text-anchor="middle" x="1007.64" y="-501.1" font-family="Arial" font-size="11.00">giữ</text>
</g>
<!-- rerun&#45;&gt;alpha_q -->
<g id="edge25" class="edge">
<title>rerun&#45;&gt;alpha_q</title>
<path fill="none" stroke="#617c98" stroke-width="1.8" d="M1359.32,-442.86C1361.89,-496.84 1366.77,-599.2 1366.77,-599.2 1366.77,-1664.3 1366.77,-1664.3 1366.77,-1664.3 1366.77,-1664.3 1329.77,-1696.5 1329.77,-1696.5 1329.77,-1696.5 1166.82,-1751.72 1047.89,-1792.02"/>
<polygon fill="#617c98" stroke="#617c98" stroke-width="1.8" points="1047.09,-1788.59 1038.75,-1795.12 1049.34,-1795.22 1047.09,-1788.59"/>
</g>
<!-- next_step -->
<g id="node20" class="node">
<title>next_step</title>
<path fill="#eef8f1" stroke="#b8d7bc" d="M1073.66,-317.2C1073.66,-317.2 953.88,-317.2 953.88,-317.2 947.88,-317.2 941.88,-311.2 941.88,-305.2 941.88,-305.2 941.88,-262.8 941.88,-262.8 941.88,-256.8 947.88,-250.8 953.88,-250.8 953.88,-250.8 1073.66,-250.8 1073.66,-250.8 1079.66,-250.8 1085.66,-256.8 1085.66,-262.8 1085.66,-262.8 1085.66,-305.2 1085.66,-305.2 1085.66,-311.2 1079.66,-317.2 1073.66,-317.2"/>
<text xml:space="preserve" text-anchor="start" x="965.77" y="-292.65" font-family="Arial" font-weight="bold" font-size="13.00">Bước tiếp theo</text>
<text xml:space="preserve" text-anchor="start" x="959.39" y="-267" font-family="Arial" font-size="13.00">Chạy EFA → SEM</text>
</g>
<!-- keep&#45;&gt;next_step -->
<g id="edge27" class="edge">
<title>keep&#45;&gt;next_step</title>
<path fill="none" stroke="#617c98" stroke-width="1.8" d="M1003.45,-375.98C1005.04,-361.92 1006.94,-345.22 1008.67,-329.99"/>
<polygon fill="#617c98" stroke="#617c98" stroke-width="1.8" points="1012.11,-330.67 1009.76,-320.34 1005.16,-329.88 1012.11,-330.67"/>
</g>
<!-- end -->
<g id="node23" class="node">
<title>end</title>
<path fill="#ffffff" stroke="#c8d8e7" d="M1233.41,-66.4C1233.41,-66.4 980.12,-66.4 980.12,-66.4 974.12,-66.4 968.12,-60.4 968.12,-54.4 968.12,-54.4 968.12,-12 968.12,-12 968.12,-6 974.12,0 980.12,0 980.12,0 1233.41,0 1233.41,0 1239.41,0 1245.41,-6 1245.41,-12 1245.41,-12 1245.41,-54.4 1245.41,-54.4 1245.41,-60.4 1239.41,-66.4 1233.41,-66.4"/>
<text xml:space="preserve" text-anchor="start" x="1079.77" y="-41.85" font-family="Arial" font-weight="bold" font-size="13.00">Kết thúc</text>
<text xml:space="preserve" text-anchor="start" x="985.64" y="-16.2" font-family="Arial" font-size="13.00">Chốt thang đo và giải thích rõ quyết định</text>
</g>
<!-- revise&#45;&gt;end -->
<g id="edge30" class="edge">
<title>revise&#45;&gt;end</title>
<path fill="none" stroke="#617c98" stroke-width="1.8" d="M1203.53,-471.35C1201.77,-425.48 1198.77,-347.2 1198.77,-347.2 1198.77,-347.2 1198.77,-347.2 1198.77,-157.6 1198.77,-157.6 1164.87,-112.13 1138.23,-76.4"/>
<polygon fill="#617c98" stroke="#617c98" stroke-width="1.8" points="1141.35,-74.73 1132.57,-68.81 1135.74,-78.92 1141.35,-74.73"/>
</g>
<!-- note -->
<g id="node21" class="node">
<title>note</title>
<polygon fill="#fffdf5" stroke="#e7d9a8" points="1137.66,-191.8 885.88,-191.8 885.88,-125.4 1143.66,-125.4 1143.66,-185.8 1137.66,-191.8"/>
<polyline fill="none" stroke="#e7d9a8" points="1137.66,-191.8 1137.66,-185.8"/>
<polyline fill="none" stroke="#e7d9a8" points="1143.66,-185.8 1137.66,-185.8"/>
<text xml:space="preserve" text-anchor="start" x="963.77" y="-167.25" font-family="Arial" font-weight="bold" font-size="13.00">Lưu ý học thuật</text>
<text xml:space="preserve" text-anchor="start" x="903.39" y="-141.6" font-family="Arial" font-size="13.00">Cronbach&#39;s Alpha ≠ unidimensionality</text>
</g>
<!-- next_step&#45;&gt;note -->
<g id="edge28" class="edge">
<title>next_step&#45;&gt;note</title>
<path fill="none" stroke="#617c98" stroke-width="1.8" d="M1014.03,-250.58C1014.15,-236.52 1014.28,-219.82 1014.41,-204.59"/>
<polygon fill="#617c98" stroke="#617c98" stroke-width="1.8" points="1017.9,-204.99 1014.48,-194.96 1010.9,-204.93 1017.9,-204.99"/>
</g>
<!-- note&#45;&gt;end -->
<g id="edge29" class="edge">
<title>note&#45;&gt;end</title>
<path fill="none" stroke="#617c98" stroke-width="1.8" d="M1038.94,-125.18C1049.95,-110.42 1063.12,-92.74 1074.92,-76.92"/>
<polygon fill="#617c98" stroke="#617c98" stroke-width="1.8" points="1077.64,-79.13 1080.81,-69.02 1072.03,-74.94 1077.64,-79.13"/>
</g>
</g>
</svg>
