<?xml version="1.0" encoding="UTF-8" standalone="no"?>
<!DOCTYPE svg PUBLIC "-//W3C//DTD SVG 1.1//EN"
 "http://www.w3.org/Graphics/SVG/1.1/DTD/svg11.dtd">
<!-- Generated by graphviz version 14.1.5 (20260411.2331)
 -->
<!-- Title: cronbach_alpha_flow_final Pages: 1 -->
<svg width="2289pt" height="3248pt"
 viewBox="0.00 0.00 2289.00 3248.00" xmlns="http://www.w3.org/2000/svg" xmlns:xlink="http://www.w3.org/1999/xlink">
<g id="graph0" class="graph" transform="scale(1 1) rotate(0) translate(28.8 3219.1)">
<title>cronbach_alpha_flow_final</title>
<polygon fill="#f6f8fb" stroke="none" points="-28.8,28.8 -28.8,-3219.1 2260.59,-3219.1 2260.59,28.8 -28.8,28.8"/>
<text xml:space="preserve" text-anchor="start" x="805.02" y="-3160.7" font-family="Arial" font-weight="bold" font-size="28.00">Flow Đọc Cronbach&#39;s Alpha (Digital Marketing)</text>
<text xml:space="preserve" text-anchor="start" x="964.77" y="-3144.1" font-family="Arial" font-size="16.00">Kết hợp logic thống kê + lập luận lý thuyết</text>
<!-- start -->
<g id="node1" class="node">
<title>start</title>
<path fill="#ffffff" stroke="#c8d8e7" d="M1851.91,-3138.3C1851.91,-3138.3 1563.38,-3138.3 1563.38,-3138.3 1557.38,-3138.3 1551.38,-3132.3 1551.38,-3126.3 1551.38,-3126.3 1551.38,-3083.9 1551.38,-3083.9 1551.38,-3077.9 1557.38,-3071.9 1563.38,-3071.9 1563.38,-3071.9 1851.91,-3071.9 1851.91,-3071.9 1857.91,-3071.9 1863.91,-3077.9 1863.91,-3083.9 1863.91,-3083.9 1863.91,-3126.3 1863.91,-3126.3 1863.91,-3132.3 1857.91,-3138.3 1851.91,-3138.3"/>
<text xml:space="preserve" text-anchor="start" x="1682.89" y="-3113.75" font-family="Arial" font-weight="bold" font-size="13.00">Bắt đầu</text>
<text xml:space="preserve" text-anchor="start" x="1568.89" y="-3088.1" font-family="Arial" font-size="13.00">Chuẩn bị đánh giá độ tin cậy cho các thang đo</text>
</g>
<!-- group -->
<g id="node2" class="node">
<title>group</title>
<path fill="#f4f7fb" stroke="#c8d8e7" d="M1881.54,-3012.9C1881.54,-3012.9 1533.75,-3012.9 1533.75,-3012.9 1527.75,-3012.9 1521.75,-3006.9 1521.75,-3000.9 1521.75,-3000.9 1521.75,-2943.5 1521.75,-2943.5 1521.75,-2937.5 1527.75,-2931.5 1533.75,-2931.5 1533.75,-2931.5 1881.54,-2931.5 1881.54,-2931.5 1887.54,-2931.5 1893.54,-2937.5 1893.54,-2943.5 1893.54,-2943.5 1893.54,-3000.9 1893.54,-3000.9 1893.54,-3006.9 1887.54,-3012.9 1881.54,-3012.9"/>
<text xml:space="preserve" text-anchor="start" x="1624.77" y="-2988.35" font-family="Arial" font-weight="bold" font-size="13.00">Nhóm item theo construct</text>
<text xml:space="preserve" text-anchor="start" x="1539.27" y="-2962.7" font-family="Arial" font-size="13.00">Dựa trên lý thuyết: Urgency, Enjoyment, Impulse Buying,</text>
<text xml:space="preserve" text-anchor="start" x="1624.02" y="-2947.7" font-family="Arial" font-size="13.00">Time/Qty/Voucher Scarcity...</text>
</g>
<!-- start&#45;&gt;group -->
<g id="edge1" class="edge">
<title>start&#45;&gt;group</title>
<path fill="none" stroke="#617c98" stroke-width="1.8" d="M1707.64,-3071.41C1707.64,-3057.56 1707.64,-3041.08 1707.64,-3025.62"/>
<polygon fill="#617c98" stroke="#617c98" stroke-width="1.8" points="1711.15,-3025.67 1707.65,-3015.67 1704.15,-3025.67 1711.15,-3025.67"/>
</g>
<!-- reverse_q -->
<g id="node3" class="node">
<title>reverse_q</title>
<polygon fill="#fff4d8" stroke="#e7c76a" points="1707.64,-2872.5 1366.61,-2806.1 1707.64,-2739.7 2048.68,-2806.1 1707.64,-2872.5"/>
<text xml:space="preserve" text-anchor="start" x="1677.27" y="-2814.75" font-family="Arial" font-weight="bold" font-size="13.00">Câu hỏi 0</text>
<text xml:space="preserve" text-anchor="start" x="1554.64" y="-2789.1" font-family="Arial" font-size="13.00">Có item đảo chiều không và đã recode đúng chưa?</text>
</g>
<!-- group&#45;&gt;reverse_q -->
<g id="edge2" class="edge">
<title>group&#45;&gt;reverse_q</title>
<path fill="none" stroke="#617c98" stroke-width="1.8" d="M1707.64,-2931.06C1707.64,-2917.21 1707.64,-2901.18 1707.64,-2885.34"/>
<polygon fill="#617c98" stroke="#617c98" stroke-width="1.8" points="1711.15,-2885.44 1707.65,-2875.44 1704.15,-2885.44 1711.15,-2885.44"/>
</g>
<!-- recode -->
<g id="node4" class="node">
<title>recode</title>
<path fill="#fff1ee" stroke="#deb0a8" d="M1736.04,-2668.2C1736.04,-2668.2 1457.25,-2668.2 1457.25,-2668.2 1451.25,-2668.2 1445.25,-2662.2 1445.25,-2656.2 1445.25,-2656.2 1445.25,-2613.8 1445.25,-2613.8 1445.25,-2607.8 1451.25,-2601.8 1457.25,-2601.8 1457.25,-2601.8 1736.04,-2601.8 1736.04,-2601.8 1742.04,-2601.8 1748.04,-2607.8 1748.04,-2613.8 1748.04,-2613.8 1748.04,-2656.2 1748.04,-2656.2 1748.04,-2662.2 1742.04,-2668.2 1736.04,-2668.2"/>
<text xml:space="preserve" text-anchor="start" x="1552.39" y="-2643.65" font-family="Arial" font-weight="bold" font-size="13.00">Recode trước</text>
<text xml:space="preserve" text-anchor="start" x="1462.77" y="-2618" font-family="Arial" font-size="13.00">Cần xử lý item đảo chiều trước khi đọc alpha</text>
</g>
<!-- reverse_q&#45;&gt;recode -->
<g id="edge3" class="edge">
<title>reverse_q&#45;&gt;recode</title>
<path fill="none" stroke="#617c98" stroke-width="1.8" d="M1669.45,-2746.91C1654.88,-2724.72 1638.55,-2699.84 1625.05,-2679.27"/>
<polygon fill="#617c98" stroke="#617c98" stroke-width="1.8" points="1627.98,-2677.36 1619.57,-2670.92 1622.13,-2681.2 1627.98,-2677.36"/>
<text xml:space="preserve" text-anchor="middle" x="1657.87" y="-2700.25" font-family="Arial" font-size="11.00">chưa</text>
</g>
<!-- alpha_pre -->
<g id="node5" class="node">
<title>alpha_pre</title>
<path fill="#ffffff" stroke="#c8d8e7" d="M1953.29,-2542.8C1953.29,-2542.8 1574,-2542.8 1574,-2542.8 1568,-2542.8 1562,-2536.8 1562,-2530.8 1562,-2530.8 1562,-2488.4 1562,-2488.4 1562,-2482.4 1568,-2476.4 1574,-2476.4 1574,-2476.4 1953.29,-2476.4 1953.29,-2476.4 1959.29,-2476.4 1965.29,-2482.4 1965.29,-2488.4 1965.29,-2488.4 1965.29,-2530.8 1965.29,-2530.8 1965.29,-2536.8 1959.29,-2542.8 1953.29,-2542.8"/>
<text xml:space="preserve" text-anchor="start" x="1686.39" y="-2518.25" font-family="Arial" font-weight="bold" font-size="13.00">Cronbach&#39;s Alpha sơ bộ</text>
<text xml:space="preserve" text-anchor="start" x="1579.52" y="-2492.6" font-family="Arial" font-size="13.00">Chạy riêng cho từng construct như kiểm tra reliability ban đầu</text>
</g>
<!-- reverse_q&#45;&gt;alpha_pre -->
<g id="edge4" class="edge">
<title>reverse_q&#45;&gt;alpha_pre</title>
<path fill="none" stroke="#617c98" stroke-width="1.8" d="M1733.42,-2744.26C1748.91,-2707.69 1765.64,-2668.2 1765.64,-2668.2 1765.64,-2668.2 1765.64,-2601.8 1765.64,-2601.8 1765.64,-2601.8 1765.14,-2578.76 1764.64,-2555.84"/>
<polygon fill="#617c98" stroke="#617c98" stroke-width="1.8" points="1768.14,-2555.91 1764.42,-2545.99 1761.14,-2556.07 1768.14,-2555.91"/>
<text xml:space="preserve" text-anchor="middle" x="1784.77" y="-2631.3" font-family="Arial" font-size="11.00">đã xử lý</text>
</g>
<!-- recode&#45;&gt;alpha_pre -->
<g id="edge5" class="edge">
<title>recode&#45;&gt;alpha_pre</title>
<path fill="none" stroke="#617c98" stroke-width="1.8" d="M1640.52,-2601.58C1661.64,-2585.97 1687.16,-2567.12 1709.48,-2550.62"/>
<polygon fill="#617c98" stroke="#617c98" stroke-width="1.8" points="1711.33,-2553.61 1717.29,-2544.85 1707.17,-2547.98 1711.33,-2553.61"/>
</g>
<!-- alpha_q -->
<g id="node6" class="node">
<title>alpha_q</title>
<polygon fill="#fff4d8" stroke="#e7c76a" points="1044.64,-2417.4 735.11,-2351 1044.64,-2284.6 1354.18,-2351 1044.64,-2417.4"/>
<text xml:space="preserve" text-anchor="start" x="1014.27" y="-2359.65" font-family="Arial" font-weight="bold" font-size="13.00">Câu hỏi 1</text>
<text xml:space="preserve" text-anchor="start" x="907.39" y="-2334" font-family="Arial" font-size="13.00">Alpha sơ bộ của construct đang gợi ý điều gì?</text>
</g>
<!-- alpha_pre&#45;&gt;alpha_q -->
<g id="edge6" class="edge">
<title>alpha_pre&#45;&gt;alpha_q</title>
<path fill="none" stroke="#617c98" stroke-width="1.8" d="M1613.79,-2475.96C1495.72,-2450.25 1331.26,-2414.43 1209.48,-2387.9"/>
<polygon fill="#617c98" stroke="#617c98" stroke-width="1.8" points="1210.27,-2384.49 1199.75,-2385.78 1208.78,-2391.33 1210.27,-2384.49"/>
</g>
<!-- prelim_note -->
<g id="node27" class="node">
<title>prelim_note</title>
<polygon fill="#fffdf5" stroke="#e7d9a8" points="1987.41,-2384.2 1533.88,-2384.2 1533.88,-2317.8 1993.41,-2317.8 1993.41,-2378.2 1987.41,-2384.2"/>
<polyline fill="none" stroke="#e7d9a8" points="1987.41,-2384.2 1987.41,-2378.2"/>
<polyline fill="none" stroke="#e7d9a8" points="1993.41,-2378.2 1987.41,-2378.2"/>
<text xml:space="preserve" text-anchor="start" x="1712.64" y="-2359.65" font-family="Arial" font-weight="bold" font-size="13.00">Lưu ý học thuật</text>
<text xml:space="preserve" text-anchor="start" x="1551.39" y="-2334" font-family="Arial" font-size="13.00">Nếu đặt Alpha trước EFA, phải nói rõ đây là preliminary reliability check</text>
</g>
<!-- alpha_pre&#45;&gt;prelim_note -->
<g id="edge15" class="edge">
<title>alpha_pre&#45;&gt;prelim_note</title>
<path fill="none" stroke="#617c98" stroke-width="1.8" stroke-dasharray="5,2" d="M1763.64,-2476.15C1763.64,-2453.34 1763.64,-2422.51 1763.64,-2397.29"/>
<polygon fill="#617c98" stroke="#617c98" stroke-width="1.8" points="1767.15,-2397.4 1763.65,-2387.4 1760.15,-2397.4 1767.15,-2397.4"/>
</g>
<!-- alpha_low -->
<g id="node7" class="node">
<title>alpha_low</title>
<path fill="#fdeded" stroke="#dba7a7" d="M1093.29,-2205.6C1093.29,-2205.6 780,-2205.6 780,-2205.6 774,-2205.6 768,-2199.6 768,-2193.6 768,-2193.6 768,-2151.2 768,-2151.2 768,-2145.2 774,-2139.2 780,-2139.2 780,-2139.2 1093.29,-2139.2 1093.29,-2139.2 1099.29,-2139.2 1105.29,-2145.2 1105.29,-2151.2 1105.29,-2151.2 1105.29,-2193.6 1105.29,-2193.6 1105.29,-2199.6 1099.29,-2205.6 1093.29,-2205.6"/>
<text xml:space="preserve" text-anchor="start" x="901.77" y="-2181.05" font-family="Arial" font-weight="bold" font-size="13.00">Alpha thấp</text>
<text xml:space="preserve" text-anchor="start" x="785.52" y="-2155.4" font-family="Arial" font-size="13.00">alpha &lt; 0.60 thường gợi ý internal consistency yếu</text>
</g>
<!-- alpha_q&#45;&gt;alpha_low -->
<g id="edge7" class="edge">
<title>alpha_q&#45;&gt;alpha_low</title>
<path fill="none" stroke="#617c98" stroke-width="1.8" d="M1009.28,-2292.17C994.27,-2267.62 977.06,-2239.49 963.17,-2216.77"/>
<polygon fill="#617c98" stroke="#617c98" stroke-width="1.8" points="966.26,-2215.12 958.06,-2208.41 960.29,-2218.77 966.26,-2215.12"/>
<text xml:space="preserve" text-anchor="middle" x="998.05" y="-2245.15" font-family="Arial" font-size="11.00">&lt;0.60</text>
</g>
<!-- alpha_mid -->
<g id="node8" class="node">
<title>alpha_mid</title>
<path fill="#fff9ec" stroke="#e7c76a" d="M403.29,-2205.6C403.29,-2205.6 12,-2205.6 12,-2205.6 6,-2205.6 0,-2199.6 0,-2193.6 0,-2193.6 0,-2151.2 0,-2151.2 0,-2145.2 6,-2139.2 12,-2139.2 12,-2139.2 403.29,-2139.2 403.29,-2139.2 409.29,-2139.2 415.29,-2145.2 415.29,-2151.2 415.29,-2151.2 415.29,-2193.6 415.29,-2193.6 415.29,-2199.6 409.29,-2205.6 403.29,-2205.6"/>
<text xml:space="preserve" text-anchor="start" x="141.64" y="-2181.05" font-family="Arial" font-weight="bold" font-size="13.00">Alpha mức cân nhắc</text>
<text xml:space="preserve" text-anchor="start" x="17.52" y="-2155.4" font-family="Arial" font-size="13.00">0.60–0.70 có thể chấp nhận ở giai đoạn khám phá, tùy bối cảnh</text>
</g>
<!-- alpha_q&#45;&gt;alpha_mid -->
<g id="edge8" class="edge">
<title>alpha_q&#45;&gt;alpha_mid</title>
<path fill="none" stroke="#617c98" stroke-width="1.8" d="M890.15,-2317.4C743.79,-2286.52 524.61,-2240.28 374.35,-2208.57"/>
<polygon fill="#617c98" stroke="#617c98" stroke-width="1.8" points="375.47,-2205.23 364.97,-2206.59 374.03,-2212.08 375.47,-2205.23"/>
<text xml:space="preserve" text-anchor="middle" x="600.03" y="-2245.15" font-family="Arial" font-size="11.00">0.60–0.70</text>
</g>
<!-- alpha_good -->
<g id="node9" class="node">
<title>alpha_good</title>
<path fill="#eef8f1" stroke="#b8d7bc" d="M2053.41,-2213.1C2053.41,-2213.1 1563.88,-2213.1 1563.88,-2213.1 1557.88,-2213.1 1551.88,-2207.1 1551.88,-2201.1 1551.88,-2201.1 1551.88,-2143.7 1551.88,-2143.7 1551.88,-2137.7 1557.88,-2131.7 1563.88,-2131.7 1563.88,-2131.7 2053.41,-2131.7 2053.41,-2131.7 2059.41,-2131.7 2065.41,-2137.7 2065.41,-2143.7 2065.41,-2143.7 2065.41,-2201.1 2065.41,-2201.1 2065.41,-2207.1 2059.41,-2213.1 2053.41,-2213.1"/>
<text xml:space="preserve" text-anchor="start" x="1735.14" y="-2188.55" font-family="Arial" font-weight="bold" font-size="13.00">Alpha chấp nhận được</text>
<text xml:space="preserve" text-anchor="start" x="1734.77" y="-2162.9" font-family="Arial" font-size="13.00">Có thể chấp nhận sơ bộ;</text>
<text xml:space="preserve" text-anchor="start" x="1569.39" y="-2147.9" font-family="Arial" font-size="13.00">0.70 thường đủ cho exploratory, 0.80+ thường thuyết phục hơn cho confirmatory</text>
</g>
<!-- alpha_q&#45;&gt;alpha_good -->
<g id="edge9" class="edge">
<title>alpha_q&#45;&gt;alpha_good</title>
<path fill="none" stroke="#617c98" stroke-width="1.8" d="M1192.4,-2315.85C1315.13,-2287.48 1490.38,-2246.97 1622.65,-2216.39"/>
<polygon fill="#617c98" stroke="#617c98" stroke-width="1.8" points="1623.3,-2219.84 1632.25,-2214.17 1621.72,-2213.02 1623.3,-2219.84"/>
<text xml:space="preserve" text-anchor="middle" x="1519.07" y="-2245.15" font-family="Arial" font-size="11.00">0.70–0.95</text>
</g>
<!-- alpha_high -->
<g id="node10" class="node">
<title>alpha_high</title>
<path fill="#eef2ff" stroke="#b7c8e6" d="M1504.04,-2205.6C1504.04,-2205.6 1153.25,-2205.6 1153.25,-2205.6 1147.25,-2205.6 1141.25,-2199.6 1141.25,-2193.6 1141.25,-2193.6 1141.25,-2151.2 1141.25,-2151.2 1141.25,-2145.2 1147.25,-2139.2 1153.25,-2139.2 1153.25,-2139.2 1504.04,-2139.2 1504.04,-2139.2 1510.04,-2139.2 1516.04,-2145.2 1516.04,-2151.2 1516.04,-2151.2 1516.04,-2193.6 1516.04,-2193.6 1516.04,-2199.6 1510.04,-2205.6 1504.04,-2205.6"/>
<text xml:space="preserve" text-anchor="start" x="1285.89" y="-2181.05" font-family="Arial" font-weight="bold" font-size="13.00">Alpha rất cao</text>
<text xml:space="preserve" text-anchor="start" x="1158.77" y="-2155.4" font-family="Arial" font-size="13.00">&gt; 0.95 có thể gợi ý item trùng lặp hoặc construct quá hẹp</text>
</g>
<!-- alpha_q&#45;&gt;alpha_high -->
<g id="edge10" class="edge">
<title>alpha_q&#45;&gt;alpha_high</title>
<path fill="none" stroke="#617c98" stroke-width="1.8" d="M1123.38,-2301.04C1168.23,-2273.15 1223.66,-2238.68 1265.61,-2212.59"/>
<polygon fill="#617c98" stroke="#617c98" stroke-width="1.8" points="1267.29,-2215.67 1273.93,-2207.42 1263.59,-2209.73 1267.29,-2215.67"/>
<text xml:space="preserve" text-anchor="middle" x="1225.96" y="-2245.15" font-family="Arial" font-size="11.00">&gt;0.95</text>
</g>
<!-- alpha_item_note -->
<g id="node30" class="node">
<title>alpha_item_note</title>
<polygon fill="#fffdf5" stroke="#e7d9a8" points="725.79,-2213.1 451.5,-2213.1 451.5,-2131.7 731.79,-2131.7 731.79,-2207.1 725.79,-2213.1"/>
<polyline fill="none" stroke="#e7d9a8" points="725.79,-2213.1 725.79,-2207.1"/>
<polyline fill="none" stroke="#e7d9a8" points="731.79,-2207.1 725.79,-2207.1"/>
<text xml:space="preserve" text-anchor="start" x="540.64" y="-2188.55" font-family="Arial" font-weight="bold" font-size="13.00">Lưu ý học thuật</text>
<text xml:space="preserve" text-anchor="start" x="469.02" y="-2162.9" font-family="Arial" font-size="13.00">Alpha có thể tăng khi số lượng item tăng,</text>
<text xml:space="preserve" text-anchor="start" x="491.14" y="-2147.9" font-family="Arial" font-size="13.00">không chỉ do chất lượng thang đo</text>
</g>
<!-- alpha_q&#45;&gt;alpha_item_note -->
<g id="edge18" class="edge">
<title>alpha_q&#45;&gt;alpha_item_note</title>
<path fill="none" stroke="#617c98" stroke-width="1.8" stroke-dasharray="5,2" d="M935.85,-2307.59C866.42,-2280.52 776.55,-2245.49 706.06,-2218"/>
<polygon fill="#617c98" stroke="#617c98" stroke-width="1.8" points="707.6,-2214.85 697.01,-2214.47 705.05,-2221.37 707.6,-2214.85"/>
</g>
<!-- review -->
<g id="node11" class="node">
<title>review</title>
<path fill="#ffffff" stroke="#c8d8e7" d="M1473.29,-2072.7C1473.29,-2072.7 1184,-2072.7 1184,-2072.7 1178,-2072.7 1172,-2066.7 1172,-2060.7 1172,-2060.7 1172,-2018.3 1172,-2018.3 1172,-2012.3 1178,-2006.3 1184,-2006.3 1184,-2006.3 1473.29,-2006.3 1473.29,-2006.3 1479.29,-2006.3 1485.29,-2012.3 1485.29,-2018.3 1485.29,-2018.3 1485.29,-2060.7 1485.29,-2060.7 1485.29,-2066.7 1479.29,-2072.7 1473.29,-2072.7"/>
<text xml:space="preserve" text-anchor="start" x="1270.14" y="-2048.15" font-family="Arial" font-weight="bold" font-size="13.00">Đọc nội dung item</text>
<text xml:space="preserve" text-anchor="start" x="1189.52" y="-2022.5" font-family="Arial" font-size="13.00">Kiểm tra ý nghĩa, wording, trùng lặp, đảo chiều</text>
</g>
<!-- alpha_low&#45;&gt;review -->
<g id="edge11" class="edge">
<title>alpha_low&#45;&gt;review</title>
<path fill="none" stroke="#617c98" stroke-width="1.8" d="M1034.55,-2138.71C1090.67,-2119.97 1161.24,-2096.4 1219.18,-2077.05"/>
<polygon fill="#617c98" stroke="#617c98" stroke-width="1.8" points="1220.01,-2080.47 1228.38,-2073.98 1217.79,-2073.83 1220.01,-2080.47"/>
</g>
<!-- alpha_mid&#45;&gt;review -->
<g id="edge12" class="edge">
<title>alpha_mid&#45;&gt;review</title>
<path fill="none" stroke="#617c98" stroke-width="1.8" d="M393.76,-2138.71C417.46,-2134.54 433.64,-2131.7 433.64,-2131.7 433.64,-2131.7 899.65,-2084.21 1159.14,-2057.77"/>
<polygon fill="#617c98" stroke="#617c98" stroke-width="1.8" points="1159.42,-2061.26 1169.01,-2056.77 1158.71,-2054.3 1159.42,-2061.26"/>
</g>
<!-- alpha_good&#45;&gt;review -->
<g id="edge13" class="edge">
<title>alpha_good&#45;&gt;review</title>
<path fill="none" stroke="#617c98" stroke-width="1.8" d="M1661.37,-2131.24C1597.16,-2113.73 1522.49,-2093.36 1460.18,-2076.37"/>
<polygon fill="#617c98" stroke="#617c98" stroke-width="1.8" points="1461.49,-2073.1 1450.92,-2073.84 1459.64,-2079.85 1461.49,-2073.1"/>
</g>
<!-- threshold_note -->
<g id="node29" class="node">
<title>threshold_note</title>
<polygon fill="#fffdf5" stroke="#e7d9a8" points="2018.54,-2072.7 1544.75,-2072.7 1544.75,-2006.3 2024.54,-2006.3 2024.54,-2066.7 2018.54,-2072.7"/>
<polyline fill="none" stroke="#e7d9a8" points="2018.54,-2072.7 2018.54,-2066.7"/>
<polyline fill="none" stroke="#e7d9a8" points="2024.54,-2066.7 2018.54,-2066.7"/>
<text xml:space="preserve" text-anchor="start" x="1728.77" y="-2048.15" font-family="Arial" font-weight="bold" font-size="13.00">Diễn giải ngưỡng</text>
<text xml:space="preserve" text-anchor="start" x="1562.27" y="-2022.5" font-family="Arial" font-size="13.00">Thresholds là context&#45;dependent và nên đọc cùng theory + research stage</text>
</g>
<!-- alpha_good&#45;&gt;threshold_note -->
<g id="edge16" class="edge">
<title>alpha_good&#45;&gt;threshold_note</title>
<path fill="none" stroke="#617c98" stroke-width="1.8" stroke-dasharray="5,2" d="M1801.31,-2131.41C1798.62,-2116.73 1795.56,-2100.02 1792.8,-2084.96"/>
<polygon fill="#617c98" stroke="#617c98" stroke-width="1.8" points="1796.3,-2084.67 1791.06,-2075.47 1789.42,-2085.94 1796.3,-2084.67"/>
</g>
<!-- alpha_high&#45;&gt;review -->
<g id="edge14" class="edge">
<title>alpha_high&#45;&gt;review</title>
<path fill="none" stroke="#617c98" stroke-width="1.8" d="M1328.64,-2138.71C1328.64,-2122.58 1328.64,-2102.87 1328.64,-2085.35"/>
<polygon fill="#617c98" stroke="#617c98" stroke-width="1.8" points="1332.15,-2085.5 1328.65,-2075.5 1325.15,-2085.5 1332.15,-2085.5"/>
</g>
<!-- alpha_high&#45;&gt;threshold_note -->
<g id="edge17" class="edge">
<title>alpha_high&#45;&gt;threshold_note</title>
<path fill="none" stroke="#617c98" stroke-width="1.8" stroke-dasharray="5,2" d="M1442.54,-2138.71C1508.36,-2119.81 1591.28,-2096.01 1658.99,-2076.57"/>
<polygon fill="#617c98" stroke="#617c98" stroke-width="1.8" points="1659.76,-2079.99 1668.4,-2073.87 1657.82,-2073.26 1659.76,-2079.99"/>
</g>
<!-- content_q -->
<g id="node12" class="node">
<title>content_q</title>
<polygon fill="#fff4d8" stroke="#e7c76a" points="1366.64,-1947.3 1132.86,-1880.9 1366.64,-1814.5 1600.43,-1880.9 1366.64,-1947.3"/>
<text xml:space="preserve" text-anchor="start" x="1336.27" y="-1889.55" font-family="Arial" font-weight="bold" font-size="13.00">Câu hỏi 2</text>
<text xml:space="preserve" text-anchor="start" x="1267.27" y="-1863.9" font-family="Arial" font-size="13.00">Có vấn đề rõ về nội dung không?</text>
</g>
<!-- review&#45;&gt;content_q -->
<g id="edge19" class="edge">
<title>review&#45;&gt;content_q</title>
<path fill="none" stroke="#617c98" stroke-width="1.8" d="M1336.52,-2006.05C1340.09,-1991.35 1344.46,-1973.31 1348.76,-1955.6"/>
<polygon fill="#617c98" stroke="#617c98" stroke-width="1.8" points="1352.12,-1956.61 1351.07,-1946.07 1345.31,-1954.96 1352.12,-1956.61"/>
</g>
<!-- content_issue -->
<g id="node13" class="node">
<title>content_issue</title>
<path fill="#fff1ee" stroke="#deb0a8" d="M1469.66,-1743C1469.66,-1743 1263.62,-1743 1263.62,-1743 1257.62,-1743 1251.62,-1737 1251.62,-1731 1251.62,-1731 1251.62,-1688.6 1251.62,-1688.6 1251.62,-1682.6 1257.62,-1676.6 1263.62,-1676.6 1263.62,-1676.6 1469.66,-1676.6 1469.66,-1676.6 1475.66,-1676.6 1481.66,-1682.6 1481.66,-1688.6 1481.66,-1688.6 1481.66,-1731 1481.66,-1731 1481.66,-1737 1475.66,-1743 1469.66,-1743"/>
<text xml:space="preserve" text-anchor="start" x="1314.14" y="-1718.45" font-family="Arial" font-weight="bold" font-size="13.00">Vấn đề nội dung</text>
<text xml:space="preserve" text-anchor="start" x="1269.14" y="-1692.8" font-family="Arial" font-size="13.00">Item lệch ý, mơ hồ hoặc sai logic</text>
</g>
<!-- content_q&#45;&gt;content_issue -->
<g id="edge20" class="edge">
<title>content_q&#45;&gt;content_issue</title>
<path fill="none" stroke="#617c98" stroke-width="1.8" d="M1366.64,-1814.04C1366.64,-1794.58 1366.64,-1773.73 1366.64,-1755.91"/>
<polygon fill="#617c98" stroke="#617c98" stroke-width="1.8" points="1370.15,-1755.95 1366.65,-1745.95 1363.15,-1755.95 1370.15,-1755.95"/>
<text xml:space="preserve" text-anchor="middle" x="1372.27" y="-1775.05" font-family="Arial" font-size="11.00">có</text>
</g>
<!-- stats -->
<g id="node14" class="node">
<title>stats</title>
<path fill="#eef2ff" stroke="#b7c8e6" d="M1759.04,-1617.6C1759.04,-1617.6 1348.25,-1617.6 1348.25,-1617.6 1342.25,-1617.6 1336.25,-1611.6 1336.25,-1605.6 1336.25,-1605.6 1336.25,-1563.2 1336.25,-1563.2 1336.25,-1557.2 1342.25,-1551.2 1348.25,-1551.2 1348.25,-1551.2 1759.04,-1551.2 1759.04,-1551.2 1765.04,-1551.2 1771.04,-1557.2 1771.04,-1563.2 1771.04,-1563.2 1771.04,-1605.6 1771.04,-1605.6 1771.04,-1611.6 1765.04,-1617.6 1759.04,-1617.6"/>
<text xml:space="preserve" text-anchor="start" x="1518.39" y="-1593.05" font-family="Arial" font-weight="bold" font-size="13.00">Xem chỉ số</text>
<text xml:space="preserve" text-anchor="start" x="1353.77" y="-1567.4" font-family="Arial" font-size="13.00">CITC + Alpha if Item Deleted (chỉ hỗ trợ, không tự động quyết định)</text>
</g>
<!-- content_q&#45;&gt;stats -->
<g id="edge21" class="edge">
<title>content_q&#45;&gt;stats</title>
<path fill="none" stroke="#617c98" stroke-width="1.8" d="M1416.55,-1828.53C1454.29,-1789.69 1499.64,-1743 1499.64,-1743 1499.64,-1743 1522.39,-1676.61 1538.36,-1630.01"/>
<polygon fill="#617c98" stroke="#617c98" stroke-width="1.8" points="1541.64,-1631.23 1541.57,-1620.63 1535.02,-1628.96 1541.64,-1631.23"/>
<text xml:space="preserve" text-anchor="middle" x="1543.16" y="-1706.1" font-family="Arial" font-size="11.00">không rõ</text>
</g>
<!-- content_issue&#45;&gt;stats -->
<g id="edge22" class="edge">
<title>content_issue&#45;&gt;stats</title>
<path fill="none" stroke="#617c98" stroke-width="1.8" d="M1415.78,-1676.38C1439.64,-1660.63 1468.52,-1641.58 1493.67,-1624.98"/>
<polygon fill="#617c98" stroke="#617c98" stroke-width="1.8" points="1495.5,-1627.96 1501.92,-1619.53 1491.64,-1622.12 1495.5,-1627.96"/>
</g>
<!-- stats_q -->
<g id="node15" class="node">
<title>stats_q</title>
<polygon fill="#fff4d8" stroke="#e7c76a" points="1580.64,-1492.2 1388.86,-1425.8 1580.64,-1359.4 1772.43,-1425.8 1580.64,-1492.2"/>
<text xml:space="preserve" text-anchor="start" x="1550.27" y="-1434.45" font-family="Arial" font-weight="bold" font-size="13.00">Câu hỏi 3</text>
<text xml:space="preserve" text-anchor="start" x="1502.27" y="-1408.8" font-family="Arial" font-size="13.00">Có item đáng nghi không?</text>
</g>
<!-- stats&#45;&gt;stats_q -->
<g id="edge23" class="edge">
<title>stats&#45;&gt;stats_q</title>
<path fill="none" stroke="#617c98" stroke-width="1.8" d="M1559.24,-1550.95C1561.74,-1536.46 1564.79,-1518.74 1567.8,-1501.27"/>
<polygon fill="#617c98" stroke="#617c98" stroke-width="1.8" points="1571.21,-1502.09 1569.46,-1491.64 1564.32,-1500.9 1571.21,-1502.09"/>
</g>
<!-- one_item -->
<g id="node16" class="node">
<title>one_item</title>
<path fill="#fff9ec" stroke="#e7c76a" d="M2007.16,-1287.9C2007.16,-1287.9 1810.12,-1287.9 1810.12,-1287.9 1804.12,-1287.9 1798.12,-1281.9 1798.12,-1275.9 1798.12,-1275.9 1798.12,-1233.5 1798.12,-1233.5 1798.12,-1227.5 1804.12,-1221.5 1810.12,-1221.5 1810.12,-1221.5 2007.16,-1221.5 2007.16,-1221.5 2013.16,-1221.5 2019.16,-1227.5 2019.16,-1233.5 2019.16,-1233.5 2019.16,-1275.9 2019.16,-1275.9 2019.16,-1281.9 2013.16,-1287.9 2007.16,-1287.9"/>
<text xml:space="preserve" text-anchor="start" x="1856.52" y="-1263.35" font-family="Arial" font-weight="bold" font-size="13.00">1 item có vấn đề</text>
<text xml:space="preserve" text-anchor="start" x="1815.64" y="-1237.7" font-family="Arial" font-size="13.00">CITC thấp hoặc làm alpha tăng</text>
</g>
<!-- stats_q&#45;&gt;one_item -->
<g id="edge24" class="edge">
<title>stats_q&#45;&gt;one_item</title>
<path fill="none" stroke="#617c98" stroke-width="1.8" d="M1657.13,-1385.37C1710.5,-1357.85 1781.36,-1321.32 1834.27,-1294.05"/>
<polygon fill="#617c98" stroke="#617c98" stroke-width="1.8" points="1835.57,-1297.31 1842.85,-1289.62 1832.36,-1291.09 1835.57,-1297.31"/>
<text xml:space="preserve" text-anchor="middle" x="1798.29" y="-1319.95" font-family="Arial" font-size="11.00">1 item</text>
</g>
<!-- many_item -->
<g id="node17" class="node">
<title>many_item</title>
<path fill="#fdeded" stroke="#dba7a7" d="M1749.66,-1287.9C1749.66,-1287.9 1423.62,-1287.9 1423.62,-1287.9 1417.62,-1287.9 1411.62,-1281.9 1411.62,-1275.9 1411.62,-1275.9 1411.62,-1233.5 1411.62,-1233.5 1411.62,-1227.5 1417.62,-1221.5 1423.62,-1221.5 1423.62,-1221.5 1749.66,-1221.5 1749.66,-1221.5 1755.66,-1221.5 1761.66,-1227.5 1761.66,-1233.5 1761.66,-1233.5 1761.66,-1275.9 1761.66,-1275.9 1761.66,-1281.9 1755.66,-1287.9 1749.66,-1287.9"/>
<text xml:space="preserve" text-anchor="start" x="1519.52" y="-1263.35" font-family="Arial" font-weight="bold" font-size="13.00">Nhiều item có vấn đề</text>
<text xml:space="preserve" text-anchor="start" x="1429.14" y="-1237.7" font-family="Arial" font-size="13.00">Có thể sai ở cấp độ construct hoặc đang có đa chiều</text>
</g>
<!-- stats_q&#45;&gt;many_item -->
<g id="edge25" class="edge">
<title>stats_q&#45;&gt;many_item</title>
<path fill="none" stroke="#617c98" stroke-width="1.8" d="M1582.95,-1359.91C1583.65,-1340.12 1584.41,-1318.81 1585.05,-1300.65"/>
<polygon fill="#617c98" stroke="#617c98" stroke-width="1.8" points="1588.54,-1300.89 1585.4,-1290.78 1581.55,-1300.65 1588.54,-1300.89"/>
<text xml:space="preserve" text-anchor="middle" x="1597.48" y="-1319.95" font-family="Arial" font-size="11.00">nhiều</text>
</g>
<!-- keep -->
<g id="node20" class="node">
<title>keep</title>
<path fill="#eef8f1" stroke="#b8d7bc" d="M1548.54,-959.2C1548.54,-959.2 1164.75,-959.2 1164.75,-959.2 1158.75,-959.2 1152.75,-953.2 1152.75,-947.2 1152.75,-947.2 1152.75,-904.8 1152.75,-904.8 1152.75,-898.8 1158.75,-892.8 1164.75,-892.8 1164.75,-892.8 1548.54,-892.8 1548.54,-892.8 1554.54,-892.8 1560.54,-898.8 1560.54,-904.8 1560.54,-904.8 1560.54,-947.2 1560.54,-947.2 1560.54,-953.2 1554.54,-959.2 1548.54,-959.2"/>
<text xml:space="preserve" text-anchor="start" x="1286.52" y="-934.65" font-family="Arial" font-weight="bold" font-size="13.00">Giữ thang đo tạm thời</text>
<text xml:space="preserve" text-anchor="start" x="1170.27" y="-909" font-family="Arial" font-size="13.00">Chấp nhận được về nội dung và chỉ số ở bước reliability sơ bộ</text>
</g>
<!-- stats_q&#45;&gt;keep -->
<g id="edge26" class="edge">
<title>stats_q&#45;&gt;keep</title>
<path fill="none" stroke="#617c98" stroke-width="1.8" d="M1519.67,-1380.16C1465.1,-1340.21 1393.64,-1287.9 1393.64,-1287.9 1393.64,-1287.9 1371.21,-1069.08 1361.28,-972.22"/>
<polygon fill="#617c98" stroke="#617c98" stroke-width="1.8" points="1364.77,-971.97 1360.27,-962.37 1357.81,-972.68 1364.77,-971.97"/>
<text xml:space="preserve" text-anchor="middle" x="1423.55" y="-1182.05" font-family="Arial" font-size="11.00">không đáng ngại</text>
</g>
<!-- theory -->
<g id="node18" class="node">
<title>theory</title>
<path fill="#f4f7fb" stroke="#c8d8e7" d="M2051.41,-1150C2051.41,-1150 1765.88,-1150 1765.88,-1150 1759.88,-1150 1753.88,-1144 1753.88,-1138 1753.88,-1138 1753.88,-1095.6 1753.88,-1095.6 1753.88,-1089.6 1759.88,-1083.6 1765.88,-1083.6 1765.88,-1083.6 2051.41,-1083.6 2051.41,-1083.6 2057.41,-1083.6 2063.41,-1089.6 2063.41,-1095.6 2063.41,-1095.6 2063.41,-1138 2063.41,-1138 2063.41,-1144 2057.41,-1150 2051.41,-1150"/>
<text xml:space="preserve" text-anchor="start" x="1858.77" y="-1125.45" font-family="Arial" font-weight="bold" font-size="13.00">Check lý thuyết</text>
<text xml:space="preserve" text-anchor="start" x="1771.39" y="-1099.8" font-family="Arial" font-size="13.00">Không loại item nếu nó quan trọng về concept</text>
</g>
<!-- one_item&#45;&gt;theory -->
<g id="edge27" class="edge">
<title>one_item&#45;&gt;theory</title>
<path fill="none" stroke="#617c98" stroke-width="1.8" d="M1908.64,-1221.15C1908.64,-1203.67 1908.64,-1181.85 1908.64,-1162.77"/>
<polygon fill="#617c98" stroke="#617c98" stroke-width="1.8" points="1912.15,-1162.81 1908.65,-1152.81 1905.15,-1162.81 1912.15,-1162.81"/>
</g>
<!-- revise -->
<g id="node21" class="node">
<title>revise</title>
<path fill="#fdeded" stroke="#dba7a7" d="M1700.91,-1054.6C1700.91,-1054.6 1502.38,-1054.6 1502.38,-1054.6 1496.38,-1054.6 1490.38,-1048.6 1490.38,-1042.6 1490.38,-1042.6 1490.38,-1000.2 1490.38,-1000.2 1490.38,-994.2 1496.38,-988.2 1502.38,-988.2 1502.38,-988.2 1700.91,-988.2 1700.91,-988.2 1706.91,-988.2 1712.91,-994.2 1712.91,-1000.2 1712.91,-1000.2 1712.91,-1042.6 1712.91,-1042.6 1712.91,-1048.6 1706.91,-1054.6 1700.91,-1054.6"/>
<text xml:space="preserve" text-anchor="start" x="1544.64" y="-1030.05" font-family="Arial" font-weight="bold" font-size="13.00">Sửa/loại thang đo</text>
<text xml:space="preserve" text-anchor="start" x="1507.89" y="-1004.4" font-family="Arial" font-size="13.00">Nếu nhiều vấn đề nghiêm trọng</text>
</g>
<!-- many_item&#45;&gt;revise -->
<g id="edge31" class="edge">
<title>many_item&#45;&gt;revise</title>
<path fill="none" stroke="#617c98" stroke-width="1.8" d="M1588.76,-1221.05C1591.36,-1180.93 1595.79,-1112.64 1598.72,-1067.52"/>
<polygon fill="#617c98" stroke="#617c98" stroke-width="1.8" points="1602.21,-1067.81 1599.36,-1057.6 1595.22,-1067.35 1602.21,-1067.81"/>
</g>
<!-- rerun -->
<g id="node19" class="node">
<title>rerun</title>
<path fill="#ffffff" stroke="#c8d8e7" d="M2219.79,-959.2C2219.79,-959.2 1897.5,-959.2 1897.5,-959.2 1891.5,-959.2 1885.5,-953.2 1885.5,-947.2 1885.5,-947.2 1885.5,-904.8 1885.5,-904.8 1885.5,-898.8 1891.5,-892.8 1897.5,-892.8 1897.5,-892.8 2219.79,-892.8 2219.79,-892.8 2225.79,-892.8 2231.79,-898.8 2231.79,-904.8 2231.79,-904.8 2231.79,-947.2 2231.79,-947.2 2231.79,-953.2 2225.79,-959.2 2219.79,-959.2"/>
<text xml:space="preserve" text-anchor="start" x="1991.52" y="-934.65" font-family="Arial" font-weight="bold" font-size="13.00">Tinh chỉnh &amp; chạy lại</text>
<text xml:space="preserve" text-anchor="start" x="1903.02" y="-909" font-family="Arial" font-size="13.00">Lặp lại theo từng construct đến khi thang đo ổn định</text>
</g>
<!-- theory&#45;&gt;rerun -->
<g id="edge28" class="edge">
<title>theory&#45;&gt;rerun</title>
<path fill="none" stroke="#617c98" stroke-width="1.8" d="M1934.43,-1083.34C1959.44,-1051.87 1997.51,-1003.95 2024.91,-969.46"/>
<polygon fill="#617c98" stroke="#617c98" stroke-width="1.8" points="2027.52,-971.8 2031,-961.8 2022.04,-967.45 2027.52,-971.8"/>
<text xml:space="preserve" text-anchor="middle" x="2014.1" y="-1017.7" font-family="Arial" font-size="11.00">loại</text>
</g>
<!-- theory&#45;&gt;keep -->
<g id="edge29" class="edge">
<title>theory&#45;&gt;keep</title>
<path fill="none" stroke="#617c98" stroke-width="1.8" d="M1753.49,-1094.78C1622.77,-1077.07 1456.89,-1054.6 1456.89,-1054.6 1456.89,-1054.6 1418.98,-1006.34 1389.79,-969.18"/>
<polygon fill="#617c98" stroke="#617c98" stroke-width="1.8" points="1392.81,-967.37 1383.88,-961.67 1387.31,-971.7 1392.81,-967.37"/>
<text xml:space="preserve" text-anchor="middle" x="1464.77" y="-1017.7" font-family="Arial" font-size="11.00">giữ</text>
</g>
<!-- rerun&#45;&gt;alpha_pre -->
<g id="edge30" class="edge">
<title>rerun&#45;&gt;alpha_pre</title>
<path fill="none" stroke="#617c98" stroke-width="1.8" d="M2069.3,-959.46C2087.03,-1013.44 2120.64,-1115.8 2120.64,-1115.8 2120.64,-2352 2120.64,-2352 2120.64,-2352 2120.64,-2352 2011.64,-2417.4 2011.64,-2417.4 2011.64,-2417.4 1933,-2446.32 1864.29,-2471.59"/>
<polygon fill="#617c98" stroke="#617c98" stroke-width="1.8" points="1863.21,-2468.26 1855.04,-2474.99 1865.63,-2474.83 1863.21,-2468.26"/>
</g>
<!-- efa -->
<g id="node22" class="node">
<title>efa</title>
<path fill="#eef8f1" stroke="#b8d7bc" d="M1487.79,-833.8C1487.79,-833.8 1117.5,-833.8 1117.5,-833.8 1111.5,-833.8 1105.5,-827.8 1105.5,-821.8 1105.5,-821.8 1105.5,-779.4 1105.5,-779.4 1105.5,-773.4 1111.5,-767.4 1117.5,-767.4 1117.5,-767.4 1487.79,-767.4 1487.79,-767.4 1493.79,-767.4 1499.79,-773.4 1499.79,-779.4 1499.79,-779.4 1499.79,-821.8 1499.79,-821.8 1499.79,-827.8 1493.79,-833.8 1487.79,-833.8"/>
<text xml:space="preserve" text-anchor="start" x="1226.14" y="-809.25" font-family="Arial" font-weight="bold" font-size="13.00">EFA: khám phá cấu trúc</text>
<text xml:space="preserve" text-anchor="start" x="1123.02" y="-783.6" font-family="Arial" font-size="13.00">Xác định factor structure sơ bộ, xem item tải lên nhân tố nào</text>
</g>
<!-- keep&#45;&gt;efa -->
<g id="edge32" class="edge">
<title>keep&#45;&gt;efa</title>
<path fill="none" stroke="#617c98" stroke-width="1.8" d="M1342.46,-892.58C1336.18,-878.24 1328.7,-861.15 1321.93,-845.68"/>
<polygon fill="#617c98" stroke="#617c98" stroke-width="1.8" points="1325.23,-844.49 1318.02,-836.73 1318.82,-847.29 1325.23,-844.49"/>
</g>
<!-- end -->
<g id="node31" class="node">
<title>end</title>
<path fill="#ffffff" stroke="#c8d8e7" d="M1685.41,-66.4C1685.41,-66.4 1321.88,-66.4 1321.88,-66.4 1315.88,-66.4 1309.88,-60.4 1309.88,-54.4 1309.88,-54.4 1309.88,-12 1309.88,-12 1309.88,-6 1315.88,0 1321.88,0 1321.88,0 1685.41,0 1685.41,0 1691.41,0 1697.41,-6 1697.41,-12 1697.41,-12 1697.41,-54.4 1697.41,-54.4 1697.41,-60.4 1691.41,-66.4 1685.41,-66.4"/>
<text xml:space="preserve" text-anchor="start" x="1476.64" y="-41.85" font-family="Arial" font-weight="bold" font-size="13.00">Kết thúc</text>
<text xml:space="preserve" text-anchor="start" x="1327.39" y="-16.2" font-family="Arial" font-size="13.00">Chốt quyết định cho từng construct và giải thích rõ lập luận</text>
</g>
<!-- revise&#45;&gt;end -->
<g id="edge39" class="edge">
<title>revise&#45;&gt;end</title>
<path fill="none" stroke="#617c98" stroke-width="1.8" d="M1604.75,-987.95C1609.15,-942.08 1616.64,-863.8 1616.64,-863.8 1616.64,-863.8 1616.64,-863.8 1616.64,-165.1 1616.64,-165.1 1573.04,-114.59 1540.01,-76.32"/>
<polygon fill="#617c98" stroke="#617c98" stroke-width="1.8" points="1542.83,-74.24 1533.65,-68.96 1537.53,-78.81 1542.83,-74.24"/>
</g>
<!-- efa_refine -->
<g id="node23" class="node">
<title>efa_refine</title>
<path fill="#ffffff" stroke="#c8d8e7" d="M1496.29,-708.4C1496.29,-708.4 1081,-708.4 1081,-708.4 1075,-708.4 1069,-702.4 1069,-696.4 1069,-696.4 1069,-654 1069,-654 1069,-648 1075,-642 1081,-642 1081,-642 1496.29,-642 1496.29,-642 1502.29,-642 1508.29,-648 1508.29,-654 1508.29,-654 1508.29,-696.4 1508.29,-696.4 1508.29,-702.4 1502.29,-708.4 1496.29,-708.4"/>
<text xml:space="preserve" text-anchor="start" x="1225.64" y="-683.85" font-family="Arial" font-weight="bold" font-size="13.00">Hiệu chỉnh sau EFA</text>
<text xml:space="preserve" text-anchor="start" x="1086.52" y="-658.2" font-family="Arial" font-size="13.00">Loại/chuyển item nếu loading kém, cross&#45;loading hoặc lệch cấu trúc</text>
</g>
<!-- efa&#45;&gt;efa_refine -->
<g id="edge33" class="edge">
<title>efa&#45;&gt;efa_refine</title>
<path fill="none" stroke="#617c98" stroke-width="1.8" d="M1298.97,-767.18C1297.37,-753.12 1295.48,-736.42 1293.75,-721.19"/>
<polygon fill="#617c98" stroke="#617c98" stroke-width="1.8" points="1297.26,-721.08 1292.65,-711.54 1290.3,-721.87 1297.26,-721.08"/>
</g>
<!-- post_reliability -->
<g id="node24" class="node">
<title>post_reliability</title>
<path fill="#eef8f1" stroke="#b8d7bc" d="M1475.66,-583C1475.66,-583 1095.62,-583 1095.62,-583 1089.62,-583 1083.62,-577 1083.62,-571 1083.62,-571 1083.62,-528.6 1083.62,-528.6 1083.62,-522.6 1089.62,-516.6 1095.62,-516.6 1095.62,-516.6 1475.66,-516.6 1475.66,-516.6 1481.66,-516.6 1487.66,-522.6 1487.66,-528.6 1487.66,-528.6 1487.66,-571 1487.66,-571 1487.66,-577 1481.66,-583 1475.66,-583"/>
<text xml:space="preserve" text-anchor="start" x="1230.52" y="-558.45" font-family="Arial" font-weight="bold" font-size="13.00">Tính lại reliability</text>
<text xml:space="preserve" text-anchor="start" x="1101.14" y="-532.8" font-family="Arial" font-size="13.00">Chạy lại Alpha cho các thang đo sau khi đã hiệu chỉnh từ EFA</text>
</g>
<!-- efa_refine&#45;&gt;post_reliability -->
<g id="edge34" class="edge">
<title>efa_refine&#45;&gt;post_reliability</title>
<path fill="none" stroke="#617c98" stroke-width="1.8" d="M1287.86,-641.78C1287.52,-627.72 1287.11,-611.02 1286.74,-595.79"/>
<polygon fill="#617c98" stroke="#617c98" stroke-width="1.8" points="1290.25,-596.07 1286.5,-586.16 1283.25,-596.24 1290.25,-596.07"/>
</g>
<!-- cfa -->
<g id="node25" class="node">
<title>cfa</title>
<path fill="#eef8f1" stroke="#b8d7bc" d="M1515.16,-457.6C1515.16,-457.6 1054.12,-457.6 1054.12,-457.6 1048.12,-457.6 1042.12,-451.6 1042.12,-445.6 1042.12,-445.6 1042.12,-403.2 1042.12,-403.2 1042.12,-397.2 1048.12,-391.2 1054.12,-391.2 1054.12,-391.2 1515.16,-391.2 1515.16,-391.2 1521.16,-391.2 1527.16,-397.2 1527.16,-403.2 1527.16,-403.2 1527.16,-445.6 1527.16,-445.6 1527.16,-451.6 1521.16,-457.6 1515.16,-457.6"/>
<text xml:space="preserve" text-anchor="start" x="1178.52" y="-433.05" font-family="Arial" font-weight="bold" font-size="13.00">CFA: xác nhận mô hình đo lường</text>
<text xml:space="preserve" text-anchor="start" x="1059.64" y="-407.4" font-family="Arial" font-size="13.00">Kiểm định measurement model, convergent/discriminant validity và model fit</text>
</g>
<!-- post_reliability&#45;&gt;cfa -->
<g id="edge35" class="edge">
<title>post_reliability&#45;&gt;cfa</title>
<path fill="none" stroke="#617c98" stroke-width="1.8" d="M1285.38,-516.38C1285.27,-502.32 1285.13,-485.62 1285.01,-470.39"/>
<polygon fill="#617c98" stroke="#617c98" stroke-width="1.8" points="1288.51,-470.73 1284.93,-460.76 1281.51,-470.79 1288.51,-470.73"/>
</g>
<!-- next_step -->
<g id="node26" class="node">
<title>next_step</title>
<path fill="#eef8f1" stroke="#b8d7bc" d="M1549.66,-332.2C1549.66,-332.2 1019.62,-332.2 1019.62,-332.2 1013.62,-332.2 1007.62,-326.2 1007.62,-320.2 1007.62,-320.2 1007.62,-277.8 1007.62,-277.8 1007.62,-271.8 1013.62,-265.8 1019.62,-265.8 1019.62,-265.8 1549.66,-265.8 1549.66,-265.8 1555.66,-265.8 1561.66,-271.8 1561.66,-277.8 1561.66,-277.8 1561.66,-320.2 1561.66,-320.2 1561.66,-326.2 1555.66,-332.2 1549.66,-332.2"/>
<text xml:space="preserve" text-anchor="start" x="1236.64" y="-307.65" font-family="Arial" font-weight="bold" font-size="13.00">Bước tiếp theo</text>
<text xml:space="preserve" text-anchor="start" x="1025.14" y="-282" font-family="Arial" font-size="13.00">Chỉ sang SEM / kiểm định giả thuyết khi CFA cho thấy measurement model đạt yêu cầu</text>
</g>
<!-- cfa&#45;&gt;next_step -->
<g id="edge36" class="edge">
<title>cfa&#45;&gt;next_step</title>
<path fill="none" stroke="#617c98" stroke-width="1.8" d="M1284.64,-390.98C1284.64,-376.92 1284.64,-360.22 1284.64,-344.99"/>
<polygon fill="#617c98" stroke="#617c98" stroke-width="1.8" points="1288.15,-345.36 1284.65,-335.36 1281.15,-345.36 1288.15,-345.36"/>
</g>
<!-- note -->
<g id="node28" class="node">
<title>note</title>
<polygon fill="#fffdf5" stroke="#e7d9a8" points="1529.54,-206.8 1193.75,-206.8 1193.75,-125.4 1535.54,-125.4 1535.54,-200.8 1529.54,-206.8"/>
<polyline fill="none" stroke="#e7d9a8" points="1529.54,-206.8 1529.54,-200.8"/>
<polyline fill="none" stroke="#e7d9a8" points="1535.54,-200.8 1529.54,-200.8"/>
<text xml:space="preserve" text-anchor="start" x="1313.64" y="-182.25" font-family="Arial" font-weight="bold" font-size="13.00">Lưu ý học thuật</text>
<text xml:space="preserve" text-anchor="start" x="1211.27" y="-156.6" font-family="Arial" font-size="13.00">Cronbach&#39;s Alpha không kiểm tra unidimensionality;</text>
<text xml:space="preserve" text-anchor="start" x="1213.89" y="-141.6" font-family="Arial" font-size="13.00">alpha cao cũng không tự động chứng minh validity</text>
</g>
<!-- next_step&#45;&gt;note -->
<g id="edge37" class="edge">
<title>next_step&#45;&gt;note</title>
<path fill="none" stroke="#617c98" stroke-width="1.8" d="M1304.63,-265.31C1313.43,-250.91 1323.97,-233.66 1333.74,-217.67"/>
<polygon fill="#617c98" stroke="#617c98" stroke-width="1.8" points="1336.71,-219.53 1338.93,-209.17 1330.73,-215.88 1336.71,-219.53"/>
</g>
<!-- note&#45;&gt;end -->
<g id="edge38" class="edge">
<title>note&#45;&gt;end</title>
<path fill="none" stroke="#617c98" stroke-width="1.8" d="M1407.1,-125.11C1423.95,-109.25 1443.3,-91.03 1460.23,-75.08"/>
<polygon fill="#617c98" stroke="#617c98" stroke-width="1.8" points="1462.49,-77.76 1467.37,-68.36 1457.7,-72.66 1462.49,-77.76"/>
</g>
</g>
</svg>
