<?xml version="1.0" encoding="UTF-8" standalone="no"?>
<!DOCTYPE svg PUBLIC "-//W3C//DTD SVG 1.1//EN"
 "http://www.w3.org/Graphics/SVG/1.1/DTD/svg11.dtd">
<!-- Generated by graphviz version 14.1.5 (20260411.2331)
 -->
<!-- Title: cronbach_alpha_flow_final Pages: 1 -->
<svg width="2283pt" height="3278pt"
 viewBox="0.00 0.00 2283.00 3278.00" xmlns="http://www.w3.org/2000/svg" xmlns:xlink="http://www.w3.org/1999/xlink">
<g id="graph0" class="graph" transform="scale(1 1) rotate(0) translate(28.8 3249.1)">
<title>cronbach_alpha_flow_final</title>
<polygon fill="#f6f8fb" stroke="none" points="-28.8,28.8 -28.8,-3249.1 2254.59,-3249.1 2254.59,28.8 -28.8,28.8"/>
<text xml:space="preserve" text-anchor="start" x="802.02" y="-3190.7" font-family="Arial" font-weight="bold" font-size="28.00">Flow Đọc Cronbach&#39;s Alpha (Digital Marketing)</text>
<text xml:space="preserve" text-anchor="start" x="961.77" y="-3174.1" font-family="Arial" font-size="16.00">Kết hợp logic thống kê + lập luận lý thuyết</text>
<!-- start -->
<g id="node1" class="node">
<title>start</title>
<path fill="#ffffff" stroke="#c8d8e7" d="M1964.91,-3168.3C1964.91,-3168.3 1676.38,-3168.3 1676.38,-3168.3 1670.38,-3168.3 1664.38,-3162.3 1664.38,-3156.3 1664.38,-3156.3 1664.38,-3113.9 1664.38,-3113.9 1664.38,-3107.9 1670.38,-3101.9 1676.38,-3101.9 1676.38,-3101.9 1964.91,-3101.9 1964.91,-3101.9 1970.91,-3101.9 1976.91,-3107.9 1976.91,-3113.9 1976.91,-3113.9 1976.91,-3156.3 1976.91,-3156.3 1976.91,-3162.3 1970.91,-3168.3 1964.91,-3168.3"/>
<text xml:space="preserve" text-anchor="start" x="1795.89" y="-3143.75" font-family="Arial" font-weight="bold" font-size="13.00">Bắt đầu</text>
<text xml:space="preserve" text-anchor="start" x="1681.89" y="-3118.1" font-family="Arial" font-size="13.00">Chuẩn bị đánh giá độ tin cậy cho các thang đo</text>
</g>
<!-- group -->
<g id="node2" class="node">
<title>group</title>
<path fill="#f4f7fb" stroke="#c8d8e7" d="M1994.54,-3042.9C1994.54,-3042.9 1646.75,-3042.9 1646.75,-3042.9 1640.75,-3042.9 1634.75,-3036.9 1634.75,-3030.9 1634.75,-3030.9 1634.75,-2973.5 1634.75,-2973.5 1634.75,-2967.5 1640.75,-2961.5 1646.75,-2961.5 1646.75,-2961.5 1994.54,-2961.5 1994.54,-2961.5 2000.54,-2961.5 2006.54,-2967.5 2006.54,-2973.5 2006.54,-2973.5 2006.54,-3030.9 2006.54,-3030.9 2006.54,-3036.9 2000.54,-3042.9 1994.54,-3042.9"/>
<text xml:space="preserve" text-anchor="start" x="1737.77" y="-3018.35" font-family="Arial" font-weight="bold" font-size="13.00">Nhóm item theo construct</text>
<text xml:space="preserve" text-anchor="start" x="1652.27" y="-2992.7" font-family="Arial" font-size="13.00">Dựa trên lý thuyết: Urgency, Enjoyment, Impulse Buying,</text>
<text xml:space="preserve" text-anchor="start" x="1737.02" y="-2977.7" font-family="Arial" font-size="13.00">Time/Qty/Voucher Scarcity...</text>
</g>
<!-- start&#45;&gt;group -->
<g id="edge1" class="edge">
<title>start&#45;&gt;group</title>
<path fill="none" stroke="#617c98" stroke-width="1.8" d="M1820.64,-3101.41C1820.64,-3087.56 1820.64,-3071.08 1820.64,-3055.62"/>
<polygon fill="#617c98" stroke="#617c98" stroke-width="1.8" points="1824.15,-3055.67 1820.65,-3045.67 1817.15,-3055.67 1824.15,-3055.67"/>
</g>
<!-- reverse_q -->
<g id="node3" class="node">
<title>reverse_q</title>
<polygon fill="#fff4d8" stroke="#e7c76a" points="1820.64,-2902.5 1479.61,-2836.1 1820.64,-2769.7 2161.68,-2836.1 1820.64,-2902.5"/>
<text xml:space="preserve" text-anchor="start" x="1790.27" y="-2844.75" font-family="Arial" font-weight="bold" font-size="13.00">Câu hỏi 0</text>
<text xml:space="preserve" text-anchor="start" x="1667.64" y="-2819.1" font-family="Arial" font-size="13.00">Có item đảo chiều không và đã recode đúng chưa?</text>
</g>
<!-- group&#45;&gt;reverse_q -->
<g id="edge2" class="edge">
<title>group&#45;&gt;reverse_q</title>
<path fill="none" stroke="#617c98" stroke-width="1.8" d="M1820.64,-2961.06C1820.64,-2947.21 1820.64,-2931.18 1820.64,-2915.34"/>
<polygon fill="#617c98" stroke="#617c98" stroke-width="1.8" points="1824.15,-2915.44 1820.65,-2905.44 1817.15,-2915.44 1824.15,-2915.44"/>
</g>
<!-- recode -->
<g id="node4" class="node">
<title>recode</title>
<path fill="#fff1ee" stroke="#deb0a8" d="M1849.04,-2698.2C1849.04,-2698.2 1570.25,-2698.2 1570.25,-2698.2 1564.25,-2698.2 1558.25,-2692.2 1558.25,-2686.2 1558.25,-2686.2 1558.25,-2643.8 1558.25,-2643.8 1558.25,-2637.8 1564.25,-2631.8 1570.25,-2631.8 1570.25,-2631.8 1849.04,-2631.8 1849.04,-2631.8 1855.04,-2631.8 1861.04,-2637.8 1861.04,-2643.8 1861.04,-2643.8 1861.04,-2686.2 1861.04,-2686.2 1861.04,-2692.2 1855.04,-2698.2 1849.04,-2698.2"/>
<text xml:space="preserve" text-anchor="start" x="1665.39" y="-2673.65" font-family="Arial" font-weight="bold" font-size="13.00">Recode trước</text>
<text xml:space="preserve" text-anchor="start" x="1575.77" y="-2648" font-family="Arial" font-size="13.00">Cần xử lý item đảo chiều trước khi đọc alpha</text>
</g>
<!-- reverse_q&#45;&gt;recode -->
<g id="edge3" class="edge">
<title>reverse_q&#45;&gt;recode</title>
<path fill="none" stroke="#617c98" stroke-width="1.8" d="M1782.45,-2776.91C1767.88,-2754.72 1751.55,-2729.84 1738.05,-2709.27"/>
<polygon fill="#617c98" stroke="#617c98" stroke-width="1.8" points="1740.98,-2707.36 1732.57,-2700.92 1735.13,-2711.2 1740.98,-2707.36"/>
<text xml:space="preserve" text-anchor="middle" x="1770.87" y="-2730.25" font-family="Arial" font-size="11.00">chưa</text>
</g>
<!-- alpha_pre -->
<g id="node5" class="node">
<title>alpha_pre</title>
<path fill="#ffffff" stroke="#c8d8e7" d="M2010.29,-2572.8C2010.29,-2572.8 1631,-2572.8 1631,-2572.8 1625,-2572.8 1619,-2566.8 1619,-2560.8 1619,-2560.8 1619,-2518.4 1619,-2518.4 1619,-2512.4 1625,-2506.4 1631,-2506.4 1631,-2506.4 2010.29,-2506.4 2010.29,-2506.4 2016.29,-2506.4 2022.29,-2512.4 2022.29,-2518.4 2022.29,-2518.4 2022.29,-2560.8 2022.29,-2560.8 2022.29,-2566.8 2016.29,-2572.8 2010.29,-2572.8"/>
<text xml:space="preserve" text-anchor="start" x="1743.39" y="-2548.25" font-family="Arial" font-weight="bold" font-size="13.00">Cronbach&#39;s Alpha sơ bộ</text>
<text xml:space="preserve" text-anchor="start" x="1636.52" y="-2522.6" font-family="Arial" font-size="13.00">Chạy riêng cho từng construct như kiểm tra reliability ban đầu</text>
</g>
<!-- reverse_q&#45;&gt;alpha_pre -->
<g id="edge4" class="edge">
<title>reverse_q&#45;&gt;alpha_pre</title>
<path fill="none" stroke="#617c98" stroke-width="1.8" d="M1846.42,-2774.26C1861.91,-2737.69 1878.64,-2698.2 1878.64,-2698.2 1878.64,-2698.2 1878.64,-2631.8 1878.64,-2631.8 1878.64,-2631.8 1863.17,-2607.46 1848.2,-2583.93"/>
<polygon fill="#617c98" stroke="#617c98" stroke-width="1.8" points="1851.2,-2582.13 1842.88,-2575.57 1845.3,-2585.88 1851.2,-2582.13"/>
<text xml:space="preserve" text-anchor="middle" x="1897.77" y="-2661.3" font-family="Arial" font-size="11.00">đã xử lý</text>
</g>
<!-- recode&#45;&gt;alpha_pre -->
<g id="edge5" class="edge">
<title>recode&#45;&gt;alpha_pre</title>
<path fill="none" stroke="#617c98" stroke-width="1.8" d="M1738.81,-2631.58C1752.34,-2616.54 1768.59,-2598.47 1783.03,-2582.42"/>
<polygon fill="#617c98" stroke="#617c98" stroke-width="1.8" points="1785.38,-2585.03 1789.47,-2575.26 1780.18,-2580.35 1785.38,-2585.03"/>
</g>
<!-- alpha_q -->
<g id="node6" class="node">
<title>alpha_q</title>
<polygon fill="#fff4d8" stroke="#e7c76a" points="1208.64,-2447.4 899.11,-2381 1208.64,-2314.6 1518.18,-2381 1208.64,-2447.4"/>
<text xml:space="preserve" text-anchor="start" x="1178.27" y="-2389.65" font-family="Arial" font-weight="bold" font-size="13.00">Câu hỏi 1</text>
<text xml:space="preserve" text-anchor="start" x="1071.39" y="-2364" font-family="Arial" font-size="13.00">Alpha sơ bộ của construct đang gợi ý điều gì?</text>
</g>
<!-- alpha_pre&#45;&gt;alpha_q -->
<g id="edge6" class="edge">
<title>alpha_pre&#45;&gt;alpha_q</title>
<path fill="none" stroke="#617c98" stroke-width="1.8" d="M1693.09,-2505.96C1596.4,-2481.22 1463.16,-2447.13 1360.88,-2420.95"/>
<polygon fill="#617c98" stroke="#617c98" stroke-width="1.8" points="1361.76,-2417.57 1351.21,-2418.48 1360.03,-2424.35 1361.76,-2417.57"/>
</g>
<!-- prelim_note -->
<g id="node27" class="node">
<title>prelim_note</title>
<polygon fill="#fffdf5" stroke="#e7d9a8" points="2044.41,-2414.2 1590.88,-2414.2 1590.88,-2347.8 2050.41,-2347.8 2050.41,-2408.2 2044.41,-2414.2"/>
<polyline fill="none" stroke="#e7d9a8" points="2044.41,-2414.2 2044.41,-2408.2"/>
<polyline fill="none" stroke="#e7d9a8" points="2050.41,-2408.2 2044.41,-2408.2"/>
<text xml:space="preserve" text-anchor="start" x="1769.64" y="-2389.65" font-family="Arial" font-weight="bold" font-size="13.00">Lưu ý học thuật</text>
<text xml:space="preserve" text-anchor="start" x="1608.39" y="-2364" font-family="Arial" font-size="13.00">Nếu đặt Alpha trước EFA, phải nói rõ đây là preliminary reliability check</text>
</g>
<!-- alpha_pre&#45;&gt;prelim_note -->
<g id="edge15" class="edge">
<title>alpha_pre&#45;&gt;prelim_note</title>
<path fill="none" stroke="#617c98" stroke-width="1.8" stroke-dasharray="5,2" d="M1820.64,-2506.15C1820.64,-2483.34 1820.64,-2452.51 1820.64,-2427.29"/>
<polygon fill="#617c98" stroke="#617c98" stroke-width="1.8" points="1824.15,-2427.4 1820.65,-2417.4 1817.15,-2427.4 1824.15,-2427.4"/>
</g>
<!-- alpha_low -->
<g id="node7" class="node">
<title>alpha_low</title>
<path fill="#fdeded" stroke="#dba7a7" d="M2056.29,-2235.6C2056.29,-2235.6 1743,-2235.6 1743,-2235.6 1737,-2235.6 1731,-2229.6 1731,-2223.6 1731,-2223.6 1731,-2181.2 1731,-2181.2 1731,-2175.2 1737,-2169.2 1743,-2169.2 1743,-2169.2 2056.29,-2169.2 2056.29,-2169.2 2062.29,-2169.2 2068.29,-2175.2 2068.29,-2181.2 2068.29,-2181.2 2068.29,-2223.6 2068.29,-2223.6 2068.29,-2229.6 2062.29,-2235.6 2056.29,-2235.6"/>
<text xml:space="preserve" text-anchor="start" x="1864.77" y="-2211.05" font-family="Arial" font-weight="bold" font-size="13.00">Alpha thấp</text>
<text xml:space="preserve" text-anchor="start" x="1748.52" y="-2185.4" font-family="Arial" font-size="13.00">alpha &lt; 0.60 thường gợi ý internal consistency yếu</text>
</g>
<!-- alpha_q&#45;&gt;alpha_low -->
<g id="edge7" class="edge">
<title>alpha_q&#45;&gt;alpha_low</title>
<path fill="none" stroke="#617c98" stroke-width="1.8" d="M1348.48,-2344.26C1468.29,-2313.64 1639.99,-2269.76 1759.8,-2239.14"/>
<polygon fill="#617c98" stroke="#617c98" stroke-width="1.8" points="1760.5,-2242.57 1769.32,-2236.71 1758.76,-2235.79 1760.5,-2242.57"/>
<text xml:space="preserve" text-anchor="middle" x="1629.91" y="-2275.15" font-family="Arial" font-size="11.00">&lt;0.60</text>
</g>
<!-- alpha_mid -->
<g id="node8" class="node">
<title>alpha_mid</title>
<path fill="#fff9ec" stroke="#e7c76a" d="M403.29,-2235.6C403.29,-2235.6 12,-2235.6 12,-2235.6 6,-2235.6 0,-2229.6 0,-2223.6 0,-2223.6 0,-2181.2 0,-2181.2 0,-2175.2 6,-2169.2 12,-2169.2 12,-2169.2 403.29,-2169.2 403.29,-2169.2 409.29,-2169.2 415.29,-2175.2 415.29,-2181.2 415.29,-2181.2 415.29,-2223.6 415.29,-2223.6 415.29,-2229.6 409.29,-2235.6 403.29,-2235.6"/>
<text xml:space="preserve" text-anchor="start" x="141.64" y="-2211.05" font-family="Arial" font-weight="bold" font-size="13.00">Alpha mức cân nhắc</text>
<text xml:space="preserve" text-anchor="start" x="17.52" y="-2185.4" font-family="Arial" font-size="13.00">0.60–0.70 có thể chấp nhận ở giai đoạn khám phá, tùy bối cảnh</text>
</g>
<!-- alpha_q&#45;&gt;alpha_mid -->
<g id="edge8" class="edge">
<title>alpha_q&#45;&gt;alpha_mid</title>
<path fill="none" stroke="#617c98" stroke-width="1.8" d="M1040.26,-2350.29C812.04,-2310.03 432.64,-2243.1 432.64,-2243.1 432.64,-2243.1 422.01,-2241.22 405.36,-2238.29"/>
<polygon fill="#617c98" stroke="#617c98" stroke-width="1.8" points="406.08,-2234.86 395.62,-2236.57 404.86,-2241.75 406.08,-2234.86"/>
<text xml:space="preserve" text-anchor="middle" x="685.94" y="-2275.15" font-family="Arial" font-size="11.00">0.60–0.70</text>
</g>
<!-- alpha_good -->
<g id="node9" class="node">
<title>alpha_good</title>
<path fill="#eef8f1" stroke="#b8d7bc" d="M952.41,-2243.1C952.41,-2243.1 462.88,-2243.1 462.88,-2243.1 456.88,-2243.1 450.88,-2237.1 450.88,-2231.1 450.88,-2231.1 450.88,-2173.7 450.88,-2173.7 450.88,-2167.7 456.88,-2161.7 462.88,-2161.7 462.88,-2161.7 952.41,-2161.7 952.41,-2161.7 958.41,-2161.7 964.41,-2167.7 964.41,-2173.7 964.41,-2173.7 964.41,-2231.1 964.41,-2231.1 964.41,-2237.1 958.41,-2243.1 952.41,-2243.1"/>
<text xml:space="preserve" text-anchor="start" x="634.14" y="-2218.55" font-family="Arial" font-weight="bold" font-size="13.00">Alpha chấp nhận được</text>
<text xml:space="preserve" text-anchor="start" x="633.77" y="-2192.9" font-family="Arial" font-size="13.00">Có thể chấp nhận sơ bộ;</text>
<text xml:space="preserve" text-anchor="start" x="468.39" y="-2177.9" font-family="Arial" font-size="13.00">0.70 thường đủ cho exploratory, 0.80+ thường thuyết phục hơn cho confirmatory</text>
</g>
<!-- alpha_q&#45;&gt;alpha_good -->
<g id="edge9" class="edge">
<title>alpha_q&#45;&gt;alpha_good</title>
<path fill="none" stroke="#617c98" stroke-width="1.8" d="M1092.45,-2339.04C1014.75,-2311.65 912.58,-2275.64 833.05,-2247.6"/>
<polygon fill="#617c98" stroke="#617c98" stroke-width="1.8" points="834.65,-2244.46 824.06,-2244.43 832.32,-2251.06 834.65,-2244.46"/>
<text xml:space="preserve" text-anchor="middle" x="952.15" y="-2275.15" font-family="Arial" font-size="11.00">0.70–0.95</text>
</g>
<!-- alpha_high -->
<g id="node10" class="node">
<title>alpha_high</title>
<path fill="#eef2ff" stroke="#b7c8e6" d="M1366.91,-2243.1C1366.91,-2243.1 1012.38,-2243.1 1012.38,-2243.1 1006.38,-2243.1 1000.38,-2237.1 1000.38,-2231.1 1000.38,-2231.1 1000.38,-2173.7 1000.38,-2173.7 1000.38,-2167.7 1006.38,-2161.7 1012.38,-2161.7 1012.38,-2161.7 1366.91,-2161.7 1366.91,-2161.7 1372.91,-2161.7 1378.91,-2167.7 1378.91,-2173.7 1378.91,-2173.7 1378.91,-2231.1 1378.91,-2231.1 1378.91,-2237.1 1372.91,-2243.1 1366.91,-2243.1"/>
<text xml:space="preserve" text-anchor="start" x="1146.89" y="-2218.55" font-family="Arial" font-weight="bold" font-size="13.00">Alpha rất cao</text>
<text xml:space="preserve" text-anchor="start" x="1017.89" y="-2192.9" font-family="Arial" font-size="13.00">&gt; 0.95 có thể gợi ý item trùng lặp hoặc construct quá hẹp,</text>
<text xml:space="preserve" text-anchor="start" x="1050.14" y="-2177.9" font-family="Arial" font-size="13.00">nhưng cần kiểm tra nội dung trước khi kết luận</text>
</g>
<!-- alpha_q&#45;&gt;alpha_high -->
<g id="edge10" class="edge">
<title>alpha_q&#45;&gt;alpha_high</title>
<path fill="none" stroke="#617c98" stroke-width="1.8" d="M1201.73,-2315.74C1199.62,-2296.11 1197.32,-2274.76 1195.3,-2256"/>
<polygon fill="#617c98" stroke="#617c98" stroke-width="1.8" points="1198.8,-2255.75 1194.25,-2246.19 1191.84,-2256.5 1198.8,-2255.75"/>
<text xml:space="preserve" text-anchor="middle" x="1211.88" y="-2275.15" font-family="Arial" font-size="11.00">&gt;0.95</text>
</g>
<!-- alpha_item_note -->
<g id="node30" class="node">
<title>alpha_item_note</title>
<polygon fill="#fffdf5" stroke="#e7d9a8" points="1688.79,-2243.1 1414.5,-2243.1 1414.5,-2161.7 1694.79,-2161.7 1694.79,-2237.1 1688.79,-2243.1"/>
<polyline fill="none" stroke="#e7d9a8" points="1688.79,-2243.1 1688.79,-2237.1"/>
<polyline fill="none" stroke="#e7d9a8" points="1694.79,-2237.1 1688.79,-2237.1"/>
<text xml:space="preserve" text-anchor="start" x="1503.64" y="-2218.55" font-family="Arial" font-weight="bold" font-size="13.00">Lưu ý học thuật</text>
<text xml:space="preserve" text-anchor="start" x="1432.02" y="-2192.9" font-family="Arial" font-size="13.00">Alpha có thể tăng khi số lượng item tăng,</text>
<text xml:space="preserve" text-anchor="start" x="1454.14" y="-2177.9" font-family="Arial" font-size="13.00">không chỉ do chất lượng thang đo</text>
</g>
<!-- alpha_q&#45;&gt;alpha_item_note -->
<g id="edge18" class="edge">
<title>alpha_q&#45;&gt;alpha_item_note</title>
<path fill="none" stroke="#617c98" stroke-width="1.8" stroke-dasharray="5,2" d="M1299.55,-2333.6C1350.56,-2307.57 1413.95,-2275.21 1464.78,-2249.27"/>
<polygon fill="#617c98" stroke="#617c98" stroke-width="1.8" points="1466.35,-2252.4 1473.67,-2244.73 1463.17,-2246.16 1466.35,-2252.4"/>
</g>
<!-- review -->
<g id="node11" class="node">
<title>review</title>
<path fill="#ffffff" stroke="#c8d8e7" d="M901.29,-2095.2C901.29,-2095.2 612,-2095.2 612,-2095.2 606,-2095.2 600,-2089.2 600,-2083.2 600,-2083.2 600,-2040.8 600,-2040.8 600,-2034.8 606,-2028.8 612,-2028.8 612,-2028.8 901.29,-2028.8 901.29,-2028.8 907.29,-2028.8 913.29,-2034.8 913.29,-2040.8 913.29,-2040.8 913.29,-2083.2 913.29,-2083.2 913.29,-2089.2 907.29,-2095.2 901.29,-2095.2"/>
<text xml:space="preserve" text-anchor="start" x="698.14" y="-2070.65" font-family="Arial" font-weight="bold" font-size="13.00">Đọc nội dung item</text>
<text xml:space="preserve" text-anchor="start" x="617.52" y="-2045" font-family="Arial" font-size="13.00">Kiểm tra ý nghĩa, wording, trùng lặp, đảo chiều</text>
</g>
<!-- alpha_low&#45;&gt;review -->
<g id="edge11" class="edge">
<title>alpha_low&#45;&gt;review</title>
<path fill="none" stroke="#617c98" stroke-width="1.8" d="M1745.65,-2168.71C1726.03,-2164.54 1712.64,-2161.7 1712.64,-2161.7 1712.64,-2161.7 931.64,-2102.7 931.64,-2102.7 931.64,-2102.7 924.45,-2101.07 912.98,-2098.46"/>
<polygon fill="#617c98" stroke="#617c98" stroke-width="1.8" points="913.94,-2095.1 903.42,-2096.3 912.4,-2101.92 913.94,-2095.1"/>
</g>
<!-- sample_note -->
<g id="node31" class="node">
<title>sample_note</title>
<polygon fill="#fffdf5" stroke="#e7d9a8" points="2057.41,-2102.7 1735.88,-2102.7 1735.88,-2021.3 2063.41,-2021.3 2063.41,-2096.7 2057.41,-2102.7"/>
<polyline fill="none" stroke="#e7d9a8" points="2057.41,-2102.7 2057.41,-2096.7"/>
<polyline fill="none" stroke="#e7d9a8" points="2063.41,-2096.7 2057.41,-2096.7"/>
<text xml:space="preserve" text-anchor="start" x="1848.64" y="-2078.15" font-family="Arial" font-weight="bold" font-size="13.00">Lưu ý học thuật</text>
<text xml:space="preserve" text-anchor="start" x="1753.39" y="-2052.5" font-family="Arial" font-size="13.00">Alpha thấp cũng có thể liên quan đến data noise,</text>
<text xml:space="preserve" text-anchor="start" x="1784.89" y="-2037.5" font-family="Arial" font-size="13.00">chất lượng dữ liệu hoặc đặc điểm mẫu</text>
</g>
<!-- alpha_low&#45;&gt;sample_note -->
<g id="edge19" class="edge">
<title>alpha_low&#45;&gt;sample_note</title>
<path fill="none" stroke="#617c98" stroke-width="1.8" stroke-dasharray="5,2" d="M1899.64,-2168.95C1899.64,-2153.14 1899.64,-2133.71 1899.64,-2115.83"/>
<polygon fill="#617c98" stroke="#617c98" stroke-width="1.8" points="1903.15,-2115.89 1899.65,-2105.89 1896.15,-2115.89 1903.15,-2115.89"/>
</g>
<!-- alpha_mid&#45;&gt;review -->
<g id="edge12" class="edge">
<title>alpha_mid&#45;&gt;review</title>
<path fill="none" stroke="#617c98" stroke-width="1.8" d="M337.06,-2168.78C420.53,-2147.73 529.13,-2120.35 614.93,-2098.72"/>
<polygon fill="#617c98" stroke="#617c98" stroke-width="1.8" points="615.67,-2102.15 624.51,-2096.31 613.96,-2095.36 615.67,-2102.15"/>
</g>
<!-- alpha_good&#45;&gt;review -->
<g id="edge13" class="edge">
<title>alpha_good&#45;&gt;review</title>
<path fill="none" stroke="#617c98" stroke-width="1.8" d="M721.82,-2161.37C727.81,-2144.46 734.8,-2124.7 740.94,-2107.34"/>
<polygon fill="#617c98" stroke="#617c98" stroke-width="1.8" points="744.19,-2108.66 744.23,-2098.06 737.59,-2106.32 744.19,-2108.66"/>
</g>
<!-- threshold_note -->
<g id="node29" class="node">
<title>threshold_note</title>
<polygon fill="#fffdf5" stroke="#e7d9a8" points="1423.54,-2095.2 949.75,-2095.2 949.75,-2028.8 1429.54,-2028.8 1429.54,-2089.2 1423.54,-2095.2"/>
<polyline fill="none" stroke="#e7d9a8" points="1423.54,-2095.2 1423.54,-2089.2"/>
<polyline fill="none" stroke="#e7d9a8" points="1429.54,-2089.2 1423.54,-2089.2"/>
<text xml:space="preserve" text-anchor="start" x="1133.77" y="-2070.65" font-family="Arial" font-weight="bold" font-size="13.00">Diễn giải ngưỡng</text>
<text xml:space="preserve" text-anchor="start" x="967.27" y="-2045" font-family="Arial" font-size="13.00">Thresholds là context&#45;dependent và nên đọc cùng theory + research stage</text>
</g>
<!-- alpha_good&#45;&gt;threshold_note -->
<g id="edge16" class="edge">
<title>alpha_good&#45;&gt;threshold_note</title>
<path fill="none" stroke="#617c98" stroke-width="1.8" stroke-dasharray="5,2" d="M847.38,-2161.28C915.69,-2141.66 997.26,-2118.24 1063.63,-2099.18"/>
<polygon fill="#617c98" stroke="#617c98" stroke-width="1.8" points="1064.58,-2102.55 1073.22,-2096.43 1062.64,-2095.83 1064.58,-2102.55"/>
</g>
<!-- alpha_high&#45;&gt;review -->
<g id="edge14" class="edge">
<title>alpha_high&#45;&gt;review</title>
<path fill="none" stroke="#617c98" stroke-width="1.8" d="M1064.11,-2161.28C1003.13,-2141.79 930.39,-2118.53 870.96,-2099.54"/>
<polygon fill="#617c98" stroke="#617c98" stroke-width="1.8" points="872.07,-2096.22 861.48,-2096.51 869.94,-2102.89 872.07,-2096.22"/>
</g>
<!-- alpha_high&#45;&gt;threshold_note -->
<g id="edge17" class="edge">
<title>alpha_high&#45;&gt;threshold_note</title>
<path fill="none" stroke="#617c98" stroke-width="1.8" stroke-dasharray="5,2" d="M1189.64,-2161.37C1189.64,-2144.7 1189.64,-2125.27 1189.64,-2108.1"/>
<polygon fill="#617c98" stroke="#617c98" stroke-width="1.8" points="1193.15,-2108.22 1189.65,-2098.22 1186.15,-2108.22 1193.15,-2108.22"/>
</g>
<!-- content_q -->
<g id="node12" class="node">
<title>content_q</title>
<polygon fill="#fff4d8" stroke="#e7c76a" points="1082.64,-1962.3 848.86,-1895.9 1082.64,-1829.5 1316.43,-1895.9 1082.64,-1962.3"/>
<text xml:space="preserve" text-anchor="start" x="1052.27" y="-1904.55" font-family="Arial" font-weight="bold" font-size="13.00">Câu hỏi 2</text>
<text xml:space="preserve" text-anchor="start" x="983.27" y="-1878.9" font-family="Arial" font-size="13.00">Có vấn đề rõ về nội dung không?</text>
</g>
<!-- review&#45;&gt;content_q -->
<g id="edge20" class="edge">
<title>review&#45;&gt;content_q</title>
<path fill="none" stroke="#617c98" stroke-width="1.8" d="M821.44,-2028.38C869.03,-2004.43 934.42,-1971.51 987.87,-1944.61"/>
<polygon fill="#617c98" stroke="#617c98" stroke-width="1.8" points="989.29,-1947.81 996.65,-1940.19 986.14,-1941.56 989.29,-1947.81"/>
</g>
<!-- content_issue -->
<g id="node13" class="node">
<title>content_issue</title>
<path fill="#fff1ee" stroke="#deb0a8" d="M1378.66,-1758C1378.66,-1758 1172.62,-1758 1172.62,-1758 1166.62,-1758 1160.62,-1752 1160.62,-1746 1160.62,-1746 1160.62,-1703.6 1160.62,-1703.6 1160.62,-1697.6 1166.62,-1691.6 1172.62,-1691.6 1172.62,-1691.6 1378.66,-1691.6 1378.66,-1691.6 1384.66,-1691.6 1390.66,-1697.6 1390.66,-1703.6 1390.66,-1703.6 1390.66,-1746 1390.66,-1746 1390.66,-1752 1384.66,-1758 1378.66,-1758"/>
<text xml:space="preserve" text-anchor="start" x="1223.14" y="-1733.45" font-family="Arial" font-weight="bold" font-size="13.00">Vấn đề nội dung</text>
<text xml:space="preserve" text-anchor="start" x="1178.14" y="-1707.8" font-family="Arial" font-size="13.00">Item lệch ý, mơ hồ hoặc sai logic</text>
</g>
<!-- content_q&#45;&gt;content_issue -->
<g id="edge21" class="edge">
<title>content_q&#45;&gt;content_issue</title>
<path fill="none" stroke="#617c98" stroke-width="1.8" d="M1139.25,-1845.31C1167.9,-1820.2 1202.25,-1790.1 1229.31,-1766.39"/>
<polygon fill="#617c98" stroke="#617c98" stroke-width="1.8" points="1231.3,-1769.31 1236.51,-1760.09 1226.68,-1764.04 1231.3,-1769.31"/>
<text xml:space="preserve" text-anchor="middle" x="1207.73" y="-1790.05" font-family="Arial" font-size="11.00">có</text>
</g>
<!-- stats -->
<g id="node14" class="node">
<title>stats</title>
<path fill="#eef2ff" stroke="#b7c8e6" d="M1481.04,-1632.6C1481.04,-1632.6 1070.25,-1632.6 1070.25,-1632.6 1064.25,-1632.6 1058.25,-1626.6 1058.25,-1620.6 1058.25,-1620.6 1058.25,-1578.2 1058.25,-1578.2 1058.25,-1572.2 1064.25,-1566.2 1070.25,-1566.2 1070.25,-1566.2 1481.04,-1566.2 1481.04,-1566.2 1487.04,-1566.2 1493.04,-1572.2 1493.04,-1578.2 1493.04,-1578.2 1493.04,-1620.6 1493.04,-1620.6 1493.04,-1626.6 1487.04,-1632.6 1481.04,-1632.6"/>
<text xml:space="preserve" text-anchor="start" x="1240.39" y="-1608.05" font-family="Arial" font-weight="bold" font-size="13.00">Xem chỉ số</text>
<text xml:space="preserve" text-anchor="start" x="1075.77" y="-1582.4" font-family="Arial" font-size="13.00">CITC + Alpha if Item Deleted (chỉ hỗ trợ, không tự động quyết định)</text>
</g>
<!-- content_q&#45;&gt;stats -->
<g id="edge22" class="edge">
<title>content_q&#45;&gt;stats</title>
<path fill="none" stroke="#617c98" stroke-width="1.8" d="M1088.32,-1830.85C1093.59,-1771.26 1100.64,-1691.6 1100.64,-1691.6 1100.64,-1691.6 1154.09,-1663.75 1201.92,-1638.82"/>
<polygon fill="#617c98" stroke="#617c98" stroke-width="1.8" points="1203.29,-1642.05 1210.54,-1634.33 1200.06,-1635.84 1203.29,-1642.05"/>
<text xml:space="preserve" text-anchor="middle" x="1121.64" y="-1721.1" font-family="Arial" font-size="11.00">không rõ</text>
</g>
<!-- content_issue&#45;&gt;stats -->
<g id="edge23" class="edge">
<title>content_issue&#45;&gt;stats</title>
<path fill="none" stroke="#617c98" stroke-width="1.8" d="M1275.64,-1691.38C1275.64,-1677.32 1275.64,-1660.62 1275.64,-1645.39"/>
<polygon fill="#617c98" stroke="#617c98" stroke-width="1.8" points="1279.15,-1645.76 1275.65,-1635.76 1272.15,-1645.76 1279.15,-1645.76"/>
</g>
<!-- stats_q -->
<g id="node15" class="node">
<title>stats_q</title>
<polygon fill="#fff4d8" stroke="#e7c76a" points="1401.64,-1507.2 1209.86,-1440.8 1401.64,-1374.4 1593.43,-1440.8 1401.64,-1507.2"/>
<text xml:space="preserve" text-anchor="start" x="1371.27" y="-1449.45" font-family="Arial" font-weight="bold" font-size="13.00">Câu hỏi 3</text>
<text xml:space="preserve" text-anchor="start" x="1323.27" y="-1423.8" font-family="Arial" font-size="13.00">Có item đáng nghi không?</text>
</g>
<!-- stats&#45;&gt;stats_q -->
<g id="edge24" class="edge">
<title>stats&#45;&gt;stats_q</title>
<path fill="none" stroke="#617c98" stroke-width="1.8" d="M1301.75,-1565.95C1316.38,-1547.77 1335.1,-1524.5 1352.38,-1503.03"/>
<polygon fill="#617c98" stroke="#617c98" stroke-width="1.8" points="1354.94,-1505.43 1358.49,-1495.44 1349.49,-1501.04 1354.94,-1505.43"/>
</g>
<!-- one_item -->
<g id="node16" class="node">
<title>one_item</title>
<path fill="#fff9ec" stroke="#e7c76a" d="M1747.16,-1302.9C1747.16,-1302.9 1550.12,-1302.9 1550.12,-1302.9 1544.12,-1302.9 1538.12,-1296.9 1538.12,-1290.9 1538.12,-1290.9 1538.12,-1248.5 1538.12,-1248.5 1538.12,-1242.5 1544.12,-1236.5 1550.12,-1236.5 1550.12,-1236.5 1747.16,-1236.5 1747.16,-1236.5 1753.16,-1236.5 1759.16,-1242.5 1759.16,-1248.5 1759.16,-1248.5 1759.16,-1290.9 1759.16,-1290.9 1759.16,-1296.9 1753.16,-1302.9 1747.16,-1302.9"/>
<text xml:space="preserve" text-anchor="start" x="1596.52" y="-1278.35" font-family="Arial" font-weight="bold" font-size="13.00">1 item có vấn đề</text>
<text xml:space="preserve" text-anchor="start" x="1555.64" y="-1252.7" font-family="Arial" font-size="13.00">CITC thấp hoặc làm alpha tăng</text>
</g>
<!-- stats_q&#45;&gt;one_item -->
<g id="edge25" class="edge">
<title>stats_q&#45;&gt;one_item</title>
<path fill="none" stroke="#617c98" stroke-width="1.8" d="M1465.57,-1396.03C1504.25,-1369.56 1553.17,-1336.06 1590.71,-1310.36"/>
<polygon fill="#617c98" stroke="#617c98" stroke-width="1.8" points="1592.46,-1313.41 1598.73,-1304.87 1588.5,-1307.63 1592.46,-1313.41"/>
<text xml:space="preserve" text-anchor="middle" x="1569.16" y="-1334.95" font-family="Arial" font-size="11.00">1 item</text>
</g>
<!-- many_item -->
<g id="node17" class="node">
<title>many_item</title>
<path fill="#fdeded" stroke="#dba7a7" d="M1404.66,-1302.9C1404.66,-1302.9 1078.62,-1302.9 1078.62,-1302.9 1072.62,-1302.9 1066.62,-1296.9 1066.62,-1290.9 1066.62,-1290.9 1066.62,-1248.5 1066.62,-1248.5 1066.62,-1242.5 1072.62,-1236.5 1078.62,-1236.5 1078.62,-1236.5 1404.66,-1236.5 1404.66,-1236.5 1410.66,-1236.5 1416.66,-1242.5 1416.66,-1248.5 1416.66,-1248.5 1416.66,-1290.9 1416.66,-1290.9 1416.66,-1296.9 1410.66,-1302.9 1404.66,-1302.9"/>
<text xml:space="preserve" text-anchor="start" x="1174.52" y="-1278.35" font-family="Arial" font-weight="bold" font-size="13.00">Nhiều item có vấn đề</text>
<text xml:space="preserve" text-anchor="start" x="1084.14" y="-1252.7" font-family="Arial" font-size="13.00">Có thể sai ở cấp độ construct hoặc đang có đa chiều</text>
</g>
<!-- stats_q&#45;&gt;many_item -->
<g id="edge26" class="edge">
<title>stats_q&#45;&gt;many_item</title>
<path fill="none" stroke="#617c98" stroke-width="1.8" d="M1354.94,-1390.43C1331.48,-1365.65 1303.39,-1335.95 1281.04,-1312.34"/>
<polygon fill="#617c98" stroke="#617c98" stroke-width="1.8" points="1283.76,-1310.12 1274.34,-1305.26 1278.67,-1314.93 1283.76,-1310.12"/>
<text xml:space="preserve" text-anchor="middle" x="1325.19" y="-1334.95" font-family="Arial" font-size="11.00">nhiều</text>
</g>
<!-- keep -->
<g id="node20" class="node">
<title>keep</title>
<path fill="#eef8f1" stroke="#b8d7bc" d="M1759.91,-974.2C1759.91,-974.2 1387.38,-974.2 1387.38,-974.2 1381.38,-974.2 1375.38,-968.2 1375.38,-962.2 1375.38,-962.2 1375.38,-919.8 1375.38,-919.8 1375.38,-913.8 1381.38,-907.8 1387.38,-907.8 1387.38,-907.8 1759.91,-907.8 1759.91,-907.8 1765.91,-907.8 1771.91,-913.8 1771.91,-919.8 1771.91,-919.8 1771.91,-962.2 1771.91,-962.2 1771.91,-968.2 1765.91,-974.2 1759.91,-974.2"/>
<text xml:space="preserve" text-anchor="start" x="1513.27" y="-949.65" font-family="Arial" font-weight="bold" font-size="13.00">Đủ điều kiện sơ bộ</text>
<text xml:space="preserve" text-anchor="start" x="1392.89" y="-924" font-family="Arial" font-size="13.00">Đủ điều kiện sơ bộ về nội dung và reliability để đưa vào EFA</text>
</g>
<!-- stats_q&#45;&gt;keep -->
<g id="edge27" class="edge">
<title>stats_q&#45;&gt;keep</title>
<path fill="none" stroke="#617c98" stroke-width="1.8" d="M1420.28,-1380.37C1450.94,-1282.61 1508.64,-1098.6 1508.64,-1098.6 1508.64,-1098.6 1536.14,-1032.35 1555.37,-986.03"/>
<polygon fill="#617c98" stroke="#617c98" stroke-width="1.8" points="1558.53,-987.54 1559.13,-976.96 1552.07,-984.86 1558.53,-987.54"/>
<text xml:space="preserve" text-anchor="middle" x="1517.68" y="-1197.05" font-family="Arial" font-size="11.00">không đáng ngại</text>
</g>
<!-- theory -->
<g id="node18" class="node">
<title>theory</title>
<path fill="#f4f7fb" stroke="#c8d8e7" d="M1824.41,-1165C1824.41,-1165 1538.88,-1165 1538.88,-1165 1532.88,-1165 1526.88,-1159 1526.88,-1153 1526.88,-1153 1526.88,-1110.6 1526.88,-1110.6 1526.88,-1104.6 1532.88,-1098.6 1538.88,-1098.6 1538.88,-1098.6 1824.41,-1098.6 1824.41,-1098.6 1830.41,-1098.6 1836.41,-1104.6 1836.41,-1110.6 1836.41,-1110.6 1836.41,-1153 1836.41,-1153 1836.41,-1159 1830.41,-1165 1824.41,-1165"/>
<text xml:space="preserve" text-anchor="start" x="1631.77" y="-1140.45" font-family="Arial" font-weight="bold" font-size="13.00">Check lý thuyết</text>
<text xml:space="preserve" text-anchor="start" x="1544.39" y="-1114.8" font-family="Arial" font-size="13.00">Không loại item nếu nó quan trọng về concept</text>
</g>
<!-- one_item&#45;&gt;theory -->
<g id="edge28" class="edge">
<title>one_item&#45;&gt;theory</title>
<path fill="none" stroke="#617c98" stroke-width="1.8" d="M1656.55,-1236.15C1660.84,-1218.5 1666.19,-1196.43 1670.86,-1177.22"/>
<polygon fill="#617c98" stroke="#617c98" stroke-width="1.8" points="1674.2,-1178.28 1673.16,-1167.73 1667.4,-1176.62 1674.2,-1178.28"/>
</g>
<!-- revise -->
<g id="node21" class="node">
<title>revise</title>
<path fill="#fdeded" stroke="#dba7a7" d="M1340.91,-1069.6C1340.91,-1069.6 1142.38,-1069.6 1142.38,-1069.6 1136.38,-1069.6 1130.38,-1063.6 1130.38,-1057.6 1130.38,-1057.6 1130.38,-1015.2 1130.38,-1015.2 1130.38,-1009.2 1136.38,-1003.2 1142.38,-1003.2 1142.38,-1003.2 1340.91,-1003.2 1340.91,-1003.2 1346.91,-1003.2 1352.91,-1009.2 1352.91,-1015.2 1352.91,-1015.2 1352.91,-1057.6 1352.91,-1057.6 1352.91,-1063.6 1346.91,-1069.6 1340.91,-1069.6"/>
<text xml:space="preserve" text-anchor="start" x="1184.64" y="-1045.05" font-family="Arial" font-weight="bold" font-size="13.00">Sửa/loại thang đo</text>
<text xml:space="preserve" text-anchor="start" x="1147.89" y="-1019.4" font-family="Arial" font-size="13.00">Nếu nhiều vấn đề nghiêm trọng</text>
</g>
<!-- many_item&#45;&gt;revise -->
<g id="edge32" class="edge">
<title>many_item&#45;&gt;revise</title>
<path fill="none" stroke="#617c98" stroke-width="1.8" d="M1241.64,-1236.05C1241.64,-1195.93 1241.64,-1127.64 1241.64,-1082.52"/>
<polygon fill="#617c98" stroke="#617c98" stroke-width="1.8" points="1245.15,-1082.61 1241.65,-1072.61 1238.15,-1082.61 1245.15,-1082.61"/>
</g>
<!-- rerun -->
<g id="node19" class="node">
<title>rerun</title>
<path fill="#ffffff" stroke="#c8d8e7" d="M2213.79,-974.2C2213.79,-974.2 1891.5,-974.2 1891.5,-974.2 1885.5,-974.2 1879.5,-968.2 1879.5,-962.2 1879.5,-962.2 1879.5,-919.8 1879.5,-919.8 1879.5,-913.8 1885.5,-907.8 1891.5,-907.8 1891.5,-907.8 2213.79,-907.8 2213.79,-907.8 2219.79,-907.8 2225.79,-913.8 2225.79,-919.8 2225.79,-919.8 2225.79,-962.2 2225.79,-962.2 2225.79,-968.2 2219.79,-974.2 2213.79,-974.2"/>
<text xml:space="preserve" text-anchor="start" x="1985.52" y="-949.65" font-family="Arial" font-weight="bold" font-size="13.00">Tinh chỉnh &amp; chạy lại</text>
<text xml:space="preserve" text-anchor="start" x="1897.02" y="-924" font-family="Arial" font-size="13.00">Lặp lại theo từng construct đến khi thang đo ổn định</text>
</g>
<!-- theory&#45;&gt;rerun -->
<g id="edge29" class="edge">
<title>theory&#45;&gt;rerun</title>
<path fill="none" stroke="#617c98" stroke-width="1.8" d="M1745.84,-1098.13C1810.28,-1065.34 1909.49,-1014.85 1977.55,-980.22"/>
<polygon fill="#617c98" stroke="#617c98" stroke-width="1.8" points="1978.86,-983.48 1986.18,-975.82 1975.68,-977.24 1978.86,-983.48"/>
<text xml:space="preserve" text-anchor="middle" x="1930.3" y="-1032.7" font-family="Arial" font-size="11.00">loại</text>
</g>
<!-- theory&#45;&gt;keep -->
<g id="edge30" class="edge">
<title>theory&#45;&gt;keep</title>
<path fill="none" stroke="#617c98" stroke-width="1.8" d="M1663.08,-1098.34C1645.23,-1067.14 1618.13,-1019.77 1598.44,-985.35"/>
<polygon fill="#617c98" stroke="#617c98" stroke-width="1.8" points="1601.69,-983.97 1593.68,-977.03 1595.61,-987.45 1601.69,-983.97"/>
<text xml:space="preserve" text-anchor="middle" x="1651.5" y="-1032.7" font-family="Arial" font-size="11.00">giữ</text>
</g>
<!-- rerun&#45;&gt;alpha_pre -->
<g id="edge31" class="edge">
<title>rerun&#45;&gt;alpha_pre</title>
<path fill="none" stroke="#617c98" stroke-width="1.8" d="M2064.85,-974.46C2085.15,-1028.44 2123.64,-1130.8 2123.64,-1130.8 2123.64,-2382 2123.64,-2382 2123.64,-2382 2123.64,-2382 2068.64,-2447.4 2068.64,-2447.4 2068.64,-2447.4 1990,-2476.32 1921.29,-2501.59"/>
<polygon fill="#617c98" stroke="#617c98" stroke-width="1.8" points="1920.21,-2498.26 1912.04,-2504.99 1922.63,-2504.83 1920.21,-2498.26"/>
</g>
<!-- efa -->
<g id="node22" class="node">
<title>efa</title>
<path fill="#eef8f1" stroke="#b8d7bc" d="M1758.79,-848.8C1758.79,-848.8 1388.5,-848.8 1388.5,-848.8 1382.5,-848.8 1376.5,-842.8 1376.5,-836.8 1376.5,-836.8 1376.5,-794.4 1376.5,-794.4 1376.5,-788.4 1382.5,-782.4 1388.5,-782.4 1388.5,-782.4 1758.79,-782.4 1758.79,-782.4 1764.79,-782.4 1770.79,-788.4 1770.79,-794.4 1770.79,-794.4 1770.79,-836.8 1770.79,-836.8 1770.79,-842.8 1764.79,-848.8 1758.79,-848.8"/>
<text xml:space="preserve" text-anchor="start" x="1497.14" y="-824.25" font-family="Arial" font-weight="bold" font-size="13.00">EFA: khám phá cấu trúc</text>
<text xml:space="preserve" text-anchor="start" x="1394.02" y="-798.6" font-family="Arial" font-size="13.00">Xác định factor structure sơ bộ, xem item tải lên nhân tố nào</text>
</g>
<!-- keep&#45;&gt;efa -->
<g id="edge33" class="edge">
<title>keep&#45;&gt;efa</title>
<path fill="none" stroke="#617c98" stroke-width="1.8" d="M1573.64,-907.58C1573.64,-893.52 1573.64,-876.82 1573.64,-861.59"/>
<polygon fill="#617c98" stroke="#617c98" stroke-width="1.8" points="1577.15,-861.96 1573.65,-851.96 1570.15,-861.96 1577.15,-861.96"/>
</g>
<!-- end -->
<g id="node32" class="node">
<title>end</title>
<path fill="#ffffff" stroke="#c8d8e7" d="M1444.41,-66.4C1444.41,-66.4 1080.88,-66.4 1080.88,-66.4 1074.88,-66.4 1068.88,-60.4 1068.88,-54.4 1068.88,-54.4 1068.88,-12 1068.88,-12 1068.88,-6 1074.88,0 1080.88,0 1080.88,0 1444.41,0 1444.41,0 1450.41,0 1456.41,-6 1456.41,-12 1456.41,-12 1456.41,-54.4 1456.41,-54.4 1456.41,-60.4 1450.41,-66.4 1444.41,-66.4"/>
<text xml:space="preserve" text-anchor="start" x="1235.64" y="-41.85" font-family="Arial" font-weight="bold" font-size="13.00">Kết thúc</text>
<text xml:space="preserve" text-anchor="start" x="1086.39" y="-16.2" font-family="Arial" font-size="13.00">Chốt quyết định cho từng construct và giải thích rõ lập luận</text>
</g>
<!-- revise&#45;&gt;end -->
<g id="edge40" class="edge">
<title>revise&#45;&gt;end</title>
<path fill="none" stroke="#617c98" stroke-width="1.8" d="M1241.64,-1002.95C1241.64,-957.08 1241.64,-878.8 1241.64,-878.8 1241.64,-878.8 1241.64,-878.8 1241.64,-165.1 1241.64,-165.1 1249.34,-117.13 1255.42,-79.26"/>
<polygon fill="#617c98" stroke="#617c98" stroke-width="1.8" points="1258.84,-80.01 1256.97,-69.58 1251.93,-78.9 1258.84,-80.01"/>
</g>
<!-- efa_refine -->
<g id="node23" class="node">
<title>efa_refine</title>
<path fill="#ffffff" stroke="#c8d8e7" d="M1781.29,-723.4C1781.29,-723.4 1366,-723.4 1366,-723.4 1360,-723.4 1354,-717.4 1354,-711.4 1354,-711.4 1354,-669 1354,-669 1354,-663 1360,-657 1366,-657 1366,-657 1781.29,-657 1781.29,-657 1787.29,-657 1793.29,-663 1793.29,-669 1793.29,-669 1793.29,-711.4 1793.29,-711.4 1793.29,-717.4 1787.29,-723.4 1781.29,-723.4"/>
<text xml:space="preserve" text-anchor="start" x="1510.64" y="-698.85" font-family="Arial" font-weight="bold" font-size="13.00">Hiệu chỉnh sau EFA</text>
<text xml:space="preserve" text-anchor="start" x="1371.52" y="-673.2" font-family="Arial" font-size="13.00">Loại/chuyển item nếu loading kém, cross&#45;loading hoặc lệch cấu trúc</text>
</g>
<!-- efa&#45;&gt;efa_refine -->
<g id="edge34" class="edge">
<title>efa&#45;&gt;efa_refine</title>
<path fill="none" stroke="#617c98" stroke-width="1.8" d="M1573.64,-782.18C1573.64,-768.12 1573.64,-751.42 1573.64,-736.19"/>
<polygon fill="#617c98" stroke="#617c98" stroke-width="1.8" points="1577.15,-736.56 1573.65,-726.56 1570.15,-736.56 1577.15,-736.56"/>
</g>
<!-- post_reliability -->
<g id="node24" class="node">
<title>post_reliability</title>
<path fill="#eef8f1" stroke="#b8d7bc" d="M1763.66,-598C1763.66,-598 1383.62,-598 1383.62,-598 1377.62,-598 1371.62,-592 1371.62,-586 1371.62,-586 1371.62,-543.6 1371.62,-543.6 1371.62,-537.6 1377.62,-531.6 1383.62,-531.6 1383.62,-531.6 1763.66,-531.6 1763.66,-531.6 1769.66,-531.6 1775.66,-537.6 1775.66,-543.6 1775.66,-543.6 1775.66,-586 1775.66,-586 1775.66,-592 1769.66,-598 1763.66,-598"/>
<text xml:space="preserve" text-anchor="start" x="1518.52" y="-573.45" font-family="Arial" font-weight="bold" font-size="13.00">Tính lại reliability</text>
<text xml:space="preserve" text-anchor="start" x="1389.14" y="-547.8" font-family="Arial" font-size="13.00">Chạy lại Alpha cho các thang đo sau khi đã hiệu chỉnh từ EFA</text>
</g>
<!-- efa_refine&#45;&gt;post_reliability -->
<g id="edge35" class="edge">
<title>efa_refine&#45;&gt;post_reliability</title>
<path fill="none" stroke="#617c98" stroke-width="1.8" d="M1573.64,-656.78C1573.64,-642.72 1573.64,-626.02 1573.64,-610.79"/>
<polygon fill="#617c98" stroke="#617c98" stroke-width="1.8" points="1577.15,-611.16 1573.65,-601.16 1570.15,-611.16 1577.15,-611.16"/>
</g>
<!-- cfa -->
<g id="node25" class="node">
<title>cfa</title>
<path fill="#eef8f1" stroke="#b8d7bc" d="M1769.29,-472.6C1769.29,-472.6 1378,-472.6 1378,-472.6 1372,-472.6 1366,-466.6 1366,-460.6 1366,-460.6 1366,-403.2 1366,-403.2 1366,-397.2 1372,-391.2 1378,-391.2 1378,-391.2 1769.29,-391.2 1769.29,-391.2 1775.29,-391.2 1781.29,-397.2 1781.29,-403.2 1781.29,-403.2 1781.29,-460.6 1781.29,-460.6 1781.29,-466.6 1775.29,-472.6 1769.29,-472.6"/>
<text xml:space="preserve" text-anchor="start" x="1467.52" y="-448.05" font-family="Arial" font-weight="bold" font-size="13.00">CFA: xác nhận mô hình đo lường</text>
<text xml:space="preserve" text-anchor="start" x="1383.52" y="-422.4" font-family="Arial" font-size="13.00">Kiểm định measurement model, convergent/discriminant validity,</text>
<text xml:space="preserve" text-anchor="start" x="1450.64" y="-407.4" font-family="Arial" font-size="13.00">model fit và có thể báo cáo thêm CR/AVE</text>
</g>
<!-- post_reliability&#45;&gt;cfa -->
<g id="edge36" class="edge">
<title>post_reliability&#45;&gt;cfa</title>
<path fill="none" stroke="#617c98" stroke-width="1.8" d="M1573.64,-531.11C1573.64,-517.26 1573.64,-500.78 1573.64,-485.32"/>
<polygon fill="#617c98" stroke="#617c98" stroke-width="1.8" points="1577.15,-485.37 1573.65,-475.37 1570.15,-485.37 1577.15,-485.37"/>
</g>
<!-- next_step -->
<g id="node26" class="node">
<title>next_step</title>
<path fill="#eef8f1" stroke="#b8d7bc" d="M1838.66,-332.2C1838.66,-332.2 1308.62,-332.2 1308.62,-332.2 1302.62,-332.2 1296.62,-326.2 1296.62,-320.2 1296.62,-320.2 1296.62,-277.8 1296.62,-277.8 1296.62,-271.8 1302.62,-265.8 1308.62,-265.8 1308.62,-265.8 1838.66,-265.8 1838.66,-265.8 1844.66,-265.8 1850.66,-271.8 1850.66,-277.8 1850.66,-277.8 1850.66,-320.2 1850.66,-320.2 1850.66,-326.2 1844.66,-332.2 1838.66,-332.2"/>
<text xml:space="preserve" text-anchor="start" x="1525.64" y="-307.65" font-family="Arial" font-weight="bold" font-size="13.00">Bước tiếp theo</text>
<text xml:space="preserve" text-anchor="start" x="1314.14" y="-282" font-family="Arial" font-size="13.00">Chỉ sang SEM / kiểm định giả thuyết khi CFA cho thấy measurement model đạt yêu cầu</text>
</g>
<!-- cfa&#45;&gt;next_step -->
<g id="edge37" class="edge">
<title>cfa&#45;&gt;next_step</title>
<path fill="none" stroke="#617c98" stroke-width="1.8" d="M1573.64,-390.91C1573.64,-376.38 1573.64,-359.85 1573.64,-344.92"/>
<polygon fill="#617c98" stroke="#617c98" stroke-width="1.8" points="1577.15,-345.01 1573.65,-335.01 1570.15,-345.01 1577.15,-345.01"/>
</g>
<!-- note -->
<g id="node28" class="node">
<title>note</title>
<polygon fill="#fffdf5" stroke="#e7d9a8" points="1685.54,-206.8 1349.75,-206.8 1349.75,-125.4 1691.54,-125.4 1691.54,-200.8 1685.54,-206.8"/>
<polyline fill="none" stroke="#e7d9a8" points="1685.54,-206.8 1685.54,-200.8"/>
<polyline fill="none" stroke="#e7d9a8" points="1691.54,-200.8 1685.54,-200.8"/>
<text xml:space="preserve" text-anchor="start" x="1469.64" y="-182.25" font-family="Arial" font-weight="bold" font-size="13.00">Lưu ý học thuật</text>
<text xml:space="preserve" text-anchor="start" x="1367.27" y="-156.6" font-family="Arial" font-size="13.00">Cronbach&#39;s Alpha không kiểm tra unidimensionality;</text>
<text xml:space="preserve" text-anchor="start" x="1369.89" y="-141.6" font-family="Arial" font-size="13.00">alpha cao cũng không tự động chứng minh validity</text>
</g>
<!-- next_step&#45;&gt;note -->
<g id="edge38" class="edge">
<title>next_step&#45;&gt;note</title>
<path fill="none" stroke="#617c98" stroke-width="1.8" d="M1560.41,-265.31C1554.69,-251.19 1547.86,-234.32 1541.49,-218.59"/>
<polygon fill="#617c98" stroke="#617c98" stroke-width="1.8" points="1544.76,-217.33 1537.76,-209.37 1538.27,-219.95 1544.76,-217.33"/>
</g>
<!-- note&#45;&gt;end -->
<g id="edge39" class="edge">
<title>note&#45;&gt;end</title>
<path fill="none" stroke="#617c98" stroke-width="1.8" d="M1441.48,-124.94C1408.62,-108.26 1370.66,-89 1338.19,-72.53"/>
<polygon fill="#617c98" stroke="#617c98" stroke-width="1.8" points="1339.89,-69.46 1329.38,-68.06 1336.72,-75.71 1339.89,-69.46"/>
</g>
</g>
</svg>
