<?xml version="1.0" encoding="UTF-8" standalone="no"?>
<!DOCTYPE svg PUBLIC "-//W3C//DTD SVG 1.1//EN"
 "http://www.w3.org/Graphics/SVG/1.1/DTD/svg11.dtd">
<!-- Generated by graphviz version 14.1.5 (20260411.2331)
 -->
<!-- Title: cronbach_alpha_flow_final Pages: 1 -->
<svg width="1913pt" height="2982pt"
 viewBox="0.00 0.00 1913.00 2982.00" xmlns="http://www.w3.org/2000/svg" xmlns:xlink="http://www.w3.org/1999/xlink">
<g id="graph0" class="graph" transform="scale(1 1) rotate(0) translate(28.8 2953.3)">
<title>cronbach_alpha_flow_final</title>
<polygon fill="#f6f8fb" stroke="none" points="-28.8,28.8 -28.8,-2953.3 1884.59,-2953.3 1884.59,28.8 -28.8,28.8"/>
<text xml:space="preserve" text-anchor="start" x="617.02" y="-2894.9" font-family="Arial" font-weight="bold" font-size="28.00">Flow Đọc Cronbach&#39;s Alpha (Digital Marketing)</text>
<text xml:space="preserve" text-anchor="start" x="776.77" y="-2878.3" font-family="Arial" font-size="16.00">Kết hợp logic thống kê + lập luận lý thuyết</text>
<!-- start -->
<g id="node1" class="node">
<title>start</title>
<path fill="#ffffff" stroke="#c8d8e7" d="M1603.91,-2872.5C1603.91,-2872.5 1315.38,-2872.5 1315.38,-2872.5 1309.38,-2872.5 1303.38,-2866.5 1303.38,-2860.5 1303.38,-2860.5 1303.38,-2818.1 1303.38,-2818.1 1303.38,-2812.1 1309.38,-2806.1 1315.38,-2806.1 1315.38,-2806.1 1603.91,-2806.1 1603.91,-2806.1 1609.91,-2806.1 1615.91,-2812.1 1615.91,-2818.1 1615.91,-2818.1 1615.91,-2860.5 1615.91,-2860.5 1615.91,-2866.5 1609.91,-2872.5 1603.91,-2872.5"/>
<text xml:space="preserve" text-anchor="start" x="1434.89" y="-2847.95" font-family="Arial" font-weight="bold" font-size="13.00">Bắt đầu</text>
<text xml:space="preserve" text-anchor="start" x="1320.89" y="-2822.3" font-family="Arial" font-size="13.00">Chuẩn bị đánh giá độ tin cậy cho các thang đo</text>
</g>
<!-- group -->
<g id="node2" class="node">
<title>group</title>
<path fill="#f4f7fb" stroke="#c8d8e7" d="M1633.54,-2747.1C1633.54,-2747.1 1285.75,-2747.1 1285.75,-2747.1 1279.75,-2747.1 1273.75,-2741.1 1273.75,-2735.1 1273.75,-2735.1 1273.75,-2677.7 1273.75,-2677.7 1273.75,-2671.7 1279.75,-2665.7 1285.75,-2665.7 1285.75,-2665.7 1633.54,-2665.7 1633.54,-2665.7 1639.54,-2665.7 1645.54,-2671.7 1645.54,-2677.7 1645.54,-2677.7 1645.54,-2735.1 1645.54,-2735.1 1645.54,-2741.1 1639.54,-2747.1 1633.54,-2747.1"/>
<text xml:space="preserve" text-anchor="start" x="1376.77" y="-2722.55" font-family="Arial" font-weight="bold" font-size="13.00">Nhóm item theo construct</text>
<text xml:space="preserve" text-anchor="start" x="1291.27" y="-2696.9" font-family="Arial" font-size="13.00">Dựa trên lý thuyết: Urgency, Enjoyment, Impulse Buying,</text>
<text xml:space="preserve" text-anchor="start" x="1376.02" y="-2681.9" font-family="Arial" font-size="13.00">Time/Qty/Voucher Scarcity...</text>
</g>
<!-- start&#45;&gt;group -->
<g id="edge1" class="edge">
<title>start&#45;&gt;group</title>
<path fill="none" stroke="#617c98" stroke-width="1.8" d="M1459.64,-2805.61C1459.64,-2791.76 1459.64,-2775.28 1459.64,-2759.82"/>
<polygon fill="#617c98" stroke="#617c98" stroke-width="1.8" points="1463.15,-2759.87 1459.65,-2749.87 1456.15,-2759.87 1463.15,-2759.87"/>
</g>
<!-- reverse_q -->
<g id="node3" class="node">
<title>reverse_q</title>
<polygon fill="#fff4d8" stroke="#e7c76a" points="1459.64,-2606.7 1118.61,-2540.3 1459.64,-2473.9 1800.68,-2540.3 1459.64,-2606.7"/>
<text xml:space="preserve" text-anchor="start" x="1429.27" y="-2548.95" font-family="Arial" font-weight="bold" font-size="13.00">Câu hỏi 0</text>
<text xml:space="preserve" text-anchor="start" x="1306.64" y="-2523.3" font-family="Arial" font-size="13.00">Có item đảo chiều không và đã recode đúng chưa?</text>
</g>
<!-- group&#45;&gt;reverse_q -->
<g id="edge2" class="edge">
<title>group&#45;&gt;reverse_q</title>
<path fill="none" stroke="#617c98" stroke-width="1.8" d="M1459.64,-2665.26C1459.64,-2651.41 1459.64,-2635.38 1459.64,-2619.54"/>
<polygon fill="#617c98" stroke="#617c98" stroke-width="1.8" points="1463.15,-2619.64 1459.65,-2609.64 1456.15,-2619.64 1463.15,-2619.64"/>
</g>
<!-- recode -->
<g id="node4" class="node">
<title>recode</title>
<path fill="#fff1ee" stroke="#deb0a8" d="M1488.04,-2402.4C1488.04,-2402.4 1209.25,-2402.4 1209.25,-2402.4 1203.25,-2402.4 1197.25,-2396.4 1197.25,-2390.4 1197.25,-2390.4 1197.25,-2348 1197.25,-2348 1197.25,-2342 1203.25,-2336 1209.25,-2336 1209.25,-2336 1488.04,-2336 1488.04,-2336 1494.04,-2336 1500.04,-2342 1500.04,-2348 1500.04,-2348 1500.04,-2390.4 1500.04,-2390.4 1500.04,-2396.4 1494.04,-2402.4 1488.04,-2402.4"/>
<text xml:space="preserve" text-anchor="start" x="1304.39" y="-2377.85" font-family="Arial" font-weight="bold" font-size="13.00">Recode trước</text>
<text xml:space="preserve" text-anchor="start" x="1214.77" y="-2352.2" font-family="Arial" font-size="13.00">Cần xử lý item đảo chiều trước khi đọc alpha</text>
</g>
<!-- reverse_q&#45;&gt;recode -->
<g id="edge3" class="edge">
<title>reverse_q&#45;&gt;recode</title>
<path fill="none" stroke="#617c98" stroke-width="1.8" d="M1421.45,-2481.11C1406.88,-2458.92 1390.55,-2434.04 1377.05,-2413.47"/>
<polygon fill="#617c98" stroke="#617c98" stroke-width="1.8" points="1379.98,-2411.56 1371.57,-2405.12 1374.13,-2415.4 1379.98,-2411.56"/>
<text xml:space="preserve" text-anchor="middle" x="1409.87" y="-2434.45" font-family="Arial" font-size="11.00">chưa</text>
</g>
<!-- alpha_pre -->
<g id="node5" class="node">
<title>alpha_pre</title>
<path fill="#ffffff" stroke="#c8d8e7" d="M1649.29,-2277C1649.29,-2277 1270,-2277 1270,-2277 1264,-2277 1258,-2271 1258,-2265 1258,-2265 1258,-2222.6 1258,-2222.6 1258,-2216.6 1264,-2210.6 1270,-2210.6 1270,-2210.6 1649.29,-2210.6 1649.29,-2210.6 1655.29,-2210.6 1661.29,-2216.6 1661.29,-2222.6 1661.29,-2222.6 1661.29,-2265 1661.29,-2265 1661.29,-2271 1655.29,-2277 1649.29,-2277"/>
<text xml:space="preserve" text-anchor="start" x="1382.39" y="-2252.45" font-family="Arial" font-weight="bold" font-size="13.00">Cronbach&#39;s Alpha sơ bộ</text>
<text xml:space="preserve" text-anchor="start" x="1275.52" y="-2226.8" font-family="Arial" font-size="13.00">Chạy riêng cho từng construct như kiểm tra reliability ban đầu</text>
</g>
<!-- reverse_q&#45;&gt;alpha_pre -->
<g id="edge4" class="edge">
<title>reverse_q&#45;&gt;alpha_pre</title>
<path fill="none" stroke="#617c98" stroke-width="1.8" d="M1485.42,-2478.46C1500.91,-2441.89 1517.64,-2402.4 1517.64,-2402.4 1517.64,-2402.4 1517.64,-2336 1517.64,-2336 1517.64,-2336 1502.17,-2311.66 1487.2,-2288.13"/>
<polygon fill="#617c98" stroke="#617c98" stroke-width="1.8" points="1490.2,-2286.33 1481.88,-2279.77 1484.3,-2290.08 1490.2,-2286.33"/>
<text xml:space="preserve" text-anchor="middle" x="1536.77" y="-2365.5" font-family="Arial" font-size="11.00">đã xử lý</text>
</g>
<!-- recode&#45;&gt;alpha_pre -->
<g id="edge5" class="edge">
<title>recode&#45;&gt;alpha_pre</title>
<path fill="none" stroke="#617c98" stroke-width="1.8" d="M1377.81,-2335.78C1391.34,-2320.74 1407.59,-2302.67 1422.03,-2286.62"/>
<polygon fill="#617c98" stroke="#617c98" stroke-width="1.8" points="1424.38,-2289.23 1428.47,-2279.46 1419.18,-2284.55 1424.38,-2289.23"/>
</g>
<!-- alpha_q -->
<g id="node6" class="node">
<title>alpha_q</title>
<polygon fill="#fff4d8" stroke="#e7c76a" points="884.64,-2151.6 575.11,-2085.2 884.64,-2018.8 1194.18,-2085.2 884.64,-2151.6"/>
<text xml:space="preserve" text-anchor="start" x="854.27" y="-2093.85" font-family="Arial" font-weight="bold" font-size="13.00">Câu hỏi 1</text>
<text xml:space="preserve" text-anchor="start" x="747.39" y="-2068.2" font-family="Arial" font-size="13.00">Alpha sơ bộ của construct đang gợi ý điều gì?</text>
</g>
<!-- alpha_pre&#45;&gt;alpha_q -->
<g id="edge6" class="edge">
<title>alpha_pre&#45;&gt;alpha_q</title>
<path fill="none" stroke="#617c98" stroke-width="1.8" d="M1339.81,-2210.16C1250.32,-2185.79 1127.53,-2152.35 1032.04,-2126.34"/>
<polygon fill="#617c98" stroke="#617c98" stroke-width="1.8" points="1033.14,-2123.01 1022.57,-2123.76 1031.3,-2129.77 1033.14,-2123.01"/>
</g>
<!-- prelim_note -->
<g id="node25" class="node">
<title>prelim_note</title>
<polygon fill="#fffdf5" stroke="#e7d9a8" points="1683.41,-2118.4 1229.88,-2118.4 1229.88,-2052 1689.41,-2052 1689.41,-2112.4 1683.41,-2118.4"/>
<polyline fill="none" stroke="#e7d9a8" points="1683.41,-2118.4 1683.41,-2112.4"/>
<polyline fill="none" stroke="#e7d9a8" points="1689.41,-2112.4 1683.41,-2112.4"/>
<text xml:space="preserve" text-anchor="start" x="1408.64" y="-2093.85" font-family="Arial" font-weight="bold" font-size="13.00">Lưu ý học thuật</text>
<text xml:space="preserve" text-anchor="start" x="1247.39" y="-2068.2" font-family="Arial" font-size="13.00">Nếu đặt Alpha trước EFA, phải nói rõ đây là preliminary reliability check</text>
</g>
<!-- alpha_pre&#45;&gt;prelim_note -->
<g id="edge15" class="edge">
<title>alpha_pre&#45;&gt;prelim_note</title>
<path fill="none" stroke="#617c98" stroke-width="1.8" stroke-dasharray="5,2" d="M1459.64,-2210.35C1459.64,-2187.54 1459.64,-2156.71 1459.64,-2131.49"/>
<polygon fill="#617c98" stroke="#617c98" stroke-width="1.8" points="1463.15,-2131.6 1459.65,-2121.6 1456.15,-2131.6 1463.15,-2131.6"/>
</g>
<!-- alpha_low -->
<g id="node7" class="node">
<title>alpha_low</title>
<path fill="#fdeded" stroke="#dba7a7" d="M776.29,-1947.3C776.29,-1947.3 463,-1947.3 463,-1947.3 457,-1947.3 451,-1941.3 451,-1935.3 451,-1935.3 451,-1892.9 451,-1892.9 451,-1886.9 457,-1880.9 463,-1880.9 463,-1880.9 776.29,-1880.9 776.29,-1880.9 782.29,-1880.9 788.29,-1886.9 788.29,-1892.9 788.29,-1892.9 788.29,-1935.3 788.29,-1935.3 788.29,-1941.3 782.29,-1947.3 776.29,-1947.3"/>
<text xml:space="preserve" text-anchor="start" x="584.77" y="-1922.75" font-family="Arial" font-weight="bold" font-size="13.00">Alpha thấp</text>
<text xml:space="preserve" text-anchor="start" x="468.52" y="-1897.1" font-family="Arial" font-size="13.00">alpha &lt; 0.60 thường gợi ý internal consistency yếu</text>
</g>
<!-- alpha_q&#45;&gt;alpha_low -->
<g id="edge7" class="edge">
<title>alpha_q&#45;&gt;alpha_low</title>
<path fill="none" stroke="#617c98" stroke-width="1.8" d="M807.64,-2035.06C767.41,-2009.39 718.85,-1978.41 681.16,-1954.36"/>
<polygon fill="#617c98" stroke="#617c98" stroke-width="1.8" points="683.45,-1951.66 673.13,-1949.23 679.68,-1957.56 683.45,-1951.66"/>
<text xml:space="preserve" text-anchor="middle" x="750.15" y="-1979.35" font-family="Arial" font-size="11.00">&lt;0.60</text>
</g>
<!-- alpha_mid -->
<g id="node8" class="node">
<title>alpha_mid</title>
<path fill="#fff9ec" stroke="#e7c76a" d="M403.29,-1947.3C403.29,-1947.3 12,-1947.3 12,-1947.3 6,-1947.3 0,-1941.3 0,-1935.3 0,-1935.3 0,-1892.9 0,-1892.9 0,-1886.9 6,-1880.9 12,-1880.9 12,-1880.9 403.29,-1880.9 403.29,-1880.9 409.29,-1880.9 415.29,-1886.9 415.29,-1892.9 415.29,-1892.9 415.29,-1935.3 415.29,-1935.3 415.29,-1941.3 409.29,-1947.3 403.29,-1947.3"/>
<text xml:space="preserve" text-anchor="start" x="141.64" y="-1922.75" font-family="Arial" font-weight="bold" font-size="13.00">Alpha mức cân nhắc</text>
<text xml:space="preserve" text-anchor="start" x="17.52" y="-1897.1" font-family="Arial" font-size="13.00">0.60–0.70 có thể chấp nhận ở giai đoạn khám phá, tùy bối cảnh</text>
</g>
<!-- alpha_q&#45;&gt;alpha_mid -->
<g id="edge8" class="edge">
<title>alpha_q&#45;&gt;alpha_mid</title>
<path fill="none" stroke="#617c98" stroke-width="1.8" d="M742.72,-2048.75C627.57,-2019.99 465.97,-1979.62 350.56,-1950.8"/>
<polygon fill="#617c98" stroke="#617c98" stroke-width="1.8" points="351.67,-1947.47 341.12,-1948.44 349.98,-1954.26 351.67,-1947.47"/>
<text xml:space="preserve" text-anchor="middle" x="529.61" y="-1979.35" font-family="Arial" font-size="11.00">0.60–0.70</text>
</g>
<!-- alpha_good -->
<g id="node9" class="node">
<title>alpha_good</title>
<path fill="#eef8f1" stroke="#b8d7bc" d="M1677.79,-1947.3C1677.79,-1947.3 1247.5,-1947.3 1247.5,-1947.3 1241.5,-1947.3 1235.5,-1941.3 1235.5,-1935.3 1235.5,-1935.3 1235.5,-1892.9 1235.5,-1892.9 1235.5,-1886.9 1241.5,-1880.9 1247.5,-1880.9 1247.5,-1880.9 1677.79,-1880.9 1677.79,-1880.9 1683.79,-1880.9 1689.79,-1886.9 1689.79,-1892.9 1689.79,-1892.9 1689.79,-1935.3 1689.79,-1935.3 1689.79,-1941.3 1683.79,-1947.3 1677.79,-1947.3"/>
<text xml:space="preserve" text-anchor="start" x="1389.14" y="-1922.75" font-family="Arial" font-weight="bold" font-size="13.00">Alpha chấp nhận được</text>
<text xml:space="preserve" text-anchor="start" x="1253.02" y="-1897.1" font-family="Arial" font-size="13.00">0.70–0.95 thường được xem là phù hợp cho nhiều nghiên cứu hành vi</text>
</g>
<!-- alpha_q&#45;&gt;alpha_good -->
<g id="edge9" class="edge">
<title>alpha_q&#45;&gt;alpha_good</title>
<path fill="none" stroke="#617c98" stroke-width="1.8" d="M1014.36,-2046.25C1111.39,-2017.86 1243.26,-1979.28 1338.84,-1951.32"/>
<polygon fill="#617c98" stroke="#617c98" stroke-width="1.8" points="1339.67,-1954.72 1348.29,-1948.56 1337.71,-1948.01 1339.67,-1954.72"/>
<text xml:space="preserve" text-anchor="middle" x="1266.41" y="-1979.35" font-family="Arial" font-size="11.00">0.70–0.95</text>
</g>
<!-- alpha_high -->
<g id="node10" class="node">
<title>alpha_high</title>
<path fill="#eef2ff" stroke="#b7c8e6" d="M1187.04,-1947.3C1187.04,-1947.3 836.25,-1947.3 836.25,-1947.3 830.25,-1947.3 824.25,-1941.3 824.25,-1935.3 824.25,-1935.3 824.25,-1892.9 824.25,-1892.9 824.25,-1886.9 830.25,-1880.9 836.25,-1880.9 836.25,-1880.9 1187.04,-1880.9 1187.04,-1880.9 1193.04,-1880.9 1199.04,-1886.9 1199.04,-1892.9 1199.04,-1892.9 1199.04,-1935.3 1199.04,-1935.3 1199.04,-1941.3 1193.04,-1947.3 1187.04,-1947.3"/>
<text xml:space="preserve" text-anchor="start" x="968.89" y="-1922.75" font-family="Arial" font-weight="bold" font-size="13.00">Alpha rất cao</text>
<text xml:space="preserve" text-anchor="start" x="841.77" y="-1897.1" font-family="Arial" font-size="13.00">&gt; 0.95 có thể gợi ý item trùng lặp hoặc construct quá hẹp</text>
</g>
<!-- alpha_q&#45;&gt;alpha_high -->
<g id="edge10" class="edge">
<title>alpha_q&#45;&gt;alpha_high</title>
<path fill="none" stroke="#617c98" stroke-width="1.8" d="M926.93,-2027.89C944.17,-2004.94 963.77,-1978.85 979.77,-1957.55"/>
<polygon fill="#617c98" stroke="#617c98" stroke-width="1.8" points="982.46,-1959.78 985.67,-1949.69 976.87,-1955.58 982.46,-1959.78"/>
<text xml:space="preserve" text-anchor="middle" x="977.13" y="-1979.35" font-family="Arial" font-size="11.00">&gt;0.95</text>
</g>
<!-- review -->
<g id="node11" class="node">
<title>review</title>
<path fill="#ffffff" stroke="#c8d8e7" d="M1156.29,-1821.9C1156.29,-1821.9 867,-1821.9 867,-1821.9 861,-1821.9 855,-1815.9 855,-1809.9 855,-1809.9 855,-1767.5 855,-1767.5 855,-1761.5 861,-1755.5 867,-1755.5 867,-1755.5 1156.29,-1755.5 1156.29,-1755.5 1162.29,-1755.5 1168.29,-1761.5 1168.29,-1767.5 1168.29,-1767.5 1168.29,-1809.9 1168.29,-1809.9 1168.29,-1815.9 1162.29,-1821.9 1156.29,-1821.9"/>
<text xml:space="preserve" text-anchor="start" x="953.14" y="-1797.35" font-family="Arial" font-weight="bold" font-size="13.00">Đọc nội dung item</text>
<text xml:space="preserve" text-anchor="start" x="872.52" y="-1771.7" font-family="Arial" font-size="13.00">Kiểm tra ý nghĩa, wording, trùng lặp, đảo chiều</text>
</g>
<!-- alpha_low&#45;&gt;review -->
<g id="edge11" class="edge">
<title>alpha_low&#45;&gt;review</title>
<path fill="none" stroke="#617c98" stroke-width="1.8" d="M723.41,-1880.44C776.56,-1863.71 841.42,-1843.29 896.15,-1826.06"/>
<polygon fill="#617c98" stroke="#617c98" stroke-width="1.8" points="896.94,-1829.48 905.43,-1823.14 894.84,-1822.8 896.94,-1829.48"/>
</g>
<!-- alpha_mid&#45;&gt;review -->
<g id="edge12" class="edge">
<title>alpha_mid&#45;&gt;review</title>
<path fill="none" stroke="#617c98" stroke-width="1.8" d="M415.74,-1881.16C548.35,-1860.81 717.97,-1834.77 842.31,-1815.69"/>
<polygon fill="#617c98" stroke="#617c98" stroke-width="1.8" points="842.54,-1819.2 851.89,-1814.22 841.47,-1812.28 842.54,-1819.2"/>
</g>
<!-- alpha_good&#45;&gt;review -->
<g id="edge13" class="edge">
<title>alpha_good&#45;&gt;review</title>
<path fill="none" stroke="#617c98" stroke-width="1.8" d="M1343.26,-1880.44C1281.61,-1863.57 1206.23,-1842.94 1142.94,-1825.62"/>
<polygon fill="#617c98" stroke="#617c98" stroke-width="1.8" points="1144.05,-1822.3 1133.48,-1823.04 1142.21,-1829.05 1144.05,-1822.3"/>
</g>
<!-- threshold_note -->
<g id="node27" class="node">
<title>threshold_note</title>
<polygon fill="#fffdf5" stroke="#e7d9a8" points="1681.54,-1821.9 1207.75,-1821.9 1207.75,-1755.5 1687.54,-1755.5 1687.54,-1815.9 1681.54,-1821.9"/>
<polyline fill="none" stroke="#e7d9a8" points="1681.54,-1821.9 1681.54,-1815.9"/>
<polyline fill="none" stroke="#e7d9a8" points="1687.54,-1815.9 1681.54,-1815.9"/>
<text xml:space="preserve" text-anchor="start" x="1391.77" y="-1797.35" font-family="Arial" font-weight="bold" font-size="13.00">Diễn giải ngưỡng</text>
<text xml:space="preserve" text-anchor="start" x="1225.27" y="-1771.7" font-family="Arial" font-size="13.00">Thresholds là context&#45;dependent và nên đọc cùng theory + research stage</text>
</g>
<!-- alpha_good&#45;&gt;threshold_note -->
<g id="edge16" class="edge">
<title>alpha_good&#45;&gt;threshold_note</title>
<path fill="none" stroke="#617c98" stroke-width="1.8" stroke-dasharray="5,2" d="M1458.7,-1880.68C1457,-1866.62 1454.97,-1849.92 1453.11,-1834.69"/>
<polygon fill="#617c98" stroke="#617c98" stroke-width="1.8" points="1456.62,-1834.54 1451.94,-1825.04 1449.67,-1835.39 1456.62,-1834.54"/>
</g>
<!-- alpha_high&#45;&gt;review -->
<g id="edge14" class="edge">
<title>alpha_high&#45;&gt;review</title>
<path fill="none" stroke="#617c98" stroke-width="1.8" d="M1011.64,-1880.68C1011.64,-1866.62 1011.64,-1849.92 1011.64,-1834.69"/>
<polygon fill="#617c98" stroke="#617c98" stroke-width="1.8" points="1015.15,-1835.06 1011.65,-1825.06 1008.15,-1835.06 1015.15,-1835.06"/>
</g>
<!-- alpha_high&#45;&gt;threshold_note -->
<g id="edge17" class="edge">
<title>alpha_high&#45;&gt;threshold_note</title>
<path fill="none" stroke="#617c98" stroke-width="1.8" stroke-dasharray="5,2" d="M1127.05,-1880.44C1186.54,-1863.6 1259.22,-1843.03 1320.34,-1825.73"/>
<polygon fill="#617c98" stroke="#617c98" stroke-width="1.8" points="1321.11,-1829.15 1329.78,-1823.06 1319.2,-1822.42 1321.11,-1829.15"/>
</g>
<!-- content_q -->
<g id="node12" class="node">
<title>content_q</title>
<polygon fill="#fff4d8" stroke="#e7c76a" points="1019.64,-1696.5 785.86,-1630.1 1019.64,-1563.7 1253.43,-1630.1 1019.64,-1696.5"/>
<text xml:space="preserve" text-anchor="start" x="989.27" y="-1638.75" font-family="Arial" font-weight="bold" font-size="13.00">Câu hỏi 2</text>
<text xml:space="preserve" text-anchor="start" x="920.27" y="-1613.1" font-family="Arial" font-size="13.00">Có vấn đề rõ về nội dung không?</text>
</g>
<!-- review&#45;&gt;content_q -->
<g id="edge18" class="edge">
<title>review&#45;&gt;content_q</title>
<path fill="none" stroke="#617c98" stroke-width="1.8" d="M1013.3,-1755.25C1014,-1741.55 1014.85,-1724.94 1015.7,-1708.4"/>
<polygon fill="#617c98" stroke="#617c98" stroke-width="1.8" points="1019.19,-1708.7 1016.2,-1698.53 1012.19,-1708.34 1019.19,-1708.7"/>
</g>
<!-- content_issue -->
<g id="node13" class="node">
<title>content_issue</title>
<path fill="#fff1ee" stroke="#deb0a8" d="M1122.66,-1492.2C1122.66,-1492.2 916.62,-1492.2 916.62,-1492.2 910.62,-1492.2 904.62,-1486.2 904.62,-1480.2 904.62,-1480.2 904.62,-1437.8 904.62,-1437.8 904.62,-1431.8 910.62,-1425.8 916.62,-1425.8 916.62,-1425.8 1122.66,-1425.8 1122.66,-1425.8 1128.66,-1425.8 1134.66,-1431.8 1134.66,-1437.8 1134.66,-1437.8 1134.66,-1480.2 1134.66,-1480.2 1134.66,-1486.2 1128.66,-1492.2 1122.66,-1492.2"/>
<text xml:space="preserve" text-anchor="start" x="967.14" y="-1467.65" font-family="Arial" font-weight="bold" font-size="13.00">Vấn đề nội dung</text>
<text xml:space="preserve" text-anchor="start" x="922.14" y="-1442" font-family="Arial" font-size="13.00">Item lệch ý, mơ hồ hoặc sai logic</text>
</g>
<!-- content_q&#45;&gt;content_issue -->
<g id="edge19" class="edge">
<title>content_q&#45;&gt;content_issue</title>
<path fill="none" stroke="#617c98" stroke-width="1.8" d="M1019.64,-1563.24C1019.64,-1543.78 1019.64,-1522.93 1019.64,-1505.11"/>
<polygon fill="#617c98" stroke="#617c98" stroke-width="1.8" points="1023.15,-1505.15 1019.65,-1495.15 1016.15,-1505.15 1023.15,-1505.15"/>
<text xml:space="preserve" text-anchor="middle" x="1025.27" y="-1524.25" font-family="Arial" font-size="11.00">có</text>
</g>
<!-- stats -->
<g id="node14" class="node">
<title>stats</title>
<path fill="#eef2ff" stroke="#b7c8e6" d="M1412.04,-1366.8C1412.04,-1366.8 1001.25,-1366.8 1001.25,-1366.8 995.25,-1366.8 989.25,-1360.8 989.25,-1354.8 989.25,-1354.8 989.25,-1312.4 989.25,-1312.4 989.25,-1306.4 995.25,-1300.4 1001.25,-1300.4 1001.25,-1300.4 1412.04,-1300.4 1412.04,-1300.4 1418.04,-1300.4 1424.04,-1306.4 1424.04,-1312.4 1424.04,-1312.4 1424.04,-1354.8 1424.04,-1354.8 1424.04,-1360.8 1418.04,-1366.8 1412.04,-1366.8"/>
<text xml:space="preserve" text-anchor="start" x="1171.39" y="-1342.25" font-family="Arial" font-weight="bold" font-size="13.00">Xem chỉ số</text>
<text xml:space="preserve" text-anchor="start" x="1006.77" y="-1316.6" font-family="Arial" font-size="13.00">CITC + Alpha if Item Deleted (chỉ hỗ trợ, không tự động quyết định)</text>
</g>
<!-- content_q&#45;&gt;stats -->
<g id="edge20" class="edge">
<title>content_q&#45;&gt;stats</title>
<path fill="none" stroke="#617c98" stroke-width="1.8" d="M1069.55,-1577.73C1107.29,-1538.89 1152.64,-1492.2 1152.64,-1492.2 1152.64,-1492.2 1175.39,-1425.81 1191.36,-1379.21"/>
<polygon fill="#617c98" stroke="#617c98" stroke-width="1.8" points="1194.64,-1380.43 1194.57,-1369.83 1188.02,-1378.16 1194.64,-1380.43"/>
<text xml:space="preserve" text-anchor="middle" x="1196.16" y="-1455.3" font-family="Arial" font-size="11.00">không rõ</text>
</g>
<!-- content_issue&#45;&gt;stats -->
<g id="edge21" class="edge">
<title>content_issue&#45;&gt;stats</title>
<path fill="none" stroke="#617c98" stroke-width="1.8" d="M1068.78,-1425.58C1092.64,-1409.83 1121.52,-1390.78 1146.67,-1374.18"/>
<polygon fill="#617c98" stroke="#617c98" stroke-width="1.8" points="1148.5,-1377.16 1154.92,-1368.73 1144.64,-1371.32 1148.5,-1377.16"/>
</g>
<!-- stats_q -->
<g id="node15" class="node">
<title>stats_q</title>
<polygon fill="#fff4d8" stroke="#e7c76a" points="1211.64,-1241.4 1019.86,-1175 1211.64,-1108.6 1403.43,-1175 1211.64,-1241.4"/>
<text xml:space="preserve" text-anchor="start" x="1181.27" y="-1183.65" font-family="Arial" font-weight="bold" font-size="13.00">Câu hỏi 3</text>
<text xml:space="preserve" text-anchor="start" x="1133.27" y="-1158" font-family="Arial" font-size="13.00">Có item đáng nghi không?</text>
</g>
<!-- stats&#45;&gt;stats_q -->
<g id="edge22" class="edge">
<title>stats&#45;&gt;stats_q</title>
<path fill="none" stroke="#617c98" stroke-width="1.8" d="M1207.68,-1300.15C1208.12,-1286.52 1208.64,-1270.02 1209.17,-1253.56"/>
<polygon fill="#617c98" stroke="#617c98" stroke-width="1.8" points="1212.66,-1253.86 1209.48,-1243.76 1205.66,-1253.64 1212.66,-1253.86"/>
</g>
<!-- one_item -->
<g id="node16" class="node">
<title>one_item</title>
<path fill="#fff9ec" stroke="#e7c76a" d="M1633.16,-1037.1C1633.16,-1037.1 1436.12,-1037.1 1436.12,-1037.1 1430.12,-1037.1 1424.12,-1031.1 1424.12,-1025.1 1424.12,-1025.1 1424.12,-982.7 1424.12,-982.7 1424.12,-976.7 1430.12,-970.7 1436.12,-970.7 1436.12,-970.7 1633.16,-970.7 1633.16,-970.7 1639.16,-970.7 1645.16,-976.7 1645.16,-982.7 1645.16,-982.7 1645.16,-1025.1 1645.16,-1025.1 1645.16,-1031.1 1639.16,-1037.1 1633.16,-1037.1"/>
<text xml:space="preserve" text-anchor="start" x="1482.52" y="-1012.55" font-family="Arial" font-weight="bold" font-size="13.00">1 item có vấn đề</text>
<text xml:space="preserve" text-anchor="start" x="1441.64" y="-986.9" font-family="Arial" font-size="13.00">CITC thấp hoặc làm alpha tăng</text>
</g>
<!-- stats_q&#45;&gt;one_item -->
<g id="edge23" class="edge">
<title>stats_q&#45;&gt;one_item</title>
<path fill="none" stroke="#617c98" stroke-width="1.8" d="M1287.37,-1134.35C1339.84,-1106.89 1409.31,-1070.52 1461.26,-1043.32"/>
<polygon fill="#617c98" stroke="#617c98" stroke-width="1.8" points="1462.74,-1046.49 1469.98,-1038.75 1459.5,-1040.29 1462.74,-1046.49"/>
<text xml:space="preserve" text-anchor="middle" x="1426.2" y="-1069.15" font-family="Arial" font-size="11.00">1 item</text>
</g>
<!-- many_item -->
<g id="node17" class="node">
<title>many_item</title>
<path fill="#fdeded" stroke="#dba7a7" d="M1375.66,-1037.1C1375.66,-1037.1 1049.62,-1037.1 1049.62,-1037.1 1043.62,-1037.1 1037.62,-1031.1 1037.62,-1025.1 1037.62,-1025.1 1037.62,-982.7 1037.62,-982.7 1037.62,-976.7 1043.62,-970.7 1049.62,-970.7 1049.62,-970.7 1375.66,-970.7 1375.66,-970.7 1381.66,-970.7 1387.66,-976.7 1387.66,-982.7 1387.66,-982.7 1387.66,-1025.1 1387.66,-1025.1 1387.66,-1031.1 1381.66,-1037.1 1375.66,-1037.1"/>
<text xml:space="preserve" text-anchor="start" x="1145.52" y="-1012.55" font-family="Arial" font-weight="bold" font-size="13.00">Nhiều item có vấn đề</text>
<text xml:space="preserve" text-anchor="start" x="1055.14" y="-986.9" font-family="Arial" font-size="13.00">Có thể sai ở cấp độ construct hoặc đang có đa chiều</text>
</g>
<!-- stats_q&#45;&gt;many_item -->
<g id="edge24" class="edge">
<title>stats_q&#45;&gt;many_item</title>
<path fill="none" stroke="#617c98" stroke-width="1.8" d="M1212.03,-1108.62C1212.15,-1089.03 1212.27,-1067.98 1212.38,-1050.01"/>
<polygon fill="#617c98" stroke="#617c98" stroke-width="1.8" points="1215.88,-1050.27 1212.44,-1040.25 1208.88,-1050.22 1215.88,-1050.27"/>
<text xml:space="preserve" text-anchor="middle" x="1225.39" y="-1069.15" font-family="Arial" font-size="11.00">nhiều</text>
</g>
<!-- keep -->
<g id="node20" class="node">
<title>keep</title>
<path fill="#eef8f1" stroke="#b8d7bc" d="M1174.54,-708.4C1174.54,-708.4 790.75,-708.4 790.75,-708.4 784.75,-708.4 778.75,-702.4 778.75,-696.4 778.75,-696.4 778.75,-654 778.75,-654 778.75,-648 784.75,-642 790.75,-642 790.75,-642 1174.54,-642 1174.54,-642 1180.54,-642 1186.54,-648 1186.54,-654 1186.54,-654 1186.54,-696.4 1186.54,-696.4 1186.54,-702.4 1180.54,-708.4 1174.54,-708.4"/>
<text xml:space="preserve" text-anchor="start" x="912.52" y="-683.85" font-family="Arial" font-weight="bold" font-size="13.00">Giữ thang đo tạm thời</text>
<text xml:space="preserve" text-anchor="start" x="796.27" y="-658.2" font-family="Arial" font-size="13.00">Chấp nhận được về nội dung và chỉ số ở bước reliability sơ bộ</text>
</g>
<!-- stats_q&#45;&gt;keep -->
<g id="edge25" class="edge">
<title>stats_q&#45;&gt;keep</title>
<path fill="none" stroke="#617c98" stroke-width="1.8" d="M1149.57,-1129.74C1093.48,-1089.74 1019.64,-1037.1 1019.64,-1037.1 1019.64,-1037.1 997.21,-818.28 987.28,-721.42"/>
<polygon fill="#617c98" stroke="#617c98" stroke-width="1.8" points="990.77,-721.17 986.27,-711.57 983.81,-721.88 990.77,-721.17"/>
<text xml:space="preserve" text-anchor="middle" x="1049.55" y="-931.25" font-family="Arial" font-size="11.00">không đáng ngại</text>
</g>
<!-- theory -->
<g id="node18" class="node">
<title>theory</title>
<path fill="#f4f7fb" stroke="#c8d8e7" d="M1677.41,-899.2C1677.41,-899.2 1391.88,-899.2 1391.88,-899.2 1385.88,-899.2 1379.88,-893.2 1379.88,-887.2 1379.88,-887.2 1379.88,-844.8 1379.88,-844.8 1379.88,-838.8 1385.88,-832.8 1391.88,-832.8 1391.88,-832.8 1677.41,-832.8 1677.41,-832.8 1683.41,-832.8 1689.41,-838.8 1689.41,-844.8 1689.41,-844.8 1689.41,-887.2 1689.41,-887.2 1689.41,-893.2 1683.41,-899.2 1677.41,-899.2"/>
<text xml:space="preserve" text-anchor="start" x="1484.77" y="-874.65" font-family="Arial" font-weight="bold" font-size="13.00">Check lý thuyết</text>
<text xml:space="preserve" text-anchor="start" x="1397.39" y="-849" font-family="Arial" font-size="13.00">Không loại item nếu nó quan trọng về concept</text>
</g>
<!-- one_item&#45;&gt;theory -->
<g id="edge26" class="edge">
<title>one_item&#45;&gt;theory</title>
<path fill="none" stroke="#617c98" stroke-width="1.8" d="M1534.64,-970.35C1534.64,-952.87 1534.64,-931.05 1534.64,-911.97"/>
<polygon fill="#617c98" stroke="#617c98" stroke-width="1.8" points="1538.15,-912.01 1534.65,-902.01 1531.15,-912.01 1538.15,-912.01"/>
</g>
<!-- revise -->
<g id="node21" class="node">
<title>revise</title>
<path fill="#fdeded" stroke="#dba7a7" d="M1326.91,-803.8C1326.91,-803.8 1128.38,-803.8 1128.38,-803.8 1122.38,-803.8 1116.38,-797.8 1116.38,-791.8 1116.38,-791.8 1116.38,-749.4 1116.38,-749.4 1116.38,-743.4 1122.38,-737.4 1128.38,-737.4 1128.38,-737.4 1326.91,-737.4 1326.91,-737.4 1332.91,-737.4 1338.91,-743.4 1338.91,-749.4 1338.91,-749.4 1338.91,-791.8 1338.91,-791.8 1338.91,-797.8 1332.91,-803.8 1326.91,-803.8"/>
<text xml:space="preserve" text-anchor="start" x="1170.64" y="-779.25" font-family="Arial" font-weight="bold" font-size="13.00">Sửa/loại thang đo</text>
<text xml:space="preserve" text-anchor="start" x="1133.89" y="-753.6" font-family="Arial" font-size="13.00">Nếu nhiều vấn đề nghiêm trọng</text>
</g>
<!-- many_item&#45;&gt;revise -->
<g id="edge30" class="edge">
<title>many_item&#45;&gt;revise</title>
<path fill="none" stroke="#617c98" stroke-width="1.8" d="M1214.76,-970.25C1217.36,-930.13 1221.79,-861.84 1224.72,-816.72"/>
<polygon fill="#617c98" stroke="#617c98" stroke-width="1.8" points="1228.21,-817.01 1225.36,-806.8 1221.22,-816.55 1228.21,-817.01"/>
</g>
<!-- rerun -->
<g id="node19" class="node">
<title>rerun</title>
<path fill="#ffffff" stroke="#c8d8e7" d="M1843.79,-708.4C1843.79,-708.4 1521.5,-708.4 1521.5,-708.4 1515.5,-708.4 1509.5,-702.4 1509.5,-696.4 1509.5,-696.4 1509.5,-654 1509.5,-654 1509.5,-648 1515.5,-642 1521.5,-642 1521.5,-642 1843.79,-642 1843.79,-642 1849.79,-642 1855.79,-648 1855.79,-654 1855.79,-654 1855.79,-696.4 1855.79,-696.4 1855.79,-702.4 1849.79,-708.4 1843.79,-708.4"/>
<text xml:space="preserve" text-anchor="start" x="1615.52" y="-683.85" font-family="Arial" font-weight="bold" font-size="13.00">Tinh chỉnh &amp; chạy lại</text>
<text xml:space="preserve" text-anchor="start" x="1527.02" y="-658.2" font-family="Arial" font-size="13.00">Lặp lại theo từng construct đến khi thang đo ổn định</text>
</g>
<!-- theory&#45;&gt;rerun -->
<g id="edge27" class="edge">
<title>theory&#45;&gt;rerun</title>
<path fill="none" stroke="#617c98" stroke-width="1.8" d="M1560.09,-832.54C1584.76,-801.07 1622.33,-753.15 1649.36,-718.66"/>
<polygon fill="#617c98" stroke="#617c98" stroke-width="1.8" points="1651.94,-721.04 1655.36,-711.01 1646.43,-716.72 1651.94,-721.04"/>
<text xml:space="preserve" text-anchor="middle" x="1638.8" y="-766.9" font-family="Arial" font-size="11.00">loại</text>
</g>
<!-- theory&#45;&gt;keep -->
<g id="edge28" class="edge">
<title>theory&#45;&gt;keep</title>
<path fill="none" stroke="#617c98" stroke-width="1.8" d="M1379.49,-843.98C1248.77,-826.27 1082.89,-803.8 1082.89,-803.8 1082.89,-803.8 1044.98,-755.54 1015.79,-718.38"/>
<polygon fill="#617c98" stroke="#617c98" stroke-width="1.8" points="1018.81,-716.57 1009.88,-710.87 1013.31,-720.9 1018.81,-716.57"/>
<text xml:space="preserve" text-anchor="middle" x="1090.77" y="-766.9" font-family="Arial" font-size="11.00">giữ</text>
</g>
<!-- rerun&#45;&gt;alpha_pre -->
<g id="edge29" class="edge">
<title>rerun&#45;&gt;alpha_pre</title>
<path fill="none" stroke="#617c98" stroke-width="1.8" d="M1693.3,-708.66C1711.03,-762.64 1744.64,-865 1744.64,-865 1744.64,-2086.2 1744.64,-2086.2 1744.64,-2086.2 1744.64,-2086.2 1707.64,-2151.6 1707.64,-2151.6 1707.64,-2151.6 1629,-2180.52 1560.29,-2205.79"/>
<polygon fill="#617c98" stroke="#617c98" stroke-width="1.8" points="1559.21,-2202.46 1551.04,-2209.19 1561.63,-2209.03 1559.21,-2202.46"/>
</g>
<!-- efa -->
<g id="node22" class="node">
<title>efa</title>
<path fill="#eef8f1" stroke="#b8d7bc" d="M1145.16,-583C1145.16,-583 774.12,-583 774.12,-583 768.12,-583 762.12,-577 762.12,-571 762.12,-571 762.12,-528.6 762.12,-528.6 762.12,-522.6 768.12,-516.6 774.12,-516.6 774.12,-516.6 1145.16,-516.6 1145.16,-516.6 1151.16,-516.6 1157.16,-522.6 1157.16,-528.6 1157.16,-528.6 1157.16,-571 1157.16,-571 1157.16,-577 1151.16,-583 1145.16,-583"/>
<text xml:space="preserve" text-anchor="start" x="904.89" y="-558.45" font-family="Arial" font-weight="bold" font-size="13.00">Kiểm tra cấu trúc</text>
<text xml:space="preserve" text-anchor="start" x="779.64" y="-532.8" font-family="Arial" font-size="13.00">Chạy EFA/CFA để kiểm tra dimensionality và factor structure</text>
</g>
<!-- keep&#45;&gt;efa -->
<g id="edge31" class="edge">
<title>keep&#45;&gt;efa</title>
<path fill="none" stroke="#617c98" stroke-width="1.8" d="M976.6,-641.78C973.98,-627.72 970.87,-611.02 968.03,-595.79"/>
<polygon fill="#617c98" stroke="#617c98" stroke-width="1.8" points="971.5,-595.3 966.23,-586.11 964.62,-596.58 971.5,-595.3"/>
</g>
<!-- end -->
<g id="node28" class="node">
<title>end</title>
<path fill="#ffffff" stroke="#c8d8e7" d="M1311.41,-66.4C1311.41,-66.4 947.88,-66.4 947.88,-66.4 941.88,-66.4 935.88,-60.4 935.88,-54.4 935.88,-54.4 935.88,-12 935.88,-12 935.88,-6 941.88,0 947.88,0 947.88,0 1311.41,0 1311.41,0 1317.41,0 1323.41,-6 1323.41,-12 1323.41,-12 1323.41,-54.4 1323.41,-54.4 1323.41,-60.4 1317.41,-66.4 1311.41,-66.4"/>
<text xml:space="preserve" text-anchor="start" x="1102.64" y="-41.85" font-family="Arial" font-weight="bold" font-size="13.00">Kết thúc</text>
<text xml:space="preserve" text-anchor="start" x="953.39" y="-16.2" font-family="Arial" font-size="13.00">Chốt quyết định cho từng construct và giải thích rõ lập luận</text>
</g>
<!-- revise&#45;&gt;end -->
<g id="edge36" class="edge">
<title>revise&#45;&gt;end</title>
<path fill="none" stroke="#617c98" stroke-width="1.8" d="M1230.75,-737.15C1235.15,-691.28 1242.64,-613 1242.64,-613 1242.64,-613 1242.64,-613 1242.64,-165.1 1242.64,-165.1 1199.04,-114.59 1166.01,-76.32"/>
<polygon fill="#617c98" stroke="#617c98" stroke-width="1.8" points="1168.83,-74.24 1159.65,-68.96 1163.53,-78.81 1168.83,-74.24"/>
</g>
<!-- post_reliability -->
<g id="node23" class="node">
<title>post_reliability</title>
<path fill="#eef8f1" stroke="#b8d7bc" d="M1096.79,-457.6C1096.79,-457.6 810.5,-457.6 810.5,-457.6 804.5,-457.6 798.5,-451.6 798.5,-445.6 798.5,-445.6 798.5,-403.2 798.5,-403.2 798.5,-397.2 804.5,-391.2 810.5,-391.2 810.5,-391.2 1096.79,-391.2 1096.79,-391.2 1102.79,-391.2 1108.79,-397.2 1108.79,-403.2 1108.79,-403.2 1108.79,-445.6 1108.79,-445.6 1108.79,-451.6 1102.79,-457.6 1096.79,-457.6"/>
<text xml:space="preserve" text-anchor="start" x="884.27" y="-433.05" font-family="Arial" font-weight="bold" font-size="13.00">Đánh giá lại reliability</text>
<text xml:space="preserve" text-anchor="start" x="816.02" y="-407.4" font-family="Arial" font-size="13.00">Tính lại Alpha/CR cho từng factor được giữ lại</text>
</g>
<!-- efa&#45;&gt;post_reliability -->
<g id="edge32" class="edge">
<title>efa&#45;&gt;post_reliability</title>
<path fill="none" stroke="#617c98" stroke-width="1.8" d="M958.07,-516.38C957.39,-502.32 956.57,-485.62 955.83,-470.39"/>
<polygon fill="#617c98" stroke="#617c98" stroke-width="1.8" points="959.35,-470.57 955.36,-460.75 952.35,-470.91 959.35,-470.57"/>
</g>
<!-- next_step -->
<g id="node24" class="node">
<title>next_step</title>
<path fill="#eef8f1" stroke="#b8d7bc" d="M1175.29,-332.2C1175.29,-332.2 730,-332.2 730,-332.2 724,-332.2 718,-326.2 718,-320.2 718,-320.2 718,-277.8 718,-277.8 718,-271.8 724,-265.8 730,-265.8 730,-265.8 1175.29,-265.8 1175.29,-265.8 1181.29,-265.8 1187.29,-271.8 1187.29,-277.8 1187.29,-277.8 1187.29,-320.2 1187.29,-320.2 1187.29,-326.2 1181.29,-332.2 1175.29,-332.2"/>
<text xml:space="preserve" text-anchor="start" x="904.64" y="-307.65" font-family="Arial" font-weight="bold" font-size="13.00">Bước tiếp theo</text>
<text xml:space="preserve" text-anchor="start" x="735.52" y="-282" font-family="Arial" font-size="13.00">Measurement model đạt yêu cầu rồi mới sang SEM / kiểm định giả thuyết</text>
</g>
<!-- post_reliability&#45;&gt;next_step -->
<g id="edge33" class="edge">
<title>post_reliability&#45;&gt;next_step</title>
<path fill="none" stroke="#617c98" stroke-width="1.8" d="M953.38,-390.98C953.27,-376.92 953.13,-360.22 953.01,-344.99"/>
<polygon fill="#617c98" stroke="#617c98" stroke-width="1.8" points="956.51,-345.33 952.93,-335.36 949.51,-345.39 956.51,-345.33"/>
</g>
<!-- note -->
<g id="node26" class="node">
<title>note</title>
<polygon fill="#fffdf5" stroke="#e7d9a8" points="1165.54,-206.8 829.75,-206.8 829.75,-125.4 1171.54,-125.4 1171.54,-200.8 1165.54,-206.8"/>
<polyline fill="none" stroke="#e7d9a8" points="1165.54,-206.8 1165.54,-200.8"/>
<polyline fill="none" stroke="#e7d9a8" points="1171.54,-200.8 1165.54,-200.8"/>
<text xml:space="preserve" text-anchor="start" x="949.64" y="-182.25" font-family="Arial" font-weight="bold" font-size="13.00">Lưu ý học thuật</text>
<text xml:space="preserve" text-anchor="start" x="847.27" y="-156.6" font-family="Arial" font-size="13.00">Cronbach&#39;s Alpha không kiểm tra unidimensionality;</text>
<text xml:space="preserve" text-anchor="start" x="849.89" y="-141.6" font-family="Arial" font-size="13.00">alpha cao cũng không tự động chứng minh validity</text>
</g>
<!-- next_step&#45;&gt;note -->
<g id="edge34" class="edge">
<title>next_step&#45;&gt;note</title>
<path fill="none" stroke="#617c98" stroke-width="1.8" d="M964.63,-265.31C969.81,-251.19 975.99,-234.32 981.76,-218.59"/>
<polygon fill="#617c98" stroke="#617c98" stroke-width="1.8" points="984.98,-220 985.13,-209.4 978.4,-217.59 984.98,-220"/>
</g>
<!-- note&#45;&gt;end -->
<g id="edge35" class="edge">
<title>note&#45;&gt;end</title>
<path fill="none" stroke="#617c98" stroke-width="1.8" d="M1040.05,-125.11C1055.53,-109.4 1073.31,-91.37 1088.92,-75.53"/>
<polygon fill="#617c98" stroke="#617c98" stroke-width="1.8" points="1091.39,-78.01 1095.91,-68.43 1086.4,-73.1 1091.39,-78.01"/>
</g>
</g>
</svg>
