<?xml version="1.0" encoding="UTF-8" standalone="no"?>
<!DOCTYPE svg PUBLIC "-//W3C//DTD SVG 1.1//EN"
 "http://www.w3.org/Graphics/SVG/1.1/DTD/svg11.dtd">
<!-- Generated by graphviz version 14.1.5 (20260411.2331)
 -->
<!-- Title: cronbach_alpha_flow_final Pages: 1 -->
<svg width="1463pt" height="2398pt"
 viewBox="0.00 0.00 1463.00 2398.00" xmlns="http://www.w3.org/2000/svg" xmlns:xlink="http://www.w3.org/1999/xlink">
<g id="graph0" class="graph" transform="scale(1 1) rotate(0) translate(28.8 2368.8)">
<title>cronbach_alpha_flow_final</title>
<polygon fill="#f6f8fb" stroke="none" points="-28.8,28.8 -28.8,-2368.8 1433.71,-2368.8 1433.71,28.8 -28.8,28.8"/>
<text xml:space="preserve" text-anchor="start" x="391.58" y="-2310.4" font-family="Arial" font-weight="bold" font-size="28.00">Flow Đọc Cronbach&#39;s Alpha (Digital Marketing)</text>
<text xml:space="preserve" text-anchor="start" x="551.33" y="-2293.8" font-family="Arial" font-size="16.00">Kết hợp logic thống kê + lập luận lý thuyết</text>
<!-- start -->
<g id="node1" class="node">
<title>start</title>
<path fill="#ffffff" stroke="#c8d8e7" d="M1065.91,-2288C1065.91,-2288 796.12,-2288 796.12,-2288 790.12,-2288 784.12,-2282 784.12,-2276 784.12,-2276 784.12,-2233.6 784.12,-2233.6 784.12,-2227.6 790.12,-2221.6 796.12,-2221.6 796.12,-2221.6 1065.91,-2221.6 1065.91,-2221.6 1071.91,-2221.6 1077.91,-2227.6 1077.91,-2233.6 1077.91,-2233.6 1077.91,-2276 1077.91,-2276 1077.91,-2282 1071.91,-2288 1065.91,-2288"/>
<text xml:space="preserve" text-anchor="start" x="906.27" y="-2263.45" font-family="Arial" font-weight="bold" font-size="13.00">Bắt đầu</text>
<text xml:space="preserve" text-anchor="start" x="801.64" y="-2237.8" font-family="Arial" font-size="13.00">Đánh giá độ nhất quán nội bộ của thang đo</text>
</g>
<!-- reverse_q -->
<g id="node2" class="node">
<title>reverse_q</title>
<polygon fill="#fff4d8" stroke="#e7c76a" points="931.02,-2162.6 589.98,-2096.2 931.02,-2029.8 1272.06,-2096.2 931.02,-2162.6"/>
<text xml:space="preserve" text-anchor="start" x="900.64" y="-2104.85" font-family="Arial" font-weight="bold" font-size="13.00">Câu hỏi 0</text>
<text xml:space="preserve" text-anchor="start" x="778.02" y="-2079.2" font-family="Arial" font-size="13.00">Có item đảo chiều không và đã recode đúng chưa?</text>
</g>
<!-- start&#45;&gt;reverse_q -->
<g id="edge1" class="edge">
<title>start&#45;&gt;reverse_q</title>
<path fill="none" stroke="#617c98" stroke-width="1.8" d="M931.02,-2221.35C931.02,-2207.86 931.02,-2191.56 931.02,-2175.28"/>
<polygon fill="#617c98" stroke="#617c98" stroke-width="1.8" points="934.52,-2175.6 931.02,-2165.6 927.52,-2175.6 934.52,-2175.6"/>
</g>
<!-- recode -->
<g id="node3" class="node">
<title>recode</title>
<path fill="#fff1ee" stroke="#deb0a8" d="M959.41,-1958.3C959.41,-1958.3 680.62,-1958.3 680.62,-1958.3 674.62,-1958.3 668.62,-1952.3 668.62,-1946.3 668.62,-1946.3 668.62,-1903.9 668.62,-1903.9 668.62,-1897.9 674.62,-1891.9 680.62,-1891.9 680.62,-1891.9 959.41,-1891.9 959.41,-1891.9 965.41,-1891.9 971.41,-1897.9 971.41,-1903.9 971.41,-1903.9 971.41,-1946.3 971.41,-1946.3 971.41,-1952.3 965.41,-1958.3 959.41,-1958.3"/>
<text xml:space="preserve" text-anchor="start" x="775.77" y="-1933.75" font-family="Arial" font-weight="bold" font-size="13.00">Recode trước</text>
<text xml:space="preserve" text-anchor="start" x="686.14" y="-1908.1" font-family="Arial" font-size="13.00">Cần xử lý item đảo chiều trước khi đọc alpha</text>
</g>
<!-- reverse_q&#45;&gt;recode -->
<g id="edge2" class="edge">
<title>reverse_q&#45;&gt;recode</title>
<path fill="none" stroke="#617c98" stroke-width="1.8" d="M892.82,-2037.01C878.25,-2014.82 861.92,-1989.94 848.43,-1969.37"/>
<polygon fill="#617c98" stroke="#617c98" stroke-width="1.8" points="851.36,-1967.46 842.94,-1961.02 845.51,-1971.3 851.36,-1967.46"/>
<text xml:space="preserve" text-anchor="middle" x="881.25" y="-1990.35" font-family="Arial" font-size="11.00">chưa</text>
</g>
<!-- alpha_q -->
<g id="node4" class="node">
<title>alpha_q</title>
<polygon fill="#fff4d8" stroke="#e7c76a" points="931.02,-1832.9 672.48,-1766.5 931.02,-1700.1 1189.56,-1766.5 931.02,-1832.9"/>
<text xml:space="preserve" text-anchor="start" x="900.64" y="-1775.15" font-family="Arial" font-weight="bold" font-size="13.00">Câu hỏi 1</text>
<text xml:space="preserve" text-anchor="start" x="819.27" y="-1749.5" font-family="Arial" font-size="13.00">Cronbach&#39;s Alpha đang gợi ý điều gì?</text>
</g>
<!-- reverse_q&#45;&gt;alpha_q -->
<g id="edge3" class="edge">
<title>reverse_q&#45;&gt;alpha_q</title>
<path fill="none" stroke="#617c98" stroke-width="1.8" d="M956.8,-2034.36C972.29,-1997.79 989.02,-1958.3 989.02,-1958.3 989.02,-1958.3 989.02,-1891.9 989.02,-1891.9 989.02,-1891.9 976.82,-1865.73 963.61,-1837.4"/>
<polygon fill="#617c98" stroke="#617c98" stroke-width="1.8" points="966.87,-1836.11 959.47,-1828.53 960.53,-1839.07 966.87,-1836.11"/>
<text xml:space="preserve" text-anchor="middle" x="1008.14" y="-1921.4" font-family="Arial" font-size="11.00">đã xử lý</text>
</g>
<!-- recode&#45;&gt;alpha_q -->
<g id="edge4" class="edge">
<title>recode&#45;&gt;alpha_q</title>
<path fill="none" stroke="#617c98" stroke-width="1.8" d="M843.02,-1891.65C855.02,-1874.71 870.16,-1853.36 884.48,-1833.15"/>
<polygon fill="#617c98" stroke="#617c98" stroke-width="1.8" points="887.15,-1835.45 890.08,-1825.26 881.44,-1831.4 887.15,-1835.45"/>
</g>
<!-- alpha_low -->
<g id="node5" class="node">
<title>alpha_low</title>
<path fill="#fdeded" stroke="#dba7a7" d="M1038.54,-1628.6C1038.54,-1628.6 823.5,-1628.6 823.5,-1628.6 817.5,-1628.6 811.5,-1622.6 811.5,-1616.6 811.5,-1616.6 811.5,-1574.2 811.5,-1574.2 811.5,-1568.2 817.5,-1562.2 823.5,-1562.2 823.5,-1562.2 1038.54,-1562.2 1038.54,-1562.2 1044.54,-1562.2 1050.54,-1568.2 1050.54,-1574.2 1050.54,-1574.2 1050.54,-1616.6 1050.54,-1616.6 1050.54,-1622.6 1044.54,-1628.6 1038.54,-1628.6"/>
<text xml:space="preserve" text-anchor="start" x="896.14" y="-1604.05" font-family="Arial" font-weight="bold" font-size="13.00">Alpha thấp</text>
<text xml:space="preserve" text-anchor="start" x="829.02" y="-1578.4" font-family="Arial" font-size="13.00">alpha &lt; 0.60 thường bị xem là yếu</text>
</g>
<!-- alpha_q&#45;&gt;alpha_low -->
<g id="edge5" class="edge">
<title>alpha_q&#45;&gt;alpha_low</title>
<path fill="none" stroke="#617c98" stroke-width="1.8" d="M931.02,-1699.64C931.02,-1680.18 931.02,-1659.33 931.02,-1641.51"/>
<polygon fill="#617c98" stroke="#617c98" stroke-width="1.8" points="934.52,-1641.55 931.02,-1631.55 927.52,-1641.55 934.52,-1641.55"/>
<text xml:space="preserve" text-anchor="middle" x="944.89" y="-1660.65" font-family="Arial" font-size="11.00">&lt;0.60</text>
</g>
<!-- alpha_mid -->
<g id="node6" class="node">
<title>alpha_mid</title>
<path fill="#fff9ec" stroke="#e7c76a" d="M763.16,-1628.6C763.16,-1628.6 416.88,-1628.6 416.88,-1628.6 410.88,-1628.6 404.88,-1622.6 404.88,-1616.6 404.88,-1616.6 404.88,-1574.2 404.88,-1574.2 404.88,-1568.2 410.88,-1562.2 416.88,-1562.2 416.88,-1562.2 763.16,-1562.2 763.16,-1562.2 769.16,-1562.2 775.16,-1568.2 775.16,-1574.2 775.16,-1574.2 775.16,-1616.6 775.16,-1616.6 775.16,-1622.6 769.16,-1628.6 763.16,-1628.6"/>
<text xml:space="preserve" text-anchor="start" x="524.02" y="-1604.05" font-family="Arial" font-weight="bold" font-size="13.00">Alpha mức cân nhắc</text>
<text xml:space="preserve" text-anchor="start" x="422.39" y="-1578.4" font-family="Arial" font-size="13.00">0.60–0.70 có thể chấp nhận trong nghiên cứu khám phá</text>
</g>
<!-- alpha_q&#45;&gt;alpha_mid -->
<g id="edge6" class="edge">
<title>alpha_q&#45;&gt;alpha_mid</title>
<path fill="none" stroke="#617c98" stroke-width="1.8" d="M843.65,-1722.17C789.14,-1695.14 719.62,-1660.67 667.16,-1634.65"/>
<polygon fill="#617c98" stroke="#617c98" stroke-width="1.8" points="668.85,-1631.58 658.34,-1630.28 665.74,-1637.86 668.85,-1631.58"/>
<text xml:space="preserve" text-anchor="middle" x="764.1" y="-1660.65" font-family="Arial" font-size="11.00">0.60–0.70</text>
</g>
<!-- alpha_good -->
<g id="node7" class="node">
<title>alpha_good</title>
<path fill="#eef8f1" stroke="#b8d7bc" d="M356.79,-1628.6C356.79,-1628.6 17.25,-1628.6 17.25,-1628.6 11.25,-1628.6 5.25,-1622.6 5.25,-1616.6 5.25,-1616.6 5.25,-1574.2 5.25,-1574.2 5.25,-1568.2 11.25,-1562.2 17.25,-1562.2 17.25,-1562.2 356.79,-1562.2 356.79,-1562.2 362.79,-1562.2 368.79,-1568.2 368.79,-1574.2 368.79,-1574.2 368.79,-1616.6 368.79,-1616.6 368.79,-1622.6 362.79,-1628.6 356.79,-1628.6"/>
<text xml:space="preserve" text-anchor="start" x="113.52" y="-1604.05" font-family="Arial" font-weight="bold" font-size="13.00">Alpha chấp nhận được</text>
<text xml:space="preserve" text-anchor="start" x="22.77" y="-1578.4" font-family="Arial" font-size="13.00">≥ 0.70 thường được xem là acceptable trong marketing</text>
</g>
<!-- alpha_q&#45;&gt;alpha_good -->
<g id="edge7" class="edge">
<title>alpha_q&#45;&gt;alpha_good</title>
<path fill="none" stroke="#617c98" stroke-width="1.8" d="M794.99,-1734.58C667.41,-1705.59 476.77,-1662.26 343.07,-1631.87"/>
<polygon fill="#617c98" stroke="#617c98" stroke-width="1.8" points="343.9,-1628.47 333.37,-1629.66 342.35,-1635.29 343.9,-1628.47"/>
<text xml:space="preserve" text-anchor="middle" x="527.98" y="-1660.65" font-family="Arial" font-size="11.00">≥0.70</text>
</g>
<!-- alpha_high -->
<g id="node8" class="node">
<title>alpha_high</title>
<path fill="#eef2ff" stroke="#b7c8e6" d="M1305.41,-1628.6C1305.41,-1628.6 1098.62,-1628.6 1098.62,-1628.6 1092.62,-1628.6 1086.62,-1622.6 1086.62,-1616.6 1086.62,-1616.6 1086.62,-1574.2 1086.62,-1574.2 1086.62,-1568.2 1092.62,-1562.2 1098.62,-1562.2 1098.62,-1562.2 1305.41,-1562.2 1305.41,-1562.2 1311.41,-1562.2 1317.41,-1568.2 1317.41,-1574.2 1317.41,-1574.2 1317.41,-1616.6 1317.41,-1616.6 1317.41,-1622.6 1311.41,-1628.6 1305.41,-1628.6"/>
<text xml:space="preserve" text-anchor="start" x="1159.27" y="-1604.05" font-family="Arial" font-weight="bold" font-size="13.00">Alpha rất cao</text>
<text xml:space="preserve" text-anchor="start" x="1104.14" y="-1578.4" font-family="Arial" font-size="13.00">&gt; 0.95 có thể gợi ý item trùng lặp</text>
</g>
<!-- alpha_q&#45;&gt;alpha_high -->
<g id="edge8" class="edge">
<title>alpha_q&#45;&gt;alpha_high</title>
<path fill="none" stroke="#617c98" stroke-width="1.8" d="M1005.79,-1718.85C1047.69,-1692.7 1099.37,-1660.45 1139.17,-1635.62"/>
<polygon fill="#617c98" stroke="#617c98" stroke-width="1.8" points="1140.86,-1638.69 1147.49,-1630.42 1137.16,-1632.75 1140.86,-1638.69"/>
<text xml:space="preserve" text-anchor="middle" x="1112.64" y="-1660.65" font-family="Arial" font-size="11.00">&gt;0.95</text>
</g>
<!-- review -->
<g id="node9" class="node">
<title>review</title>
<path fill="#ffffff" stroke="#c8d8e7" d="M977.66,-1503.2C977.66,-1503.2 688.38,-1503.2 688.38,-1503.2 682.38,-1503.2 676.38,-1497.2 676.38,-1491.2 676.38,-1491.2 676.38,-1448.8 676.38,-1448.8 676.38,-1442.8 682.38,-1436.8 688.38,-1436.8 688.38,-1436.8 977.66,-1436.8 977.66,-1436.8 983.66,-1436.8 989.66,-1442.8 989.66,-1448.8 989.66,-1448.8 989.66,-1491.2 989.66,-1491.2 989.66,-1497.2 983.66,-1503.2 977.66,-1503.2"/>
<text xml:space="preserve" text-anchor="start" x="774.52" y="-1478.65" font-family="Arial" font-weight="bold" font-size="13.00">Đọc nội dung item</text>
<text xml:space="preserve" text-anchor="start" x="693.89" y="-1453" font-family="Arial" font-size="13.00">Kiểm tra ý nghĩa, wording, trùng lặp, đảo chiều</text>
</g>
<!-- alpha_low&#45;&gt;review -->
<g id="edge9" class="edge">
<title>alpha_low&#45;&gt;review</title>
<path fill="none" stroke="#617c98" stroke-width="1.8" d="M905.27,-1561.98C893.44,-1547.08 879.25,-1529.21 866.59,-1513.27"/>
<polygon fill="#617c98" stroke="#617c98" stroke-width="1.8" points="869.59,-1511.42 860.63,-1505.77 864.11,-1515.77 869.59,-1511.42"/>
</g>
<!-- alpha_mid&#45;&gt;review -->
<g id="edge10" class="edge">
<title>alpha_mid&#45;&gt;review</title>
<path fill="none" stroke="#617c98" stroke-width="1.8" d="M654.18,-1561.82C686.02,-1545.65 724.67,-1526.02 757.88,-1509.16"/>
<polygon fill="#617c98" stroke="#617c98" stroke-width="1.8" points="759.16,-1512.43 766.49,-1504.79 755.99,-1506.19 759.16,-1512.43"/>
</g>
<!-- alpha_good&#45;&gt;review -->
<g id="edge11" class="edge">
<title>alpha_good&#45;&gt;review</title>
<path fill="none" stroke="#617c98" stroke-width="1.8" d="M358.02,-1561.74C452.56,-1543.68 569.6,-1521.32 663.85,-1503.32"/>
<polygon fill="#617c98" stroke="#617c98" stroke-width="1.8" points="664.27,-1506.8 673.43,-1501.49 662.95,-1499.92 664.27,-1506.8"/>
</g>
<!-- marketing_note -->
<g id="node22" class="node">
<title>marketing_note</title>
<polygon fill="#fffdf5" stroke="#e7d9a8" points="368.04,-1503.2 0,-1503.2 0,-1436.8 374.04,-1436.8 374.04,-1497.2 368.04,-1503.2"/>
<polyline fill="none" stroke="#e7d9a8" points="368.04,-1503.2 368.04,-1497.2"/>
<polyline fill="none" stroke="#e7d9a8" points="374.04,-1497.2 368.04,-1497.2"/>
<text xml:space="preserve" text-anchor="start" x="128.52" y="-1478.65" font-family="Arial" font-weight="bold" font-size="13.00">Context Marketing</text>
<text xml:space="preserve" text-anchor="start" x="17.52" y="-1453" font-family="Arial" font-size="13.00">Hành vi tiêu dùng biến động → alpha không cần quá cao</text>
</g>
<!-- alpha_good&#45;&gt;marketing_note -->
<g id="edge13" class="edge">
<title>alpha_good&#45;&gt;marketing_note</title>
<path fill="none" stroke="#617c98" stroke-width="1.8" stroke-dasharray="5,2" d="M187.02,-1561.98C187.02,-1547.92 187.02,-1531.22 187.02,-1515.99"/>
<polygon fill="#617c98" stroke="#617c98" stroke-width="1.8" points="190.52,-1516.36 187.02,-1506.36 183.52,-1516.36 190.52,-1516.36"/>
</g>
<!-- alpha_high&#45;&gt;review -->
<g id="edge12" class="edge">
<title>alpha_high&#45;&gt;review</title>
<path fill="none" stroke="#617c98" stroke-width="1.8" d="M1104.59,-1561.82C1054.77,-1545.16 993.96,-1524.82 942.52,-1507.62"/>
<polygon fill="#617c98" stroke="#617c98" stroke-width="1.8" points="943.86,-1504.38 933.26,-1504.52 941.64,-1511.01 943.86,-1504.38"/>
</g>
<!-- content_q -->
<g id="node10" class="node">
<title>content_q</title>
<polygon fill="#fff4d8" stroke="#e7c76a" points="833.02,-1377.8 599.23,-1311.4 833.02,-1245 1066.81,-1311.4 833.02,-1377.8"/>
<text xml:space="preserve" text-anchor="start" x="802.64" y="-1320.05" font-family="Arial" font-weight="bold" font-size="13.00">Câu hỏi 2</text>
<text xml:space="preserve" text-anchor="start" x="733.64" y="-1294.4" font-family="Arial" font-size="13.00">Có vấn đề rõ về nội dung không?</text>
</g>
<!-- review&#45;&gt;content_q -->
<g id="edge14" class="edge">
<title>review&#45;&gt;content_q</title>
<path fill="none" stroke="#617c98" stroke-width="1.8" d="M833.02,-1436.55C833.02,-1423.06 833.02,-1406.76 833.02,-1390.48"/>
<polygon fill="#617c98" stroke="#617c98" stroke-width="1.8" points="836.52,-1390.8 833.02,-1380.8 829.52,-1390.8 836.52,-1390.8"/>
</g>
<!-- content_issue -->
<g id="node11" class="node">
<title>content_issue</title>
<path fill="#fff1ee" stroke="#deb0a8" d="M805.04,-1173.5C805.04,-1173.5 599,-1173.5 599,-1173.5 593,-1173.5 587,-1167.5 587,-1161.5 587,-1161.5 587,-1119.1 587,-1119.1 587,-1113.1 593,-1107.1 599,-1107.1 599,-1107.1 805.04,-1107.1 805.04,-1107.1 811.04,-1107.1 817.04,-1113.1 817.04,-1119.1 817.04,-1119.1 817.04,-1161.5 817.04,-1161.5 817.04,-1167.5 811.04,-1173.5 805.04,-1173.5"/>
<text xml:space="preserve" text-anchor="start" x="649.52" y="-1148.95" font-family="Arial" font-weight="bold" font-size="13.00">Vấn đề nội dung</text>
<text xml:space="preserve" text-anchor="start" x="604.52" y="-1123.3" font-family="Arial" font-size="13.00">Item lệch ý, mơ hồ hoặc sai logic</text>
</g>
<!-- content_q&#45;&gt;content_issue -->
<g id="edge15" class="edge">
<title>content_q&#45;&gt;content_issue</title>
<path fill="none" stroke="#617c98" stroke-width="1.8" d="M791.21,-1256.43C772.98,-1232.9 751.92,-1205.72 734.85,-1183.68"/>
<polygon fill="#617c98" stroke="#617c98" stroke-width="1.8" points="737.62,-1181.54 728.73,-1175.78 732.09,-1185.83 737.62,-1181.54"/>
<text xml:space="preserve" text-anchor="middle" x="765.3" y="-1205.55" font-family="Arial" font-size="11.00">có</text>
</g>
<!-- stats -->
<g id="node12" class="node">
<title>stats</title>
<path fill="#eef2ff" stroke="#b7c8e6" d="M1014.16,-1048.1C1014.16,-1048.1 763.88,-1048.1 763.88,-1048.1 757.88,-1048.1 751.88,-1042.1 751.88,-1036.1 751.88,-1036.1 751.88,-993.7 751.88,-993.7 751.88,-987.7 757.88,-981.7 763.88,-981.7 763.88,-981.7 1014.16,-981.7 1014.16,-981.7 1020.16,-981.7 1026.16,-987.7 1026.16,-993.7 1026.16,-993.7 1026.16,-1036.1 1026.16,-1036.1 1026.16,-1042.1 1020.16,-1048.1 1014.16,-1048.1"/>
<text xml:space="preserve" text-anchor="start" x="853.77" y="-1023.55" font-family="Arial" font-weight="bold" font-size="13.00">Xem chỉ số</text>
<text xml:space="preserve" text-anchor="start" x="769.39" y="-997.9" font-family="Arial" font-size="13.00">CITC + Alpha if Item Deleted (chỉ hỗ trợ)</text>
</g>
<!-- content_q&#45;&gt;stats -->
<g id="edge16" class="edge">
<title>content_q&#45;&gt;stats</title>
<path fill="none" stroke="#617c98" stroke-width="1.8" d="M844.9,-1247.94C855.59,-1191.72 871.04,-1110.47 880.53,-1060.53"/>
<polygon fill="#617c98" stroke="#617c98" stroke-width="1.8" points="883.93,-1061.4 882.36,-1050.92 877.05,-1060.09 883.93,-1061.4"/>
<text xml:space="preserve" text-anchor="middle" x="892.52" y="-1136.6" font-family="Arial" font-size="11.00">không rõ</text>
</g>
<!-- content_issue&#45;&gt;stats -->
<g id="edge17" class="edge">
<title>content_issue&#45;&gt;stats</title>
<path fill="none" stroke="#617c98" stroke-width="1.8" d="M751.15,-1106.88C775.01,-1091.13 803.89,-1072.08 829.04,-1055.48"/>
<polygon fill="#617c98" stroke="#617c98" stroke-width="1.8" points="830.87,-1058.46 837.29,-1050.03 827.02,-1052.62 830.87,-1058.46"/>
</g>
<!-- revise -->
<g id="node19" class="node">
<title>revise</title>
<path fill="#fdeded" stroke="#dba7a7" d="M874.29,-580.5C874.29,-580.5 675.75,-580.5 675.75,-580.5 669.75,-580.5 663.75,-574.5 663.75,-568.5 663.75,-568.5 663.75,-526.1 663.75,-526.1 663.75,-520.1 669.75,-514.1 675.75,-514.1 675.75,-514.1 874.29,-514.1 874.29,-514.1 880.29,-514.1 886.29,-520.1 886.29,-526.1 886.29,-526.1 886.29,-568.5 886.29,-568.5 886.29,-574.5 880.29,-580.5 874.29,-580.5"/>
<text xml:space="preserve" text-anchor="start" x="718.02" y="-555.95" font-family="Arial" font-weight="bold" font-size="13.00">Sửa/loại thang đo</text>
<text xml:space="preserve" text-anchor="start" x="681.27" y="-530.3" font-family="Arial" font-size="13.00">Nếu nhiều vấn đề nghiêm trọng</text>
</g>
<!-- content_issue&#45;&gt;revise -->
<g id="edge27" class="edge">
<title>content_issue&#45;&gt;revise</title>
<path fill="none" stroke="#617c98" stroke-width="1.8" d="M684.15,-1106.88C664.01,-1070.32 634.02,-1015.9 634.02,-1015.9 634.02,-1015.9 634.02,-1015.9 634.02,-684.2 634.02,-684.2 690.64,-629.62 732.13,-589.64"/>
<polygon fill="#617c98" stroke="#617c98" stroke-width="1.8" points="734.51,-592.2 739.29,-582.74 729.66,-587.16 734.51,-592.2"/>
</g>
<!-- stats_q -->
<g id="node13" class="node">
<title>stats_q</title>
<polygon fill="#fff4d8" stroke="#e7c76a" points="921.02,-922.7 729.23,-856.3 921.02,-789.9 1112.81,-856.3 921.02,-922.7"/>
<text xml:space="preserve" text-anchor="start" x="890.64" y="-864.95" font-family="Arial" font-weight="bold" font-size="13.00">Câu hỏi 3</text>
<text xml:space="preserve" text-anchor="start" x="842.64" y="-839.3" font-family="Arial" font-size="13.00">Có item đáng nghi không?</text>
</g>
<!-- stats&#45;&gt;stats_q -->
<g id="edge18" class="edge">
<title>stats&#45;&gt;stats_q</title>
<path fill="none" stroke="#617c98" stroke-width="1.8" d="M895.65,-981.45C898.64,-966.82 902.3,-948.89 905.91,-931.25"/>
<polygon fill="#617c98" stroke="#617c98" stroke-width="1.8" points="909.33,-931.99 907.9,-921.49 902.47,-930.59 909.33,-931.99"/>
</g>
<!-- one_item -->
<g id="node14" class="node">
<title>one_item</title>
<path fill="#fff9ec" stroke="#e7c76a" d="M1227.54,-718.4C1227.54,-718.4 1030.5,-718.4 1030.5,-718.4 1024.5,-718.4 1018.5,-712.4 1018.5,-706.4 1018.5,-706.4 1018.5,-664 1018.5,-664 1018.5,-658 1024.5,-652 1030.5,-652 1030.5,-652 1227.54,-652 1227.54,-652 1233.54,-652 1239.54,-658 1239.54,-664 1239.54,-664 1239.54,-706.4 1239.54,-706.4 1239.54,-712.4 1233.54,-718.4 1227.54,-718.4"/>
<text xml:space="preserve" text-anchor="start" x="1076.89" y="-693.85" font-family="Arial" font-weight="bold" font-size="13.00">1 item có vấn đề</text>
<text xml:space="preserve" text-anchor="start" x="1036.02" y="-668.2" font-family="Arial" font-size="13.00">CITC thấp hoặc làm alpha tăng</text>
</g>
<!-- stats_q&#45;&gt;one_item -->
<g id="edge19" class="edge">
<title>stats_q&#45;&gt;one_item</title>
<path fill="none" stroke="#617c98" stroke-width="1.8" d="M977.86,-809.09C1009.66,-783.24 1048.92,-751.32 1079.47,-726.49"/>
<polygon fill="#617c98" stroke="#617c98" stroke-width="1.8" points="1081.39,-729.43 1086.94,-720.41 1076.97,-724 1081.39,-729.43"/>
<text xml:space="preserve" text-anchor="middle" x="1064.39" y="-750.45" font-family="Arial" font-size="11.00">1 item</text>
</g>
<!-- many_item -->
<g id="node15" class="node">
<title>many_item</title>
<path fill="#fdeded" stroke="#dba7a7" d="M885.16,-718.4C885.16,-718.4 700.88,-718.4 700.88,-718.4 694.88,-718.4 688.88,-712.4 688.88,-706.4 688.88,-706.4 688.88,-664 688.88,-664 688.88,-658 694.88,-652 700.88,-652 700.88,-652 885.16,-652 885.16,-652 891.16,-652 897.16,-658 897.16,-664 897.16,-664 897.16,-706.4 897.16,-706.4 897.16,-712.4 891.16,-718.4 885.16,-718.4"/>
<text xml:space="preserve" text-anchor="start" x="725.89" y="-693.85" font-family="Arial" font-weight="bold" font-size="13.00">Nhiều item có vấn đề</text>
<text xml:space="preserve" text-anchor="start" x="706.39" y="-668.2" font-family="Arial" font-size="13.00">Có thể sai ở cấp độ thang đo</text>
</g>
<!-- stats_q&#45;&gt;many_item -->
<g id="edge20" class="edge">
<title>stats_q&#45;&gt;many_item</title>
<path fill="none" stroke="#617c98" stroke-width="1.8" d="M881.57,-803.18C863.48,-779.28 842.3,-751.31 825.2,-728.71"/>
<polygon fill="#617c98" stroke="#617c98" stroke-width="1.8" points="828.12,-726.77 819.29,-720.91 822.54,-731 828.12,-726.77"/>
<text xml:space="preserve" text-anchor="middle" x="862.48" y="-750.45" font-family="Arial" font-size="11.00">nhiều</text>
</g>
<!-- keep -->
<g id="node18" class="node">
<title>keep</title>
<path fill="#eef8f1" stroke="#b8d7bc" d="M1084.41,-442.6C1084.41,-442.6 841.62,-442.6 841.62,-442.6 835.62,-442.6 829.62,-436.6 829.62,-430.6 829.62,-430.6 829.62,-388.2 829.62,-388.2 829.62,-382.2 835.62,-376.2 841.62,-376.2 841.62,-376.2 1084.41,-376.2 1084.41,-376.2 1090.41,-376.2 1096.41,-382.2 1096.41,-388.2 1096.41,-388.2 1096.41,-430.6 1096.41,-430.6 1096.41,-436.6 1090.41,-442.6 1084.41,-442.6"/>
<text xml:space="preserve" text-anchor="start" x="921.02" y="-418.05" font-family="Arial" font-weight="bold" font-size="13.00">Giữ thang đo</text>
<text xml:space="preserve" text-anchor="start" x="847.14" y="-392.4" font-family="Arial" font-size="13.00">Chấp nhận được về nội dung và chỉ số</text>
</g>
<!-- stats_q&#45;&gt;keep -->
<g id="edge21" class="edge">
<title>stats_q&#45;&gt;keep</title>
<path fill="none" stroke="#617c98" stroke-width="1.8" d="M927.04,-791.56C935.64,-700.4 951.25,-535.06 958.76,-455.52"/>
<polygon fill="#617c98" stroke="#617c98" stroke-width="1.8" points="962.22,-456.06 959.68,-445.78 955.26,-455.4 962.22,-456.06"/>
<text xml:space="preserve" text-anchor="middle" x="983.71" y="-612.55" font-family="Arial" font-size="11.00">không đáng ngại</text>
</g>
<!-- theory -->
<g id="node16" class="node">
<title>theory</title>
<path fill="#f4f7fb" stroke="#c8d8e7" d="M1304.79,-580.5C1304.79,-580.5 1019.25,-580.5 1019.25,-580.5 1013.25,-580.5 1007.25,-574.5 1007.25,-568.5 1007.25,-568.5 1007.25,-526.1 1007.25,-526.1 1007.25,-520.1 1013.25,-514.1 1019.25,-514.1 1019.25,-514.1 1304.79,-514.1 1304.79,-514.1 1310.79,-514.1 1316.79,-520.1 1316.79,-526.1 1316.79,-526.1 1316.79,-568.5 1316.79,-568.5 1316.79,-574.5 1310.79,-580.5 1304.79,-580.5"/>
<text xml:space="preserve" text-anchor="start" x="1112.14" y="-555.95" font-family="Arial" font-weight="bold" font-size="13.00">Check lý thuyết</text>
<text xml:space="preserve" text-anchor="start" x="1024.77" y="-530.3" font-family="Arial" font-size="13.00">Không loại item nếu nó quan trọng về concept</text>
</g>
<!-- one_item&#45;&gt;theory -->
<g id="edge22" class="edge">
<title>one_item&#45;&gt;theory</title>
<path fill="none" stroke="#617c98" stroke-width="1.8" d="M1136.92,-651.65C1141.21,-634 1146.57,-611.93 1151.23,-592.72"/>
<polygon fill="#617c98" stroke="#617c98" stroke-width="1.8" points="1154.58,-593.78 1153.54,-583.23 1147.78,-592.12 1154.58,-593.78"/>
</g>
<!-- many_item&#45;&gt;revise -->
<g id="edge26" class="edge">
<title>many_item&#45;&gt;revise</title>
<path fill="none" stroke="#617c98" stroke-width="1.8" d="M788.71,-651.65C786.38,-634.08 783.48,-612.14 780.94,-592.99"/>
<polygon fill="#617c98" stroke="#617c98" stroke-width="1.8" points="784.44,-592.74 779.65,-583.29 777.5,-593.66 784.44,-592.74"/>
</g>
<!-- rerun -->
<g id="node17" class="node">
<title>rerun</title>
<path fill="#ffffff" stroke="#c8d8e7" d="M1392.91,-442.6C1392.91,-442.6 1225.12,-442.6 1225.12,-442.6 1219.12,-442.6 1213.12,-436.6 1213.12,-430.6 1213.12,-430.6 1213.12,-388.2 1213.12,-388.2 1213.12,-382.2 1219.12,-376.2 1225.12,-376.2 1225.12,-376.2 1392.91,-376.2 1392.91,-376.2 1398.91,-376.2 1404.91,-382.2 1404.91,-388.2 1404.91,-388.2 1404.91,-430.6 1404.91,-430.6 1404.91,-436.6 1398.91,-442.6 1392.91,-442.6"/>
<text xml:space="preserve" text-anchor="start" x="1246.39" y="-418.05" font-family="Arial" font-weight="bold" font-size="13.00">Loại item &amp; chạy lại</text>
<text xml:space="preserve" text-anchor="start" x="1230.64" y="-392.4" font-family="Arial" font-size="13.00">Chạy lại alpha sau khi loại</text>
</g>
<!-- theory&#45;&gt;rerun -->
<g id="edge23" class="edge">
<title>theory&#45;&gt;rerun</title>
<path fill="none" stroke="#617c98" stroke-width="1.8" d="M1197.23,-513.75C1217.43,-495.07 1242.98,-471.45 1264.56,-451.51"/>
<polygon fill="#617c98" stroke="#617c98" stroke-width="1.8" points="1266.88,-454.13 1271.84,-444.77 1262.12,-448.99 1266.88,-454.13"/>
<text xml:space="preserve" text-anchor="middle" x="1248.18" y="-474.65" font-family="Arial" font-size="11.00">loại</text>
</g>
<!-- theory&#45;&gt;keep -->
<g id="edge24" class="edge">
<title>theory&#45;&gt;keep</title>
<path fill="none" stroke="#617c98" stroke-width="1.8" d="M1114.35,-513.75C1086.27,-494.57 1050.55,-470.18 1020.87,-449.9"/>
<polygon fill="#617c98" stroke="#617c98" stroke-width="1.8" points="1023.12,-447.21 1012.89,-444.46 1019.18,-452.99 1023.12,-447.21"/>
<text xml:space="preserve" text-anchor="middle" x="1076.36" y="-474.65" font-family="Arial" font-size="11.00">giữ</text>
</g>
<!-- rerun&#45;&gt;alpha_q -->
<g id="edge25" class="edge">
<title>rerun&#45;&gt;alpha_q</title>
<path fill="none" stroke="#617c98" stroke-width="1.8" d="M1324.11,-442.95C1342.75,-483.16 1372.02,-546.3 1372.02,-546.3 1372.02,-1596.4 1372.02,-1596.4 1372.02,-1596.4 1372.02,-1596.4 1335.02,-1628.6 1335.02,-1628.6 1335.02,-1628.6 1172.07,-1683.82 1053.14,-1724.12"/>
<polygon fill="#617c98" stroke="#617c98" stroke-width="1.8" points="1052.34,-1720.69 1044,-1727.22 1054.59,-1727.32 1052.34,-1720.69"/>
</g>
<!-- next_step -->
<g id="node20" class="node">
<title>next_step</title>
<path fill="#eef8f1" stroke="#b8d7bc" d="M1021.91,-317.2C1021.91,-317.2 902.12,-317.2 902.12,-317.2 896.12,-317.2 890.12,-311.2 890.12,-305.2 890.12,-305.2 890.12,-262.8 890.12,-262.8 890.12,-256.8 896.12,-250.8 902.12,-250.8 902.12,-250.8 1021.91,-250.8 1021.91,-250.8 1027.91,-250.8 1033.91,-256.8 1033.91,-262.8 1033.91,-262.8 1033.91,-305.2 1033.91,-305.2 1033.91,-311.2 1027.91,-317.2 1021.91,-317.2"/>
<text xml:space="preserve" text-anchor="start" x="914.02" y="-292.65" font-family="Arial" font-weight="bold" font-size="13.00">Bước tiếp theo</text>
<text xml:space="preserve" text-anchor="start" x="907.64" y="-267" font-family="Arial" font-size="13.00">Chạy EFA → SEM</text>
</g>
<!-- keep&#45;&gt;next_step -->
<g id="edge28" class="edge">
<title>keep&#45;&gt;next_step</title>
<path fill="none" stroke="#617c98" stroke-width="1.8" d="M962.76,-375.98C962.64,-361.92 962.51,-345.22 962.38,-329.99"/>
<polygon fill="#617c98" stroke="#617c98" stroke-width="1.8" points="965.89,-330.33 962.31,-320.36 958.89,-330.39 965.89,-330.33"/>
</g>
<!-- end -->
<g id="node23" class="node">
<title>end</title>
<path fill="#ffffff" stroke="#c8d8e7" d="M922.66,-66.4C922.66,-66.4 669.38,-66.4 669.38,-66.4 663.38,-66.4 657.38,-60.4 657.38,-54.4 657.38,-54.4 657.38,-12 657.38,-12 657.38,-6 663.38,0 669.38,0 669.38,0 922.66,0 922.66,0 928.66,0 934.66,-6 934.66,-12 934.66,-12 934.66,-54.4 934.66,-54.4 934.66,-60.4 928.66,-66.4 922.66,-66.4"/>
<text xml:space="preserve" text-anchor="start" x="769.02" y="-41.85" font-family="Arial" font-weight="bold" font-size="13.00">Kết thúc</text>
<text xml:space="preserve" text-anchor="start" x="674.89" y="-16.2" font-family="Arial" font-size="13.00">Chốt thang đo và giải thích rõ quyết định</text>
</g>
<!-- revise&#45;&gt;end -->
<g id="edge31" class="edge">
<title>revise&#45;&gt;end</title>
<path fill="none" stroke="#617c98" stroke-width="1.8" d="M775.02,-513.75C775.02,-473.54 775.02,-410.4 775.02,-410.4 775.02,-410.4 775.02,-410.4 775.02,-157.6 775.02,-157.6 782.37,-114.44 788.37,-79.16"/>
<polygon fill="#617c98" stroke="#617c98" stroke-width="1.8" points="791.82,-79.75 790.05,-69.31 784.92,-78.58 791.82,-79.75"/>
</g>
<!-- note -->
<g id="node21" class="node">
<title>note</title>
<polygon fill="#fffdf5" stroke="#e7d9a8" points="1083.91,-191.8 832.12,-191.8 832.12,-125.4 1089.91,-125.4 1089.91,-185.8 1083.91,-191.8"/>
<polyline fill="none" stroke="#e7d9a8" points="1083.91,-191.8 1083.91,-185.8"/>
<polyline fill="none" stroke="#e7d9a8" points="1089.91,-185.8 1083.91,-185.8"/>
<text xml:space="preserve" text-anchor="start" x="910.02" y="-167.25" font-family="Arial" font-weight="bold" font-size="13.00">Lưu ý học thuật</text>
<text xml:space="preserve" text-anchor="start" x="849.64" y="-141.6" font-family="Arial" font-size="13.00">Cronbach&#39;s Alpha ≠ unidimensionality</text>
</g>
<!-- next_step&#45;&gt;note -->
<g id="edge29" class="edge">
<title>next_step&#45;&gt;note</title>
<path fill="none" stroke="#617c98" stroke-width="1.8" d="M961.76,-250.58C961.64,-236.52 961.51,-219.82 961.38,-204.59"/>
<polygon fill="#617c98" stroke="#617c98" stroke-width="1.8" points="964.89,-204.93 961.31,-194.96 957.89,-204.99 964.89,-204.93"/>
</g>
<!-- note&#45;&gt;end -->
<g id="edge30" class="edge">
<title>note&#45;&gt;end</title>
<path fill="none" stroke="#617c98" stroke-width="1.8" d="M917.67,-125.18C896.9,-109.64 871.81,-90.89 849.83,-74.45"/>
<polygon fill="#617c98" stroke="#617c98" stroke-width="1.8" points="851.94,-71.65 841.84,-68.47 847.75,-77.26 851.94,-71.65"/>
</g>
</g>
</svg>
